<?xml version="1.0" encoding="UTF-8" standalone="no"?>
<!-- Created with Inkscape (http://www.inkscape.org/) -->

<svg
   xmlns:dc="http://purl.org/dc/elements/1.1/"
   xmlns:cc="http://creativecommons.org/ns#"
   xmlns:rdf="http://www.w3.org/1999/02/22-rdf-syntax-ns#"
   xmlns:svg="http://www.w3.org/2000/svg"
   xmlns="http://www.w3.org/2000/svg"
   xmlns:xlink="http://www.w3.org/1999/xlink"
   xmlns:sodipodi="http://sodipodi.sourceforge.net/DTD/sodipodi-0.dtd"
   xmlns:inkscape="http://www.inkscape.org/namespaces/inkscape"
   width="800"
   height="600"
   viewBox="0 0 211.66667 158.75"
   version="1.1"
   id="svg8"
   inkscape:version="0.92.4 5da689c313, 2019-01-14"
   sodipodi:docname="1337x.svg">
  <defs
     id="defs2">
    <linearGradient
       id="a">
      <stop
         id="stop821"
         offset="0" />
    </linearGradient>
    <linearGradient
       xlink:href="#a"
       gradientUnits="userSpaceOnUse"
       y2="28.2285"
       y1="28.2285"
       x2="93.488"
       x1="73.607"
       id="e" />
    <linearGradient
       xlink:href="#a"
       gradientUnits="userSpaceOnUse"
       y2="28.442"
       y1="28.442"
       x2="70.615"
       x1="46.385"
       id="d" />
    <linearGradient
       xlink:href="#a"
       gradientUnits="userSpaceOnUse"
       y2="28.4415"
       y1="28.4415"
       x2="41.311"
       x1="17.357"
       id="c" />
    <linearGradient
       xlink:href="#a"
       gradientUnits="userSpaceOnUse"
       y2="28.259"
       y1="28.259"
       x2="10.541"
       id="b" />
    <clipPath
       clipPathUnits="userSpaceOnUse"
       id="clipPath1254">
      <rect
         inkscape:label="Shadow mask"
         id="rect1256"
         y="1.9875739e-05"
         x="-5.1843021e-08"
         height="600"
         width="800"
         style="display:inline;opacity:0.95999995;fill:#35bf5c;fill-opacity:1;stroke:none;stroke-width:1;stroke-opacity:1" />
    </clipPath>
  </defs>
  <sodipodi:namedview
     id="base"
     pagecolor="#ffffff"
     bordercolor="#666666"
     borderopacity="1.0"
     inkscape:pageopacity="0.0"
     inkscape:pageshadow="2"
     inkscape:zoom="0.49497475"
     inkscape:cx="293.53973"
     inkscape:cy="259.57323"
     inkscape:document-units="px"
     inkscape:current-layer="layer1"
     showgrid="false"
     units="px"
     inkscape:pagecheckerboard="true"
     inkscape:window-width="1366"
     inkscape:window-height="712"
     inkscape:window-x="0"
     inkscape:window-y="26"
     inkscape:window-maximized="1"
     inkscape:snap-nodes="false"
     inkscape:snap-object-midpoints="true"
     inkscape:snap-global="true"
     showguides="false"
     inkscape:guide-bbox="true">
    <inkscape:grid
       empspacing="2"
       spacingx="52.916667"
       spacingy="39.6875"
       units="px"
       type="xygrid"
       id="grid815" />
    <sodipodi:guide
       position="162.52976,127.75595"
       orientation="0,1"
       id="guide5335"
       inkscape:locked="false" />
    <sodipodi:guide
       position="176.13691,31.75"
       orientation="0,1"
       id="guide5337"
       inkscape:locked="false" />
  </sodipodi:namedview>
  <metadata
     id="metadata5">
    <rdf:RDF>
      <cc:Work
         rdf:about="">
        <dc:format>image/svg+xml</dc:format>
        <dc:type
           rdf:resource="http://purl.org/dc/dcmitype/StillImage" />
        <dc:title />
      </cc:Work>
    </rdf:RDF>
  </metadata>
  <g
     inkscape:label="Tile"
     inkscape:groupmode="layer"
     id="layer1"
     transform="translate(0,-138.25001)">
    <rect
       style="display:inline;opacity:1;fill:#d32f2f;fill-opacity:1;stroke:none;stroke-width:0.26458335;stroke-opacity:1"
       width="211.66667"
       height="158.75"
       x="0"
       y="138.25002"
       id="rect817"
       inkscape:label="Background" />
    <path
       style="opacity:0.25757578;fill:#000000;fill-opacity:1;stroke-width:4.62325907"
       d="m 381.36328,172.5918 c -10.3561,0 -19.34767,1.70542 -26.9668,5.10351 -7.61913,3.40272 -13.58688,8.05456 -17.90039,13.94922 -4.31812,5.89928 -7.48106,12.38963 -9.49218,19.48633 -1.49722,5.28327 -2.43731,10.88347 -2.82032,16.80078 l -40.35351,-40.35352 c -0.39801,-0.398 -0.80335,-0.78886 -1.21485,-1.17187 -4.07771,-3.79107 -9.19072,-6.79893 -15.35351,-9.02734 -6.16281,-2.22841 -13.07734,-3.34571 -20.75195,-3.34571 -10.2359,0 -19.12691,1.68381 -26.65821,5.04492 -7.5359,3.36574 -13.44047,7.96108 -17.70312,13.79102 -4.20149,5.74629 -7.29299,12.07068 -9.28906,18.9668 l -34.58985,-34.58985 v 14.5918 l -14.5918,-14.5918 c -3.87429,6.51417 -9.11724,12.06484 -15.72851,16.64649 -6.61126,4.58164 -12.74595,7.91047 -18.41406,9.98633 v 20.40234 l 27.19726,27.19727 v 169.58007 l 411.34375,411.34375 h 21.53711 V 775.7793 l 47.88281,47.88281 c 0.45639,0.45639 0.92137,0.90297 1.39649,1.33984 4.06846,3.74947 9.21481,6.7398 15.42383,8.95899 6.20901,2.22377 13.19707,3.34375 20.96875,3.34375 33.01374,0 51.58244,-17.75037 55.70312,-53.25196 l 40.87891,40.87891 c 0.46955,0.46959 0.94827,0.92832 1.4375,1.37695 4.12391,3.79109 9.3251,6.82145 15.60351,9.06836 6.27837,2.24692 13.34872,3.375 21.21289,3.375 30.27433,0 48.52565,-14.77675 54.77735,-44.29687 l 38.33789,38.33789 h 22.48242 c 2.65849,-13.56075 5.517,-27.86978 8.48047,-42.57617 l 42.59375,42.59375 51.50783,0.21875 10.2383,-34.44922 34.4492,34.44922 48.8203,-0.11328 -38.418,-125.10547 35.0625,-119.42774 -411.34372,-411.34375 h -44.3086 l -10.95898,34.49805 -34.49805,-34.49805 19.35937,65.21094 -65.21093,-65.21094 4.16992,13.44727 -13.9082,-13.90821 v 10.8125 c -1.40075,7.18943 -2.85945,14.58413 -4.32618,22 L 518.55859,190.52148 H 463.7832 l -13.94336,-13.94336 v 13.94336 l 57.16602,57.16602 -4.45117,22.03516 -83.43164,-83.43164 c -0.40371,-0.40371 -0.81301,-0.80105 -1.23047,-1.18946 -4.12395,-3.83268 -9.30495,-6.87933 -15.53711,-9.13086 -6.23677,-2.25152 -13.22974,-3.3789 -20.99219,-3.3789 z"
       transform="matrix(0.26458334,0,0,0.26458334,1.37168e-8,138.25001)"
       id="path878"
       inkscape:connector-curvature="0"
       clip-path="url(#clipPath1254)" />
    <path
       transform="matrix(1.0915991,0,0,1.0915991,38.396291,186.57775)"
       inkscape:connector-curvature="0"
       id="path830"
       d="m 57.261095,-2.4393922 c -2.510127,0 -4.689427,0.4134675 -6.536162,1.2371025 -1.846736,0.82475656 -3.293361,1.95205489 -4.338874,3.3808112 -1.046633,1.4298755 -1.813276,3.0033704 -2.300734,4.723478 -0.48746,1.7201106 -0.731545,3.5779605 -0.731545,5.5759775 v 0.872125 h 4.98448 c 0.184899,-4.0666286 1.016422,-7.0062733 2.49224,-8.8193913 1.475821,-1.8119963 3.584529,-2.718228 6.326619,-2.718228 2.718556,0 4.739956,0.8090928 6.065618,2.4227455 1.32342,1.6147743 1.984562,4.3632598 1.984562,8.2427488 0,4.252646 -0.649544,7.257228 -1.951673,9.009833 -1.299885,1.754849 -3.624074,2.70129 -6.969041,2.840243 v 4.496961 c 1.671924,0.138954 3.1003,0.562778 4.284764,1.272113 1.185586,0.709335 2.110129,1.678677 2.771279,2.911327 0.662269,1.230409 1.137786,2.608628 1.42914,4.130392 0.291354,1.521764 0.435531,3.269936 0.435531,5.244418 0,2.510129 -0.172319,4.609011 -0.523064,6.292139 -0.347385,1.68425 -0.888957,2.985107 -1.619583,3.901752 -0.731747,0.920006 -1.56845,1.56543 -2.509746,1.935227 -0.940177,0.372036 -2.085319,0.558072 -3.432269,0.558072 -1.489268,0 -2.725655,-0.144176 -3.712898,-0.43553 -0.988361,-0.291354 -1.877872,-0.842699 -2.666768,-1.655128 -0.790019,-0.813549 -1.376393,-1.975819 -1.759635,-3.486377 -0.384363,-1.510558 -0.598071,-3.43794 -0.644014,-5.78446 h -4.951061 v 0.906609 c 0,1.5565 0.140119,3.026736 0.418025,4.407307 0.279029,1.383929 0.749895,2.713869 1.412164,3.992464 0.662271,1.278595 1.492672,2.375574 2.49224,3.292217 0.999568,0.918887 2.260096,1.653211 3.78186,2.19782 1.521765,0.544607 3.235378,0.818015 5.141506,0.818015 9.247125,0 13.871771,-5.681299 13.871771,-17.044101 0,-8.227387 -2.732234,-13.430336 -8.19288,-15.615492 2.394704,-0.697008 4.358058,-2.264794 5.892148,-4.705441 1.531849,-2.439531 2.300732,-5.588291 2.300732,-9.445367 0,-1.602449 -0.144705,-3.113365 -0.436059,-4.5309116 C 69.778413,6.5645287 69.296597,5.2109814 68.62312,3.9211783 67.949645,2.6313781 67.113413,1.5218593 66.114967,0.59288837 65.115398,-0.33608261 63.859579,-1.0745867 62.349019,-1.6203149 60.837343,-2.1660432 59.142568,-2.4393922 57.261095,-2.4393922 Z m -32.686116,0.3495928 c -2.480992,0 -4.635919,0.4081086 -6.461365,1.2227803 -1.826562,0.81579082 -3.257943,1.9295468 -4.291131,3.3426149 -1.033184,1.4130653 -1.790701,2.9694298 -2.273677,4.6693677 -0.482975,1.6999382 -0.723587,3.5377755 -0.723587,5.5133785 v 0.862046 h 4.927186 c 0.183776,-4.0195635 1.005115,-6.9267698 2.464125,-8.7185962 1.45789,-1.7907047 3.54323,-2.6869303 6.253943,-2.6869303 2.688299,0 4.687271,0.7989074 5.996122,2.3946311 1.308852,1.5968425 1.963344,4.3130634 1.963344,8.1488494 0,4.204462 -0.642952,7.173896 -1.929392,8.90745 -1.28756,1.735799 -3.583601,2.671642 -6.891589,2.809474 v 4.445503 c 1.653993,0.137834 3.06706,0.559132 4.23808,1.257262 1.172139,0.702609 2.085554,1.660942 2.739978,2.877904 0.654427,1.216963 1.125824,2.580405 1.412694,4.084241 0.286872,1.503834 0.430229,3.232932 0.430229,5.185004 0,2.48211 -0.171026,4.55532 -0.516167,6.220522 -0.344021,1.665198 -0.878706,2.951691 -1.602609,3.858252 -0.723901,0.908798 -1.551008,1.547631 -2.481101,1.912942 -0.930089,0.367555 -2.061688,0.55118 -3.394072,0.55118 -1.470216,0 -2.69389,-0.142294 -3.669926,-0.429167 -0.977158,-0.28911 -1.856071,-0.833624 -2.636004,-1.637089 -0.782173,-0.805707 -1.362366,-1.952251 -1.740005,-3.447123 -0.378762,-1.492628 -0.591704,-3.398933 -0.63765,-5.7208 h -4.893764 v 0.897589 c 0,1.538574 0.138173,2.991972 0.41272,4.357972 0.275666,1.366004 0.741823,2.681813 1.396247,3.944721 0.654427,1.265149 1.475762,2.347876 2.464126,3.256674 0.98612,0.908802 2.233405,1.633412 3.738359,2.171296 1.504954,0.539004 3.198906,0.810587 5.082621,0.810587 9.14291,0 13.715277,-5.616536 13.715277,-16.85047 0,-8.133257 -2.701091,-13.277807 -8.098985,-15.43831 2.366691,-0.689163 4.307555,-2.239286 5.823716,-4.650801 1.516161,-2.411513 2.275269,-5.525364 2.275269,-9.33874 0,-1.585637 -0.143885,-3.0781235 -0.430755,-4.4799841 C 36.950363,6.8136907 36.474316,5.4743296 35.807564,4.2002176 35.140814,2.9249837 34.313708,1.8279456 33.326466,0.90905947 32.338105,-0.00982665 31.098828,-0.73908497 29.605082,-1.2792101 28.111331,-1.819335 26.435163,-2.0897994 24.574979,-2.0897994 Z m 49.283543,0.6164313 v 3.3797466 h 16.656313 l -11.3111,55.9724895 h 5.449189 C 86.30692,49.441929 88.205396,40.089607 90.343487,29.824987 92.481576,19.559241 94.412373,9.9993367 96.136963,1.1477807 v -2.6211488 z m 24.638588,0.1119303 8.96474,28.9069098 -10.429419,30.337639 12.484549,0.05305 5.298,-17.825509 5.53353,17.825509 11.83309,-0.02705 -9.31168,-30.323316 8.49845,-28.9472288 H 120.62861 L 114.9338,16.568057 109.61087,-1.3614316 Z m -98.84665474,0.050398 C -1.2886007,0.26787336 -2.5591954,1.612827 -4.161644,2.7233343 -5.7640899,3.8338391 -7.2513378,4.6408106 -8.6251826,5.1439585 v 4.9452235 c 0.8012249,-0.1826586 1.8546964,-0.5719847 3.1590658,-1.1681373 1.3043695,-0.5950366 2.4494502,-1.2235032 3.4333273,-1.888015 V 57.78444 H 3.1872309 V -1.31104 Z"
       style="fill:#f4f4f4;fill-opacity:1;stroke-width:1.12059212" />
  </g>
</svg>
