<?xml version="1.0" encoding="UTF-8" standalone="no"?>
<!-- Created with Inkscape (http://www.inkscape.org/) -->

<svg
   xmlns:dc="http://purl.org/dc/elements/1.1/"
   xmlns:cc="http://creativecommons.org/ns#"
   xmlns:rdf="http://www.w3.org/1999/02/22-rdf-syntax-ns#"
   xmlns:svg="http://www.w3.org/2000/svg"
   xmlns="http://www.w3.org/2000/svg"
   xmlns:sodipodi="http://sodipodi.sourceforge.net/DTD/sodipodi-0.dtd"
   xmlns:inkscape="http://www.inkscape.org/namespaces/inkscape"
   sodipodi:docname="AliorBank.svg"
   inkscape:version="0.92.4 5da689c313, 2019-01-14"
   id="svg8"
   version="1.1"
   viewBox="0 0 211.66667 158.75"
   height="600"
   width="800">
  <defs
     id="defs2">
    <clipPath
       clipPathUnits="userSpaceOnUse"
       id="clipPath1276">
      <rect
         inkscape:label="Shadow mask"
         id="rect1278"
         y="1.9875739e-05"
         x="0"
         height="600"
         width="800"
         style="display:inline;opacity:0.95999995;fill:#35bf5c;fill-opacity:1;stroke:none;stroke-width:1;stroke-opacity:1" />
    </clipPath>
  </defs>
  <sodipodi:namedview
     id="base"
     pagecolor="#ffffff"
     bordercolor="#666666"
     borderopacity="1.0"
     inkscape:pageopacity="0.0"
     inkscape:pageshadow="2"
     inkscape:zoom="0.49497475"
     inkscape:cx="377.39801"
     inkscape:cy="298.41404"
     inkscape:document-units="px"
     inkscape:current-layer="layer1"
     showgrid="true"
     units="px"
     inkscape:pagecheckerboard="true"
     inkscape:window-width="1366"
     inkscape:window-height="712"
     inkscape:window-x="0"
     inkscape:window-y="26"
     inkscape:window-maximized="1"
     inkscape:snap-nodes="true"
     inkscape:snap-object-midpoints="true"
     inkscape:snap-global="true"
     showguides="true"
     inkscape:guide-bbox="true">
    <inkscape:grid
       id="grid815"
       type="xygrid"
       units="px"
       spacingy="39.6875"
       spacingx="52.916667"
       empspacing="2" />
    <sodipodi:guide
       inkscape:locked="false"
       id="guide5335"
       orientation="0,1"
       position="162.52976,127.75595" />
    <sodipodi:guide
       inkscape:locked="false"
       id="guide5337"
       orientation="0,1"
       position="176.13691,31.75" />
  </sodipodi:namedview>
  <metadata
     id="metadata5">
    <rdf:RDF>
      <cc:Work
         rdf:about="">
        <dc:format>image/svg+xml</dc:format>
        <dc:type
           rdf:resource="http://purl.org/dc/dcmitype/StillImage" />
        <dc:title />
      </cc:Work>
    </rdf:RDF>
  </metadata>
  <g
     inkscape:label="Tile"
     inkscape:groupmode="layer"
     id="layer1"
     transform="translate(0,-138.25001)">
    <rect
       style="display:inline;opacity:0.95999995;fill:#fdc412;fill-opacity:1;stroke:none;stroke-width:0.26458335;stroke-opacity:1"
       width="211.66667"
       height="158.75"
       x="0"
       y="138.25002"
       id="rect817"
       inkscape:label="Background" />
    <path
       style="display:inline;opacity:0.18500001;fill:#1a1a1a;stroke-width:2.69153023"
       d="m 420.41016,119.98633 c -2.4549,-0.0143 -5.01139,-0.012 -7.67969,0.006 l 29.37305,29.37304 c -0.002,-2.9e-4 -0.004,3e-4 -0.006,0 l -29.36719,-29.36718 c -6.09895,0.0408 -12.78743,0.15867 -20.19141,0.33593 -46.45879,1.1071 -53.16561,1.88183 -70.58984,8.10743 -61.29518,21.90066 -100.52149,75.87153 -100.52149,138.31836 0,12.28142 -1.19698,20.20355 -3.24414,21.46875 -1.78419,1.1026 -11.77652,2.12472 -22.20507,2.27148 -30.75049,0.4334 -44.67033,11.65827 -48.28907,38.9375 -3.7375,28.17475 9.42483,60.6885 34.46485,85.72852 l 438.29492,438.29492 c 1.07996,1.07996 2.18096,2.14606 3.30469,3.19726 29.22243,27.33612 80.6812,48.60969 139.59179,57.70508 33.88298,5.23132 113.57687,5.28249 148.5293,0.0918 v -0.008 c 102.44434,-15.21147 168.21504,-60.53085 178.36524,-122.89649 2.6947,-16.55588 -0.2575,-36.47155 -6.9121,-46.62695 -1.2578,-1.91962 -2.6495,-3.64955 -4.1972,-5.19727 l -64.5704,-64.57031 c -2.4888,-11.43357 -6.5857,-22.47437 -12.7988,-35.11914 -7.02359,-14.2944 -15.67162,-26.57781 -26.15236,-37.05859 L 537.31445,164.68359 C 526.79308,154.16222 514.42434,145.45699 500,138.35938 471.29482,124.23469 457.23357,120.20059 420.41016,119.98633 Z"
       id="path1072"
       inkscape:connector-curvature="0"
       transform="matrix(0.26458334,0,0,0.26458334,0,138.25001)"
       inkscape:label="Shadow"
       clip-path="url(#clipPath1276)" />
    <path
       inkscape:label="Logo"
       inkscape:connector-curvature="0"
       id="path1061"
       d="m 109.20168,169.99942 c -1.61368,0.0108 -3.38342,0.0422 -5.34239,0.0891 -12.292222,0.29292 -14.066667,0.49755 -18.676829,2.14474 -16.217682,5.79455 -26.596546,20.07462 -26.596546,36.59701 0,3.24946 -0.316524,5.34565 -0.858168,5.6804 -0.472067,0.29173 -3.115876,0.56202 -5.875099,0.60085 -8.136066,0.11467 -11.819237,3.08466 -12.776695,10.30229 -1.031529,7.77608 2.802422,16.80134 9.993518,23.52826 7.731771,7.23268 21.346851,12.86127 36.933611,15.26776 8.964867,1.38412 30.050288,1.39757 39.298118,0.0242 v -0.002 c 27.10506,-4.0247 44.50721,-16.01525 47.19278,-32.51616 0.71296,-4.38041 -0.0683,-9.65022 -1.829,-12.33717 -1.93252,-2.94938 -5.05141,-4.19698 -10.59995,-4.2394 -2.74172,-0.0215 -5.38552,-0.29085 -5.87509,-0.59949 -0.55868,-0.35218 -0.89017,-2.23265 -0.89017,-5.0503 0,-6.79601 -1.1285,-11.57851 -4.2158,-17.86178 -3.72384,-7.57878 -9.17402,-13.02133 -16.79216,-16.7699 -8.10124,-3.9863 -11.79432,-4.93522 -23.09013,-4.85978 z m -3.55928,7.16167 c 3.86232,-0.0509 7.5952,0.0899 10.34404,0.4604 18.02324,2.42894 28.26629,12.68658 29.28651,29.32826 0.36296,5.92052 0.32549,6.1109 -1.67464,8.25072 -2.66378,2.84984 -9.2284,5.02043 -19.20396,6.348 -8.33325,1.10899 -25.547961,1.24529 -34.830589,0.2768 -11.027792,-1.15058 -19.464259,-3.88081 -21.703397,-7.02538 -1.791483,-2.51591 -1.928913,-8.52986 -0.335204,-14.65022 2.785331,-10.69635 9.984609,-17.77521 21.682539,-21.31811 3.199772,-0.9691 9.99753,-1.58563 16.434701,-1.67047 z m 52.70071,44.7365 c 4.92468,0 7.06964,2.10416 7.04763,6.91131 -0.0215,4.77642 -2.14434,8.94377 -6.94471,13.63349 -6.25447,6.11037 -15.96029,10.39127 -30.29907,13.36363 -5.00673,1.03789 -30.696041,1.92676 -36.090733,1.24901 -11.896027,-1.49455 -24.098538,-4.99868 -31.12249,-8.93782 -5.18596,-2.90836 -11.232645,-8.86509 -13.039576,-12.84624 -1.880008,-4.14216 -1.84238,-9.07676 0.08774,-11.53046 1.358415,-1.72694 1.887139,-1.88932 5.519037,-1.69828 l 4.015494,0.21155 0.730213,6.55666 c 1.042349,9.37023 3.635234,12.32677 13.346949,15.21906 21.469396,6.3939 50.641576,6.20514 69.947716,-0.45201 9.0212,-3.11069 11.75857,-6.3684 11.75857,-13.99789 0,-6.76175 0.60462,-7.68188 5.04334,-7.68188 z m -90.514749,3.6316 c 0.748596,0.0401 1.888082,0.40185 3.619086,1.01258 9.353365,3.30006 19.423241,4.66222 34.495383,4.66504 14.13037,0.003 19.84045,-0.68531 30.8304,-3.71229 4.42254,-1.21811 8.25208,-2.00295 8.51084,-1.74417 0.80921,0.80918 0.1806,5.45807 -0.97641,7.22426 -1.22063,1.86291 -6.51407,4.07535 -13.74473,5.74577 -5.44591,1.25811 -35.288121,1.95701 -42.779508,1.00143 -2.545892,-0.32473 -6.675534,-1.12363 -9.177069,-1.77476 -9.950723,-2.59025 -12.186954,-4.3547 -12.186954,-9.61522 0,-2.04505 0.161223,-2.86969 1.408962,-2.80264 z"
       style="display:inline;fill:#f9f3de;stroke-width:0.71213406" />
  </g>
</svg>
