<?xml version="1.0" encoding="UTF-8" standalone="no"?>
<!-- Created with Inkscape (http://www.inkscape.org/) -->

<svg
   xmlns:dc="http://purl.org/dc/elements/1.1/"
   xmlns:cc="http://creativecommons.org/ns#"
   xmlns:rdf="http://www.w3.org/1999/02/22-rdf-syntax-ns#"
   xmlns:svg="http://www.w3.org/2000/svg"
   xmlns="http://www.w3.org/2000/svg"
   xmlns:sodipodi="http://sodipodi.sourceforge.net/DTD/sodipodi-0.dtd"
   xmlns:inkscape="http://www.inkscape.org/namespaces/inkscape"
   sodipodi:docname="AliorKantor.svg"
   inkscape:version="0.92.4 5da689c313, 2019-01-14"
   id="svg8"
   version="1.1"
   viewBox="0 0 211.66667 158.75"
   height="600"
   width="800">
  <defs
     id="defs2">
    <clipPath
       clipPathUnits="userSpaceOnUse"
       id="clipPath1439">
      <rect
         inkscape:label="Shadow mask"
         id="rect1441"
         y="138.25002"
         x="0"
         height="158.75"
         width="211.66667"
         style="display:inline;opacity:0.95999995;fill:#35bf5c;fill-opacity:1;stroke:none;stroke-width:0.26458335;stroke-opacity:1" />
    </clipPath>
  </defs>
  <sodipodi:namedview
     id="base"
     pagecolor="#ffffff"
     bordercolor="#666666"
     borderopacity="1.0"
     inkscape:pageopacity="0.0"
     inkscape:pageshadow="2"
     inkscape:zoom="0.35"
     inkscape:cx="-23.623004"
     inkscape:cy="279.76274"
     inkscape:document-units="px"
     inkscape:current-layer="layer1"
     showgrid="true"
     units="px"
     inkscape:pagecheckerboard="true"
     inkscape:window-width="1366"
     inkscape:window-height="712"
     inkscape:window-x="0"
     inkscape:window-y="26"
     inkscape:window-maximized="1"
     inkscape:snap-nodes="false"
     inkscape:snap-object-midpoints="true"
     inkscape:snap-global="true"
     showguides="true"
     inkscape:guide-bbox="true">
    <inkscape:grid
       empspacing="2"
       spacingx="52.916667"
       spacingy="39.6875"
       units="px"
       type="xygrid"
       id="grid815" />
    <sodipodi:guide
       position="162.52976,127.75595"
       orientation="0,1"
       id="guide5335"
       inkscape:locked="false" />
    <sodipodi:guide
       position="176.13691,31.75"
       orientation="0,1"
       id="guide5337"
       inkscape:locked="false" />
  </sodipodi:namedview>
  <metadata
     id="metadata5">
    <rdf:RDF>
      <cc:Work
         rdf:about="">
        <dc:format>image/svg+xml</dc:format>
        <dc:type
           rdf:resource="http://purl.org/dc/dcmitype/StillImage" />
        <dc:title />
      </cc:Work>
    </rdf:RDF>
  </metadata>
  <g
     inkscape:label="Tile"
     inkscape:groupmode="layer"
     id="layer1"
     transform="translate(0,-138.25001)">
    <g
       id="g858"
       transform="translate(-222.25368,143.45456)"
       style="display:none;stroke:none">
      <path
         style="display:none;fill:#fbf7f4;stroke:none;stroke-width:0.35277778"
         d="m -286.45557,259.55517 v -90.31111 h 90.31111 90.31111 v 90.31111 90.31111 h -90.31111 -90.31111 z"
         id="path868"
         inkscape:connector-curvature="0" />
      <path
         style="display:inline;fill:#fdc224;stroke:none;stroke-width:0.35277778"
         d="m -286.45557,259.55517 v -90.31111 h 90.31111 90.31111 v 90.31111 90.31111 h -90.31111 -90.31111 z m 109.14698,55.53365 c 0.11777,-0.30691 0.21413,-3.4869 0.21413,-7.06663 0,-4.90899 0.10838,-6.53751 0.44097,-6.6262 5.03358,-1.34227 6.61137,-1.89256 9.43681,-3.2913 2.75398,-1.36337 3.89337,-2.19824 6.39182,-4.68351 2.46963,-2.4566 3.31007,-3.58486 4.47669,-6.00978 1.89065,-3.92988 2.7038,-7.95998 2.41505,-11.96933 -0.47579,-6.6064 -2.17302,-10.43387 -6.57548,-14.82857 -3.79671,-3.79 -6.71385,-5.50602 -15.87073,-9.33598 -3.90356,-1.6327 -8.15957,-3.56256 -9.45779,-4.28857 -2.95188,-1.65078 -5.62747,-4.11296 -6.47072,-5.95461 -0.74964,-1.63718 -0.84541,-4.23498 -0.2326,-6.30907 0.60004,-2.03087 3.48199,-4.85801 5.74759,-5.63827 5.82553,-2.0063 14.72927,-1.18577 22.44534,2.06847 1.60628,0.67743 3.05537,1.09682 3.22022,0.93197 0.39951,-0.39951 3.41989,-10.59762 3.4287,-11.57676 0.006,-0.63651 -0.4792,-0.95557 -2.83034,-1.86227 -3.59071,-1.38473 -7.69986,-2.35926 -11.97468,-2.83995 -1.84066,-0.20697 -3.46385,-0.49351 -3.60708,-0.63674 -0.14324,-0.14324 -0.30412,-2.95525 -0.35752,-6.24891 l -0.0971,-5.98847 h -5.46806 -5.46805 l -0.17639,6.50471 -0.17639,6.50471 -3.23112,0.9276 c -11.9726,3.43712 -18.7936,11.64827 -18.81228,22.64631 -0.007,3.89994 0.4707,6.18077 1.94163,9.27778 2.83522,5.9695 8.84214,10.36501 20.52238,15.0171 9.31039,3.70819 13.85527,6.71519 15.60141,10.32223 0.84462,1.74477 0.98931,5.12694 0.31554,7.3758 -0.55896,1.86563 -3.14865,4.68545 -5.308,5.77967 -2.53624,1.28521 -7.28433,2.23447 -11.22127,2.2434 l -3.3667,0.008 -2.63052,5.51983 c -1.44678,3.03591 -2.67742,5.63724 -2.73474,5.78073 -0.17892,0.44787 2.10654,1.0609 4.80589,1.28908 1.42357,0.12034 2.78928,0.41976 3.03491,0.66538 0.33638,0.33639 0.40472,1.7509 0.27692,5.73239 -0.0933,2.90719 -0.0662,5.69807 0.0603,6.20197 l 0.22994,0.91619 h 5.42359 c 4.62017,0 5.45532,-0.0827 5.63773,-0.55802 z"
         id="path866"
         inkscape:connector-curvature="0" />
      <path
         style="display:inline;fill:#f0a61f;stroke:none;stroke-width:0.35277778"
         d="m -286.45557,259.55517 v -90.31111 h 90.31111 90.31111 v 90.31111 90.31111 h -90.31111 -90.31111 z m 109.14698,55.53365 c 0.11777,-0.30691 0.21413,-3.4869 0.21413,-7.06663 0,-4.90899 0.10838,-6.53751 0.44097,-6.6262 5.03358,-1.34227 6.61137,-1.89256 9.43681,-3.2913 2.75398,-1.36337 3.89337,-2.19824 6.39182,-4.68351 2.46963,-2.4566 3.31007,-3.58486 4.47669,-6.00978 1.89065,-3.92988 2.7038,-7.95998 2.41505,-11.96933 -0.47579,-6.6064 -2.17302,-10.43387 -6.57548,-14.82857 -3.79671,-3.79 -6.71385,-5.50602 -15.87073,-9.33598 -3.90356,-1.6327 -8.15957,-3.56256 -9.45779,-4.28857 -2.95188,-1.65078 -5.62747,-4.11296 -6.47072,-5.95461 -0.74964,-1.63718 -0.84541,-4.23498 -0.2326,-6.30907 0.60004,-2.03087 3.48199,-4.85801 5.74759,-5.63827 5.82553,-2.0063 14.72927,-1.18577 22.44534,2.06847 1.60628,0.67743 3.05537,1.09682 3.22022,0.93197 0.39951,-0.39951 3.41989,-10.59762 3.4287,-11.57676 0.006,-0.63651 -0.4792,-0.95557 -2.83034,-1.86227 -3.59071,-1.38473 -7.69986,-2.35926 -11.97468,-2.83995 -1.84066,-0.20697 -3.46385,-0.49351 -3.60708,-0.63674 -0.14324,-0.14324 -0.30412,-2.95525 -0.35752,-6.24891 l -0.0971,-5.98847 h -5.46806 -5.46805 l -0.0932,5.99722 c -0.1069,6.88269 -0.1053,6.87917 -3.10307,6.87917 -2.50534,0 -7.47695,0.90386 -9.845,1.78986 -1.96106,0.73372 -2.29831,1.38514 -0.71712,1.38514 0.46217,0 0.93051,0.14595 1.04076,0.32433 0.11025,0.17839 -1.1107,1.64685 -2.71321,3.26325 -4.91104,4.95361 -6.90785,9.29496 -7.23299,15.72557 -0.22357,4.42197 0.26606,7.18856 1.85772,10.49657 1.63712,3.4025 3.88539,5.81049 7.88223,8.44216 4.15821,2.73794 7.11507,4.23437 12.99166,6.57494 9.31039,3.70819 13.85527,6.71519 15.60141,10.32223 0.84462,1.74477 0.98931,5.12694 0.31554,7.3758 -0.55904,1.86593 -3.14876,4.6855 -5.30892,5.78014 -2.91107,1.47515 -7.6741,2.3554 -11.38142,2.10338 -4.23075,-0.28759 -9.22576,-1.34724 -11.70838,-2.48381 -5.05153,-2.31267 -13.07778,-13.09433 -10.48777,-14.08821 0.30691,-0.11777 2.53026,-0.21413 4.94077,-0.21413 h 4.38275 l -2.73591,-3.50247 -2.7359,-3.50247 -2.82223,-0.0307 c -1.55222,-0.0169 -3.03214,-0.1638 -3.2887,-0.32647 -0.25657,-0.16267 -0.60997,-0.91431 -0.78534,-1.67029 -0.40641,-1.75199 -0.42045,-6.86812 -0.0206,-7.49925 0.20082,-0.31697 -0.28213,-1.72347 -1.42035,-4.1365 -2.96869,-6.2936 -4.89199,-13.07181 -4.89199,-17.24059 0,-1.07533 -0.13575,-1.95515 -0.30166,-1.95515 -0.54649,0 -3.24855,4.18273 -4.61588,7.14526 -0.73842,1.5999 -1.62715,4.02016 -1.97496,5.37835 -0.3478,1.35819 -0.78434,2.66788 -0.97007,2.91042 -0.2577,0.33649 -3.00215,0.44097 -11.5834,0.44097 -10.48443,0 -11.24402,0.0418 -11.22094,0.61736 0.0136,0.33955 0.6883,1.96674 1.4993,3.61597 l 1.47455,2.99861 9.34861,0.17639 9.34862,0.17639 0.24738,4.21791 c 0.1664,2.83695 0.12338,4.36733 -0.13138,4.6743 -0.28817,0.34722 -2.17699,0.4564 -7.89559,0.4564 h -7.5168 l 1.62392,3.52778 1.62391,3.52778 h 6.39783 c 4.63081,0 6.56784,0.12432 7.0134,0.45012 0.33857,0.24757 0.97812,1.47788 1.42122,2.73403 1.85932,5.27099 5.44899,10.93527 9.68249,15.27836 5.96464,6.11905 13.9841,9.91734 23.11038,10.94586 2.40387,0.27092 4.29139,0.65201 4.44281,0.89701 0.1448,0.23429 0.18761,2.7829 0.0952,5.66357 -0.0925,2.88067 -0.0646,5.64986 0.0618,6.15376 l 0.22994,0.91618 h 5.42359 c 4.62017,0 5.45532,-0.0827 5.63773,-0.55802 z"
         id="path864"
         inkscape:connector-curvature="0" />
      <path
         style="display:inline;fill:#d5652e;stroke:none;stroke-width:0.35277778"
         d="m -286.45557,259.55517 v -90.31111 h 90.31111 90.31111 v 90.31111 90.31111 h -90.31111 -90.31111 z m 109.14698,55.53365 c 0.11777,-0.30691 0.21413,-3.4869 0.21413,-7.06663 0,-4.90899 0.10838,-6.53751 0.44097,-6.6262 5.03358,-1.34227 6.61137,-1.89256 9.43681,-3.2913 2.75398,-1.36337 3.89337,-2.19824 6.39182,-4.68351 2.46963,-2.4566 3.31007,-3.58486 4.47669,-6.00978 1.89065,-3.92988 2.7038,-7.95998 2.41505,-11.96933 -0.47579,-6.6064 -2.17302,-10.43387 -6.57548,-14.82857 -3.79671,-3.79 -6.71385,-5.50602 -15.87073,-9.33598 -3.90356,-1.6327 -8.15957,-3.56256 -9.45779,-4.28857 -2.95188,-1.65078 -5.62747,-4.11296 -6.47072,-5.95461 -0.74964,-1.63718 -0.84541,-4.23498 -0.2326,-6.30907 0.60004,-2.03087 3.48199,-4.85801 5.74759,-5.63827 5.82553,-2.0063 14.72927,-1.18577 22.44534,2.06847 1.60628,0.67743 3.05537,1.09682 3.22022,0.93197 0.39951,-0.39951 3.41989,-10.59762 3.4287,-11.57676 0.006,-0.63651 -0.4792,-0.95557 -2.83034,-1.86227 -3.59071,-1.38473 -7.69986,-2.35926 -11.97468,-2.83995 -1.84066,-0.20697 -3.46385,-0.49351 -3.60708,-0.63674 -0.14324,-0.14324 -0.30412,-2.95525 -0.35752,-6.24891 l -0.0971,-5.98847 h -5.46806 -5.46805 l -0.0971,5.98187 c -0.0689,4.2442 -0.22258,6.06163 -0.52917,6.25641 -0.23766,0.15099 -1.4035,0.27696 -2.59076,0.27993 -5.04735,0.0126 -11.82365,1.90415 -16.71496,4.66578 -6.71987,3.79402 -14.36809,12.23477 -17.6555,19.48499 -0.59136,1.30423 -1.44042,3.74725 -1.88679,5.42895 l -0.81157,3.05762 -11.69529,0.093 c -7.04412,0.056 -11.69529,0.22556 -11.69529,0.4264 0,0.1834 0.78215,2.00422 1.73811,4.04628 l 1.73812,3.71284 9.28619,0.0941 9.28619,0.0941 0.2349,4.05447 c 0.16966,2.92836 0.12067,4.12714 -0.17639,4.31612 -0.22621,0.14392 -3.78473,0.26409 -7.90782,0.26706 -4.12309,0.003 -7.49652,0.078 -7.49652,0.16672 0,0.28825 2.94301,6.70468 3.28352,7.15882 0.24174,0.3224 1.95536,0.44227 6.37286,0.44579 3.32323,0.003 6.38276,0.0962 6.79896,0.20785 0.57533,0.15437 1.02292,0.94722 1.86721,3.30749 2.2198,6.2056 7.64278,13.74209 12.8578,17.8689 5.90778,4.67501 14.98309,7.8915 22.26581,7.8915 2.47519,0 2.56305,0.23319 2.36872,6.28741 -0.0933,2.90719 -0.0662,5.69807 0.0603,6.20197 l 0.22994,0.91618 h 5.42359 c 4.62017,0 5.45532,-0.0827 5.63773,-0.55802 z m -13.98805,-26.09679 c -6.85258,-1.06662 -10.45631,-2.83909 -14.27301,-7.02009 -2.09022,-2.28972 -4.02301,-5.205 -4.7794,-7.20888 -0.35494,-0.94035 -0.33854,-1.1838 0.0983,-1.46003 0.28837,-0.18232 4.11258,-0.33393 8.49825,-0.3369 4.38567,-0.003 8.91005,-0.10226 10.05417,-0.22064 l 2.08022,-0.21523 -1.76993,-1.81324 c -0.97345,-0.99728 -2.46853,-2.59265 -3.32238,-3.54526 l -1.55245,-1.73202 -7.84657,-0.16782 c -4.31562,-0.0923 -8.03109,-0.28186 -8.25661,-0.42123 -0.90128,-0.55703 -1.48508,-6.90743 -0.74277,-8.07968 0.23348,-0.36872 1.58943,-0.53452 5.44093,-0.66527 l 5.12995,-0.17416 2.75574,1.76521 c 3.6033,2.30809 6.67696,3.83322 12.28076,6.09361 7.35113,2.96523 10.63924,4.78481 13.14844,7.27615 2.61876,2.6001 3.25572,3.94398 3.25572,6.869 0,3.04667 -0.59338,4.70188 -2.40989,6.72228 -1.95182,2.17089 -4.18068,3.32206 -8.11795,4.19278 -3.53151,0.78098 -5.38824,0.80813 -9.67156,0.14142 z"
         id="path862"
         inkscape:connector-curvature="0" />
      <path
         style="display:inline;fill:#910033;stroke:none;stroke-width:0.35277778"
         d="m -286.45557,259.55517 v -90.31111 h 90.31111 90.31111 v 90.31111 90.31111 h -90.31111 -90.31111 z m 109.43041,56.35625 c 0.0381,-0.0485 0.15718,-3.24182 0.26458,-7.09626 l 0.19529,-7.00806 2.47176,-0.62711 c 5.59521,-1.41956 10.02493,-3.83002 13.58996,-7.39504 2.77908,-2.77909 4.54185,-5.5916 5.86791,-9.36233 0.89996,-2.55907 0.99084,-3.25773 0.98617,-7.58134 -0.006,-5.40846 -0.45595,-7.41321 -2.57414,-11.46528 -3.03985,-5.81516 -8.87974,-10.01879 -20.34166,-14.64218 -12.67718,-5.11358 -16.44561,-8.373 -15.95362,-13.79875 0.36224,-3.9948 2.8864,-6.66305 7.47937,-7.90631 1.8688,-0.50586 3.15922,-0.5812 7.14149,-0.41696 5.37091,0.22151 9.45978,1.13476 13.71101,3.06236 1.29779,0.58845 2.57919,1.0699 2.84755,1.0699 0.65457,0 0.92385,-0.6834 2.76727,-7.02277 1.14757,-3.94639 1.478,-5.55879 1.20627,-5.8862 -1.21315,-1.46175 -10.32604,-4.07581 -15.93615,-4.57133 l -2.73403,-0.24149 v -6.11974 c 0,-5.68937 -0.048,-6.14544 -0.68236,-6.48495 -0.88785,-0.47516 -9.74186,-0.47516 -10.62972,0 -0.63293,0.33874 -0.68236,0.79319 -0.68236,6.2738 v 5.90861 l -4.32153,0.41436 c -5.12325,0.49124 -9.40202,1.66052 -13.53065,3.69759 -10.05967,4.96347 -19.73272,16.96138 -21.83658,27.0849 -0.14113,0.67909 -0.41646,1.43316 -0.61184,1.67569 -0.27096,0.33635 -3.06014,0.44097 -11.7565,0.44097 -6.30191,0 -11.48826,0.14078 -11.59579,0.31475 -0.19477,0.31516 2.97811,7.59047 3.56728,8.17965 0.17206,0.17205 4.43514,0.35526 9.47353,0.40713 l 9.16069,0.0943 0.10013,3.79236 0.10013,3.79236 h -7.60773 c -6.57776,0 -7.63641,0.0747 -7.81961,0.55215 -0.17915,0.46687 2.10805,6.3779 3.07391,7.94422 0.24188,0.39224 1.76337,0.53733 7.08748,0.67585 l 6.77949,0.17639 1.11007,2.82222 c 1.43948,3.65973 2.3715,5.44553 4.41879,8.46667 7.39433,10.91165 17.10312,16.61574 30.06359,17.6629 l 3.08681,0.2494 v 5.91986 c 0,3.25592 0.0964,6.17096 0.21413,6.47787 0.18321,0.47744 1.04923,0.55802 5.99722,0.55802 3.1807,0 5.81428,-0.0397 5.85239,-0.0882 z m -14.30054,-27.44185 c -3.90932,-0.61096 -7.64114,-1.82131 -9.67821,-3.13894 -2.49526,-1.614 -5.821,-5.2021 -7.57597,-8.17361 -2.15854,-3.65484 -2.41704,-3.49074 5.49867,-3.49074 3.75186,0 12.06602,-0.10465 18.4759,-0.23255 l 11.65432,-0.23255 0.66229,1.01222 c 0.51837,0.79223 0.6623,1.67305 0.6623,4.05308 0,2.77082 -0.0952,3.19501 -1.07143,4.77658 -1.33227,2.15828 -4.19688,4.16671 -7.04246,4.93757 -2.51296,0.68077 -8.68997,0.94146 -11.58541,0.48894 z m -15.12311,-23.88665 -5.89463,-0.10579 -0.21072,-1.13806 c -0.11589,-0.62594 -0.16206,-2.32869 -0.10259,-3.7839 l 0.10812,-2.64583 5.2191,-0.0977 5.21909,-0.0977 3.34271,2.09604 c 1.83848,1.15282 5.12552,2.84239 7.30451,3.7546 2.179,0.9122 4.11263,1.7989 4.29695,1.97042 0.31671,0.29471 -4.82052,0.30749 -19.28254,0.048 z"
         id="path860"
         inkscape:connector-curvature="0" />
    </g>
    <path
       style="display:none;opacity:1;fill:#b71c1c;fill-opacity:0.95686275;stroke:none;stroke-width:1.01017916;stroke-linecap:butt;stroke-linejoin:miter;stroke-miterlimit:4;stroke-dasharray:none;stroke-opacity:1"
       d="m -675.59365,425.61719 c -2.43546,0 -4.871,0.11845 -5.31492,0.35605 -0.63294,0.33874 -0.68265,0.7934 -0.68265,6.27404 v 5.90867 l -4.32118,0.41445 c -5.12326,0.49125 -9.40234,1.66039 -13.53095,3.69744 -10.05967,4.96348 -19.73254,16.96114 -21.8364,27.08466 -0.14113,0.67908 -0.41646,1.43332 -0.61185,1.67587 -0.27096,0.33634 -3.06004,0.44079 -11.75639,0.44079 -6.3019,0 -11.48866,0.14074 -11.59619,0.31473 -0.19476,0.31514 2.97858,7.59065 3.56775,8.17985 0.17206,0.17204 4.43492,0.35534 9.47333,0.4072 l 9.16067,0.0941 0.10025,3.79254 0.10025,3.79253 h -7.60781 c -6.57775,0 -7.63648,0.0745 -7.81968,0.5519 -0.17915,0.46688 2.10786,6.37788 3.07372,7.94422 0.24188,0.39224 1.76332,0.53739 7.08742,0.67593 l 6.77945,0.17621 1.1105,2.82258 c 1.4395,3.65971 2.37107,5.44552 4.41834,8.46666 7.39433,10.91166 17.10332,16.61584 30.06381,17.66301 l 3.08663,0.24907 v 5.92006 c 0,3.25591 0.0967,6.17071 0.21447,6.47763 0.18319,0.47744 1.04904,0.55811 5.99704,0.55811 3.18069,0 5.81425,-0.0399 5.85235,-0.0884 0.0381,-0.0485 0.15719,-3.24178 0.26458,-7.0962 l 0.19534,-7.00784 2.47169,-0.62735 c 5.59519,-1.41957 10.02482,-3.8299 13.58987,-7.39492 2.77908,-2.77908 4.54179,-5.59146 5.86785,-9.3622 0.89996,-2.55908 0.99118,-3.25784 0.9865,-7.58145 -0.006,-5.40845 -0.4558,-7.41339 -2.574,-11.46546 -3.03985,-5.81517 -8.88,-10.0186 -20.34191,-14.64198 -12.67719,-5.11361 -16.44554,-8.3729 -15.95355,-13.79866 0.36224,-3.99479 2.88615,-6.66324 7.47913,-7.90649 1.86881,-0.50586 3.15942,-0.58126 7.14169,-0.41704 5.37091,0.22151 9.45957,1.13475 13.71079,3.06234 1.29778,0.58846 2.57953,1.07024 2.84789,1.07024 0.65456,0 0.92385,-0.68347 2.76728,-7.02283 1.14755,-3.9464 1.47786,-5.55906 1.20613,-5.88645 -1.21317,-1.46177 -10.32589,-4.0758 -15.93599,-4.57132 l -2.7342,-0.24132 v -6.11952 c 0,-5.68937 -0.0478,-6.14588 -0.68212,-6.48539 -0.44395,-0.2376 -2.87946,-0.35605 -5.31493,-0.35605 z m -20.07732,54.65247 3.34293,2.096 c 1.83848,1.15281 5.12548,2.8426 7.30449,3.75481 2.17897,0.9122 4.11257,1.7989 4.29688,1.97043 0.31671,0.29469 -4.82052,0.30755 -19.28254,0.048 l -5.89473,-0.10594 -0.21085,-1.13792 c -0.11589,-0.62593 -0.16179,-2.32905 -0.10231,-3.78426 l 0.108,-2.64583 5.21933,-0.0977 z m 29.15946,16.48737 0.66249,1.01233 c 0.51838,0.79224 0.66197,1.67296 0.66197,4.05299 0,2.77082 -0.095,3.1949 -1.07125,4.77644 -1.33228,2.15829 -4.1969,4.16685 -7.04247,4.93768 -2.51296,0.68078 -8.68989,0.94139 -11.58533,0.48888 -3.90933,-0.61095 -7.64141,-1.82121 -9.67849,-3.13884 -2.49526,-1.61398 -5.82078,-5.20215 -7.57576,-8.17366 -2.15855,-3.65483 -2.41681,-3.49073 5.49889,-3.49073 3.75187,0 12.066,-0.10464 18.47588,-0.23254 z"
       id="rect870"
       inkscape:connector-curvature="0"
       sodipodi:nodetypes="scscccccsccccccsccccccccscssccccccsscsccsccccscscccccccccccccscccssssc" />
    <path
       style="display:none;opacity:1;fill:#fb8c00;fill-opacity:0.95686275;stroke:none;stroke-width:1.01017916;stroke-linecap:butt;stroke-linejoin:miter;stroke-miterlimit:4;stroke-dasharray:none;stroke-opacity:1"
       d="m -613.28333,420.99549 -0.0956,5.99964 c -0.037,2.38075 -0.064,3.9243 -0.20363,4.94234 l -0.0558,2.06965 -3.23133,0.92758 c -11.97258,3.43715 -18.79348,11.64812 -18.8123,22.64616 -0.007,3.89996 0.47109,6.18099 1.94202,9.27799 1.5712,3.30814 4.11906,6.13262 8.0641,8.78551 0.82222,0.53309 1.61253,1.03063 2.38538,1.48672 2.76365,1.60026 6.08756,3.1577 10.07277,4.74494 1.76871,0.70447 3.36354,1.38363 4.80179,2.04639 2.11926,0.96377 3.75711,1.82613 5.10511,2.69078 0.58555,0.36285 1.13427,0.72435 1.63092,1.08625 0.28569,0.2082 0.55681,0.41654 0.81441,0.62529 0.25762,0.20876 0.50178,0.41794 0.73226,0.62786 0.1152,0.10498 0.22672,0.21037 0.33536,0.31575 0.97761,0.94851 1.69018,1.91558 2.18128,2.93005 0.0825,0.17039 0.15631,0.36012 0.22529,0.55914 0.37904,0.93311 0.51006,1.92707 0.51006,3.24115 v 0.01 c 0.0262,1.24838 -0.10866,2.52772 -0.41962,3.56568 -0.13976,0.46641 -0.40659,0.99201 -0.76171,1.53583 -0.009,0.014 -0.0198,0.0284 -0.0289,0.0424 -0.32203,0.51893 -0.71663,1.03082 -1.19994,1.56837 -0.5951,0.66194 -1.21656,1.22806 -1.90376,1.72135 -0.15465,0.11835 -0.30932,0.23109 -0.46405,0.33745 -0.0415,0.0285 -0.0832,0.0598 -0.12454,0.0873 -0.13912,0.0926 -0.27744,0.17987 -0.41497,0.26096 -0.0246,0.0145 -0.0488,0.0259 -0.0734,0.0403 -0.11274,0.0648 -0.22564,0.1284 -0.33642,0.18449 -1.5753,0.79825 -3.69403,1.4197 -5.8932,1.78438 -1.26711,0.24328 -2.35082,0.37433 -3.48763,0.38915 -0.62457,0.0426 -1.2419,0.0662 -1.83967,0.0692 l -3.36672,0.008 -2.63033,5.51955 c -1.44682,3.03591 -2.67742,5.63756 -2.73473,5.78104 -0.17894,0.44789 2.10658,1.06064 4.80592,1.28882 0.32893,0.0278 0.65309,0.066 0.96274,0.11006 0.97004,0 1.57025,0.0413 1.92958,0.46096 0.0632,0.0319 0.11152,0.064 0.1421,0.0946 l 0.003,0.003 c 0.0898,0.0401 0.15658,0.0785 0.17827,0.11369 0.0566,0.0916 0.0968,0.54485 0.12042,1.22526 0.009,0.14359 0.0161,0.30604 0.0212,0.47696 0.0291,0.63254 0.0206,1.47455 -0.005,2.48978 -0.01,0.43469 -0.023,0.90575 -0.0398,1.4242 -0.0233,0.7266 -0.0385,1.44571 -0.0475,2.12389 -0.009,0.67834 -0.0106,1.31588 -0.005,1.87794 0.003,0.28101 0.007,0.54313 0.0135,0.78237 0.006,0.23902 0.0132,0.45508 0.0233,0.64389 2e-5,0 -6e-5,0.003 0,0.003 0.009,0.18741 0.0204,0.34812 0.0331,0.4775 0.0127,0.12956 0.027,0.22846 0.0429,0.29146 l 0.22997,0.9157 h 5.42343 c 1.15507,0 2.07362,-0.005 2.80448,-0.0201 1.46169,-0.0304 2.17265,-0.10094 2.52492,-0.25014 0.13166,-0.0558 0.21392,-0.12266 0.26562,-0.20256 0.0172,-0.0266 0.0315,-0.0546 0.0429,-0.0842 0.11785,-0.30694 0.21395,-3.48649 0.21395,-7.06625 0,-4.90898 0.10874,-6.53778 0.44132,-6.62647 5.03359,-1.34225 6.6112,-1.89253 9.43663,-3.29128 2.754,-1.36335 3.89342,-2.19816 6.39186,-4.68342 2.46965,-2.4566 3.31012,-3.58505 4.47672,-6.00998 1.89066,-3.92986 2.70359,-7.95994 2.41485,-11.96927 -0.4758,-6.60644 -2.17283,-10.43388 -6.57532,-14.82858 -3.79669,-3.79 -6.71401,-5.5059 -15.87087,-9.33585 -3.90356,-1.63269 -8.15962,-3.56261 -9.45782,-4.28863 -2.95188,-1.65079 -5.62713,-4.11303 -6.47039,-5.95468 -0.74967,-1.63717 -0.84537,-4.23508 -0.23254,-6.30918 0.60002,-2.03086 3.48184,-4.85764 5.74744,-5.6379 5.82554,-2.00631 14.72909,-1.18613 22.44516,2.06809 1.60626,0.67744 3.05562,1.09709 3.22045,0.93226 0.39953,-0.39955 3.41974,-10.59741 3.42874,-11.57655 0.006,-0.63651 -0.47919,-0.95573 -2.83033,-1.86243 -3.59068,-1.38473 -7.70014,-2.35945 -11.97496,-2.84015 -1.84065,-0.20695 -3.46379,-0.49342 -3.60701,-0.63664 -0.14325,-0.14324 -0.30422,-2.95505 -0.35761,-6.24871 l -0.0972,-5.9888 h -5.4683 z"
       id="rect891"
       inkscape:connector-curvature="0"
       sodipodi:nodetypes="ccccccscccccccccccsccccccccccccccccccccsccccccccccccccsccccsccccccccccccccscscccc" />
    <path
       style="display:none;opacity:1;fill:#b71c1c;fill-opacity:0.95686275;stroke:none;stroke-width:1.01017916;stroke-linecap:butt;stroke-linejoin:miter;stroke-miterlimit:4;stroke-dasharray:none;stroke-opacity:1"
       d="m -851.72565,588.53238 c -2.99584,0.28099 -5.99501,0.78147 -8.82802,1.82398 -1.84585,0.67187 -3.63181,1.50643 -5.34188,2.4721 -3.87228,2.22305 -7.29778,5.16421 -10.30105,8.45479 -3.19672,3.52566 -5.94179,7.48971 -7.90959,11.83153 -0.89314,1.98256 -1.5971,4.05448 -2.03374,6.18615 -0.1291,0.47828 -0.26492,0.96771 -0.53665,1.38716 -0.19184,0.18958 -0.48778,0.17634 -0.73576,0.22676 -1.18491,0.14322 -2.38071,0.14728 -3.57218,0.18115 -5.01616,0.0977 -10.03425,-5.7e-4 -15.04997,0.13098 -1.14641,0.0255 -2.29317,0.0589 -3.43709,0.14176 -0.18086,0.0555 -0.62396,-0.0544 -0.56087,0.25073 0.11194,0.51425 0.32608,0.99899 0.50841,1.4908 0.73116,1.85388 1.53967,3.67766 2.42239,5.46433 0.18082,0.3529 0.36391,0.70811 0.59416,1.03136 0.18542,0.145 0.44239,0.10153 0.66205,0.14424 1.60541,0.14195 3.21777,0.17516 4.82789,0.22685 3.48592,0.0886 6.97319,0.0949 10.45982,0.13852 0.90595,0.009 1.8119,0.0187 2.71785,0.028 0.0668,2.52836 0.13367,5.05672 0.2005,7.58508 -3.6163,0.005 -7.2327,-0.0113 -10.84894,0.0124 -1.20106,0.0152 -2.40581,0.01 -3.60165,0.13589 -0.31519,0.0411 -0.66567,0.0737 -0.91414,0.29156 -0.15135,0.20534 -0.0213,0.46343 0.0198,0.68331 0.25798,0.9792 0.62543,1.92501 0.98132,2.87168 0.55379,1.43063 1.13398,2.85526 1.84429,4.21646 0.0999,0.16822 0.18018,0.37304 0.37765,0.44751 0.35311,0.15527 0.74506,0.18497 1.12329,0.2367 1.20906,0.13582 2.42667,0.16496 3.64147,0.21286 2.96292,0.0948 5.92672,0.15847 8.89002,0.23984 0.73998,1.85462 1.43384,3.72887 2.24781,5.553 0.69239,1.54305 1.50512,3.03138 2.43011,4.44732 1.41418,2.19693 2.95052,4.31714 4.62448,6.32375 2.43722,2.90515 5.23703,5.55349 8.50471,7.50557 3.02189,1.82244 6.42225,2.97086 9.89903,3.5303 0.51681,0.0851 1.0355,0.15878 1.55542,0.22213 0.21126,-0.36276 0.41404,-0.73072 0.5781,-1.11758 1.69882,-3.61494 3.4328,-7.21349 5.14108,-10.82376 0.13693,-0.35366 0.24882,-0.63214 0.38574,-0.9858 -2.80784,-0.73077 -5.49656,-1.31936 -7.92711,-2.74975 -1.68426,-0.97548 -3.12916,-2.30572 -4.46786,-3.70608 -1.49505,-1.57606 -2.85703,-3.28945 -3.95291,-5.16866 -0.35337,-0.60717 -0.73566,-1.20196 -1.01458,-1.84848 -0.0937,-0.25891 -0.19635,-0.59005 -0.011,-0.83285 0.24834,-0.29478 0.66068,-0.33433 1.01548,-0.40048 0.74765,-0.10324 1.50463,-0.10278 2.25792,-0.11692 2.25466,-0.0233 4.50954,0.006 6.76418,-0.0245 8.66877,-0.0669 17.33572,-0.26195 26.00287,-0.4329 -0.68708,-1.06115 -1.54538,-2.02354 -2.58171,-2.75438 -1.07708,-0.77809 -2.25172,-1.40517 -3.37586,-2.11002 -1.63091,-0.94282 -3.3585,-1.70071 -5.07019,-2.48161 -1.09878,-0.4781 -2.24025,-0.8483 -3.34687,-1.30693 -5.96372,0.0596 -11.92832,0.10767 -17.89206,0.0257 -2.11399,-0.0341 -4.22785,-0.0756 -6.34179,-0.11236 -0.11819,-0.66223 -0.27281,-1.32146 -0.29617,-1.99634 -0.11508,-1.85693 0.0278,-3.71573 0.091,-5.57167 3.35379,-0.0628 6.70759,-0.12549 10.06139,-0.18809 -2.32111,-1.70478 -4.42785,-3.75909 -5.93566,-6.22851 -0.83568,-1.37125 -1.49372,-2.84736 -2.00601,-4.36788 -0.53704,-1.64492 -0.7788,-3.37296 -0.83591,-5.09865 -0.10127,-2.41886 0.0598,-4.86134 0.64348,-7.2163 0.8343,-3.43913 2.54928,-6.66198 4.95117,-9.26256 2.5217,-2.75179 5.72374,-4.82011 9.1494,-6.2661 1.48868,-0.64041 3.03494,-1.1328 4.58836,-1.58875 1.34363,-0.4107 2.68726,-0.82141 4.03089,-1.23213 -1.52211,-0.32399 -3.09039,-0.28094 -4.63575,-0.21193 -0.27691,0.0145 -0.55393,0.0314 -0.83045,0.0498 z"
       id="path904"
       inkscape:connector-curvature="0"
       sodipodi:nodetypes="cccccccccccccccccccccccccccccccccccccccccccccccccccccccccccccccccccc" />
    <path
       style="display:none;opacity:1;fill:#fb8c00;fill-opacity:0.95686275;stroke:none;stroke-width:1.01017916;stroke-linecap:butt;stroke-linejoin:miter;stroke-miterlimit:4;stroke-dasharray:none;stroke-opacity:1"
       d="m -844.60474,576.15471 c -0.0457,2.7379 -0.0822,5.47596 -0.13624,8.21371 -0.0227,0.93177 -0.0552,1.8653 -0.16469,2.79118 -0.018,0.66891 -0.0361,1.33783 -0.0541,2.00674 -1.35484,0.3925 -2.71407,0.77013 -4.06464,1.1771 -4.10267,1.27722 -8.03714,3.29294 -11.18473,6.25197 -2.59968,2.42687 -4.59152,5.5077 -5.68133,8.89655 -0.85744,2.61671 -1.17857,5.38711 -1.10545,8.13369 0.0312,1.89718 0.23548,3.80814 0.82041,5.62063 0.41415,1.28945 0.96107,2.5355 1.60278,3.72742 1.31613,2.41326 3.20467,4.47613 5.34086,6.18942 1.10229,0.89258 2.27544,1.69326 3.48299,2.43592 2.18161,1.37019 4.49323,2.52019 6.83628,3.58547 1.78678,0.81328 3.60835,1.54609 5.4299,2.27696 2.06462,0.84712 4.11037,1.74487 6.1027,2.7515 1.38432,0.69937 2.71624,1.49983 3.99668,2.37431 1.53122,1.06991 2.9761,2.33026 3.97743,3.92498 0.30413,0.48271 0.56246,0.99485 0.74486,1.53614 0.46052,1.1981 0.47146,2.4994 0.45754,3.76456 -0.0315,1.0615 -0.15133,2.1335 -0.49345,3.14343 -0.27537,0.72834 -0.71278,1.38116 -1.16347,2.01089 -0.78841,1.04861 -1.72904,1.9854 -2.80116,2.74354 -0.71928,0.55302 -1.5335,0.96717 -2.37535,1.29884 -1.60404,0.6403 -3.29254,1.04001 -4.99252,1.32566 -1.10134,0.20792 -2.21861,0.33843 -3.33988,0.35418 -1.95749,0.0908 -2.65778,-0.0607 -5.14786,-0.47794 -1.76518,3.71103 -3.54393,7.96688 -5.29044,11.68675 -0.18084,0.21146 -0.23312,0.87849 -0.0126,0.95763 1.7368,0.13051 3.53996,0.38988 5.17211,0.53835 0.29344,0.0333 0.58471,0.0856 0.88125,0.0706 0.48713,0.0188 1.02755,0.0122 1.43661,0.31807 0.13432,0.14837 0.3131,0.23442 0.46966,0.35159 0.0986,0.31512 0.0863,0.65376 0.11079,0.98102 0.0622,1.06923 0.0572,2.14075 0.0258,3.21098 -0.062,2.25916 -0.14557,4.52052 -0.0591,6.78022 0.0152,0.37447 0.0385,0.75187 0.1471,1.1126 0.0542,0.21571 0.10835,0.43142 0.16252,0.64713 2.48204,-0.003 4.96412,0.007 7.44612,-0.008 0.94398,-0.0185 1.89307,-0.01 2.83024,-0.1391 0.27582,-0.053 0.61379,-0.098 0.76571,-0.36635 0.0937,-0.27081 0.0779,-0.56682 0.10719,-0.84953 0.10871,-2.07063 0.1195,-4.145 0.12604,-6.21802 0.007,-1.737 -0.006,-3.47609 0.0992,-5.2107 0.042,-0.44384 0.0501,-0.90423 0.21477,-1.32408 0.20103,-0.27156 0.62981,-0.21234 0.92294,-0.347 2.4438,-0.66566 4.90443,-1.33269 7.21153,-2.39655 1.25981,-0.58452 2.51462,-1.18931 3.70039,-1.91501 1.6639,-1.01314 3.06104,-2.38968 4.43046,-3.75928 1.20176,-1.2082 2.38101,-2.46789 3.24344,-3.94841 0.71277,-1.22355 1.31074,-2.51282 1.8208,-3.83307 1.20408,-3.13642 1.76675,-6.53207 1.51785,-9.88825 -0.20423,-2.85178 -0.67337,-5.73214 -1.86398,-8.3528 -1.06951,-2.39179 -2.72007,-4.4739 -4.55768,-6.32151 -1.54179,-1.56542 -3.21552,-3.01251 -5.07458,-4.19065 -2.54595,-1.62272 -5.30947,-2.86272 -8.06791,-4.07318 -2.31029,-0.99996 -4.64303,-1.94769 -6.94205,-2.97383 -1.70647,-0.76204 -3.41673,-1.51959 -5.08125,-2.37061 -1.64162,-0.87953 -3.16947,-1.97454 -4.52765,-3.24904 -0.82329,-0.78966 -1.61016,-1.6456 -2.15219,-2.65755 -0.53434,-1.05336 -0.7124,-2.24846 -0.74001,-3.41867 -0.0144,-1.12295 0.11779,-2.25737 0.47198,-3.3261 0.37434,-0.98834 1.03016,-1.84139 1.73581,-2.61624 0.9421,-1.00554 2.02428,-1.90138 3.26133,-2.52014 0.7806,-0.37872 1.6307,-0.58631 2.46947,-0.79179 3.03791,-0.6816 6.19022,-0.69938 9.2754,-0.37626 4.04399,0.43763 8.01467,1.50394 11.75203,3.10554 0.80342,0.31443 1.61529,0.6289 2.46528,0.79211 0.21459,0.0641 0.46279,0.0213 0.5033,-0.23674 0.40044,-0.98061 0.70281,-1.99781 1.02719,-3.00519 0.72979,-2.35928 1.43397,-4.72794 2.03745,-7.12307 0.0925,-0.41527 0.21635,-0.82869 0.24283,-1.25491 0.0133,-0.35078 -0.25089,-0.62902 -0.53116,-0.80028 -0.6507,-0.40406 -1.37671,-0.66387 -2.0841,-0.94923 -4.03929,-1.57803 -8.31133,-2.50916 -12.61677,-2.97331 -0.97821,-0.12678 -1.96137,-0.24686 -2.92031,-0.48365 -0.25285,-0.009 -0.34609,-0.22518 -0.3415,-0.45075 -0.13558,-1.18019 -0.17056,-2.36914 -0.21773,-3.55537 -0.0671,-2.06917 -0.0828,-4.13952 -0.12097,-6.20934 l -0.0345,-2.12519 c -3.64521,6e-5 -7.29041,-4e-5 -10.93562,-3e-4 z"
       id="path908"
       inkscape:connector-curvature="0"
       sodipodi:nodetypes="ccccccccccccccccccccccccccccccccccccccccccccccccccccccccccccccccccccccccccccccccc" />
    <rect
       style="display:inline;opacity:0.95999995;fill:#920035;fill-opacity:1;stroke:none;stroke-width:0.26458335;stroke-opacity:1"
       width="211.66667"
       height="158.75"
       x="-1.8764654e-06"
       y="138.25002"
       id="rect817"
       inkscape:label="Background" />
    <path
       style="display:inline;opacity:0.30262625;fill:#1a1a1a;fill-opacity:1;stroke:none;stroke-width:1.01017916;stroke-linecap:butt;stroke-linejoin:miter;stroke-miterlimit:4;stroke-dasharray:none;stroke-opacity:1"
       d="m 107.97886,160.73959 v 5.3e-4 c -0.0457,2.73773 -0.0824,5.47587 -0.13643,8.21345 -0.0227,0.93177 -0.0548,1.86516 -0.16433,2.79105 -0.018,0.6689 -0.0364,1.3382 -0.0543,2.00711 -0.21428,0.0621 -0.42891,0.12299 -0.64337,0.18448 l -0.65629,-0.65629 c -0.95131,-0.20249 -1.92078,-0.26194 -2.8913,-0.26096 -0.58232,5.3e-4 -1.1651,0.0232 -1.74459,0.0491 -0.27691,0.0145 -0.55392,0.0312 -0.83044,0.0496 -2.995845,0.28099 -5.99483,0.78115 -8.827842,1.82366 -1.845831,0.67187 -3.631692,1.50653 -5.341766,2.4722 -3.872273,2.22305 -7.297918,5.1642 -10.30118,8.45478 -3.196719,3.52566 -5.941803,7.49002 -7.909594,11.83184 -0.893152,1.98256 -1.597345,4.05451 -2.033985,6.18619 -0.129119,0.47827 -0.26467,0.96754 -0.5364,1.38699 -0.19182,0.18958 -0.487902,0.17644 -0.735873,0.22686 -1.18491,0.14322 -2.380406,0.147 -3.571875,0.18087 -5.016161,0.0977 -10.034545,-2.6e-4 -15.050246,0.13126 -1.146419,0.0255 -2.29307,0.0587 -3.436999,0.14159 -0.18084,0.0555 -0.623789,-0.0545 -0.560689,0.25063 0.111951,0.51425 0.325649,0.99905 0.507979,1.49086 0.731171,1.85388 1.539862,3.6776 2.422591,5.46427 0.180819,0.3529 0.364009,0.70821 0.594278,1.03146 l 8.134906,8.13439 c -0.03858,2.5e-4 -0.07717,2.6e-4 -0.115755,5.3e-4 -1.201042,0.0152 -2.406007,0.01 -3.601847,0.13591 -0.315201,0.0411 -0.665687,0.0736 -0.914157,0.29145 -0.151339,0.20534 -0.02085,0.46381 0.02016,0.68368 0.25796,0.97921 0.625464,1.92498 0.981336,2.87166 0.5538,1.43062 1.133515,2.85507 1.843813,4.21628 0.06933,0.11675 0.129111,0.25107 0.225311,0.34727 L 181.06071,359.28254 c 0.0424,0.0424 0.0915,0.0774 0.15193,0.10025 0.35312,0.15528 0.74523,0.18498 1.12345,0.23668 1.20907,0.13581 2.42683,0.16501 3.64163,0.21291 0.47569,0.0152 0.95159,0.0265 1.42731,0.0403 l 19.29856,19.29856 c 1.80146,1.80146 3.78121,3.42216 5.97121,4.73046 2.4872,1.49996 5.23101,2.54282 8.06256,3.17707 l 14.78359,14.78307 c 2.48206,-0.003 4.96406,0.007 7.44606,-0.008 0.94398,-0.0185 1.89314,-0.0103 2.83032,-0.13953 0.27582,-0.053 0.61393,-0.0975 0.76585,-0.36587 0.0937,-0.27079 0.0777,-0.56686 0.10697,-0.84956 0.1087,-2.07063 0.11909,-4.1452 0.12609,-6.21822 0.007,-1.737 -0.006,-3.47593 0.0992,-5.21054 0.042,-0.44384 0.0498,-0.90461 0.21445,-1.32446 0.20103,-0.27155 0.62981,-0.21209 0.92294,-0.34675 2.4438,-0.66566 4.90488,-1.3329 7.21196,-2.39676 1.25982,-0.58452 2.51426,-1.18891 3.70004,-1.91461 1.66389,-1.01314 3.06129,-2.38986 4.43072,-3.75946 1.20179,-1.2082 2.3808,-2.46807 3.24323,-3.94859 0.71276,-1.22355 1.31099,-2.5126 1.82108,-3.83285 1.20409,-3.13641 1.76665,-6.5321 1.51773,-9.88828 -0.20424,-2.85178 -0.67334,-5.73232 -1.86397,-8.35298 -1.0695,-2.39179 -2.72026,-4.47397 -4.55787,-6.32158 -0.0713,-0.0724 -0.14306,-0.14462 -0.21497,-0.21652 L 233.91172,317.3582 c 0.75451,-0.69728 1.5885,-1.31057 2.50786,-1.77044 0.7806,-0.37872 1.63032,-0.5862 2.4691,-0.79168 3.03789,-0.6816 6.19023,-0.69932 9.2754,-0.3762 4.04401,0.43763 8.01488,1.50415 11.75225,3.10575 0.80341,0.31443 1.61496,0.62847 2.46497,0.79168 0.21457,0.0641 0.46283,0.0214 0.50334,-0.23668 0.40045,-0.9806 0.70294,-1.9976 1.02732,-3.00498 0.7298,-2.35928 1.43412,-4.72795 2.03761,-7.12308 0.0925,-0.41527 0.21638,-0.82848 0.24286,-1.2547 0.009,-0.23239 -0.10427,-0.43294 -0.26302,-0.5917 L 137.51866,177.69566 c -0.0809,-0.0809 -0.17361,-0.15096 -0.2682,-0.20877 -0.65072,-0.40405 -1.37672,-0.66394 -2.08411,-0.9493 -0.24301,-0.0949 -0.48709,-0.18721 -0.73174,-0.2775 l -15.51998,-15.51998 c -3.64522,6e-5 -7.29056,-2.4e-4 -10.93577,-5.2e-4 z"
       id="path938"
       inkscape:connector-curvature="0"
       inkscape:label="shadow"
       clip-path="url(#clipPath1439)" />
    <path
       inkscape:connector-curvature="0"
       id="path914"
       d="m 107.97875,160.73995 c -0.0457,2.73773 -0.0824,5.47587 -0.13642,8.21345 -0.0227,0.93177 -0.0548,1.86516 -0.16433,2.79105 -0.018,0.6689 -0.0363,1.3382 -0.0542,2.00711 -1.35485,0.3925 -2.71431,0.7697 -4.06487,1.17667 -4.102684,1.27722 -8.036723,3.2933 -11.184295,6.25233 -2.599675,2.42687 -4.591473,5.50777 -5.681287,8.89662 -0.857425,2.61671 -1.178975,5.38677 -1.105875,8.13335 0.0312,1.89718 0.23569,3.80836 0.820625,5.62084 0.414157,1.28946 0.960784,2.53551 1.602471,3.72743 1.316134,2.41326 3.205092,4.47599 5.34125,6.18928 1.102294,0.89258 2.275428,1.69337 3.482979,2.43603 2.181608,1.37019 4.493212,2.52003 6.836262,3.58531 1.78678,0.81328 3.60809,1.54599 5.42964,2.27686 2.06463,0.84713 4.11065,1.74515 6.10299,2.75177 1.38432,0.69937 2.71621,1.49954 3.99666,2.37402 1.5312,1.06991 2.97569,2.33062 3.97701,3.92534 0.30413,0.48271 0.56277,0.99454 0.74517,1.53583 0.46053,1.1981 0.47125,2.49946 0.45733,3.76462 -0.0315,1.0615 -0.15139,2.13355 -0.4935,3.14348 -0.27538,0.72834 -0.71255,1.381 -1.16324,2.01073 -0.78841,1.04861 -1.72926,1.98536 -2.80138,2.7435 -0.71927,0.55302 -1.53318,0.96748 -2.37503,1.29915 -1.60407,0.6403 -3.29251,1.03985 -4.99248,1.3255 -1.10133,0.20792 -2.21858,0.33875 -3.33984,0.3545 -1.95749,0.0908 -2.65792,-0.0608 -5.14802,-0.47801 -1.76517,3.71103 -3.54412,7.96676 -5.290631,11.68663 -0.18081,0.21146 -0.23291,0.87842 -0.0124,0.95756 1.736791,0.13051 3.540111,0.39 5.172281,0.53847 0.29345,0.0333 0.58454,0.0853 0.88108,0.0703 0.48713,0.0188 1.02754,0.0125 1.43661,0.31833 0.13431,0.14837 0.31316,0.23423 0.46974,0.3514 0.0986,0.31512 0.0861,0.65407 0.11057,0.98133 0.0622,1.06923 0.0573,2.14043 0.0259,3.21066 -0.062,2.25916 -0.14539,4.52076 -0.0589,6.78046 0.0154,0.37447 0.0382,0.75187 0.14676,1.1126 0.0542,0.21572 0.10862,0.43127 0.16278,0.64699 2.48205,-0.003 4.96406,0.007 7.44606,-0.008 0.94398,-0.0185 1.89315,-0.0103 2.83033,-0.13951 0.27582,-0.053 0.61391,-0.0975 0.76583,-0.36589 0.0937,-0.2708 0.0777,-0.56685 0.10697,-0.84955 0.10872,-2.07063 0.11957,-4.14521 0.1261,-6.21823 0.007,-1.737 -0.006,-3.47592 0.0992,-5.21053 0.042,-0.44384 0.0498,-0.90462 0.21445,-1.32447 0.20103,-0.27156 0.62981,-0.21209 0.92294,-0.34675 2.4438,-0.66566 4.90488,-1.33289 7.21196,-2.39675 1.25982,-0.58452 2.51426,-1.18891 3.70004,-1.91461 1.66389,-1.01314 3.06131,-2.38986 4.43074,-3.75946 1.20177,-1.2082 2.38078,-2.46808 3.24321,-3.9486 0.71276,-1.22355 1.31101,-2.51259 1.82108,-3.83284 1.20409,-3.13642 1.76665,-6.53211 1.51773,-9.88829 -0.20424,-2.85178 -0.67334,-5.73231 -1.86397,-8.35297 -1.0695,-2.39179 -2.72023,-4.47397 -4.55784,-6.32158 -1.54181,-1.56542 -3.21559,-3.0123 -5.07463,-4.19045 -2.54595,-1.62271 -5.30929,-2.86267 -8.06773,-4.07313 -2.31029,-0.99996 -4.6432,-1.94784 -6.94222,-2.97398 -1.70648,-0.76204 -3.41683,-1.51938 -5.08135,-2.3704 -1.6416,-0.87953 -3.16918,-1.97491 -4.52736,-3.24941 -0.82331,-0.78966 -1.61031,-1.64525 -2.15233,-2.65721 -0.53433,-1.05335 -0.71239,-2.2487 -0.73999,-3.41891 -0.0143,-1.12295 0.11761,-2.25716 0.4718,-3.32589 0.37434,-0.98834 1.03016,-1.84153 1.7358,-2.61638 0.94211,-1.00554 2.02478,-1.9015 3.26181,-2.52026 0.7806,-0.37872 1.63034,-0.5862 2.46912,-0.79168 3.03789,-0.6816 6.19022,-0.69933 9.27539,-0.37621 4.044,0.43763 8.01489,1.50416 11.75227,3.10576 0.8034,0.31443 1.61496,0.62847 2.46496,0.79168 0.21458,0.0641 0.46281,0.0214 0.50332,-0.23668 0.40044,-0.98061 0.70294,-1.9976 1.02732,-3.00498 0.7298,-2.35928 1.43412,-4.72795 2.03761,-7.12308 0.0925,-0.41527 0.2164,-0.82849 0.24289,-1.25471 0.0132,-0.35078 -0.25098,-0.6292 -0.53123,-0.80047 -0.65072,-0.40405 -1.37673,-0.66393 -2.08412,-0.94929 -4.03929,-1.57803 -8.31136,-2.50931 -12.61679,-2.97346 -0.97822,-0.12678 -1.96131,-0.2469 -2.92024,-0.48369 -0.25286,-0.009 -0.34618,-0.22505 -0.3416,-0.45062 -0.13557,-1.18019 -0.17039,-2.36911 -0.21754,-3.55534 -0.0671,-2.06917 -0.0833,-4.13962 -0.12144,-6.20944 l -0.0341,-2.12494 c -3.64522,6e-5 -7.29057,-2.5e-4 -10.93578,-5.3e-4 z m -4.54597,12.27883 c -0.58232,5.3e-4 -1.16509,0.0232 -1.74458,0.0491 -0.27691,0.0145 -0.55393,0.0312 -0.83045,0.0496 -2.995835,0.28099 -5.99484,0.78115 -8.827852,1.82366 -1.845831,0.67187 -3.631682,1.50653 -5.34175,2.4722 -3.872275,2.22305 -7.297915,5.1642 -10.301175,8.45478 -3.19672,3.52566 -5.9418,7.49002 -7.90959,11.83184 -0.89315,1.98256 -1.59734,4.05451 -2.03398,6.18618 -0.12912,0.47828 -0.26469,0.96755 -0.53642,1.387 -0.19182,0.18958 -0.48789,0.17644 -0.73586,0.22686 -1.18491,0.14322 -2.3804,0.147 -3.57187,0.18087 -5.01616,0.0977 -10.03454,-2.7e-4 -15.05024,0.13125 -1.14642,0.0255 -2.29309,0.0587 -3.43702,0.1416 -0.18084,0.0555 -0.62378,-0.0545 -0.56068,0.25063 0.11195,0.51425 0.32565,0.99905 0.50798,1.49086 0.73117,1.85388 1.53987,3.6776 2.4226,5.46427 0.18082,0.3529 0.36401,0.70821 0.59428,1.03146 0.18542,0.145 0.4423,0.10147 0.66196,0.14418 1.60541,0.14195 3.21749,0.17517 4.82762,0.22686 3.48591,0.0886 6.9732,0.0949 10.45982,0.13849 0.90596,0.009 1.81224,0.0186 2.71817,0.0279 0.0668,2.52837 0.1337,5.05671 0.20053,7.58507 -3.6163,0.005 -7.23273,-0.0113 -10.84898,0.0124 -1.20104,0.0152 -2.40598,0.01 -3.60182,0.13591 -0.3152,0.0411 -0.66569,0.0736 -0.91416,0.29146 -0.15134,0.20534 -0.0209,0.4638 0.0201,0.68367 0.25796,0.97921 0.62544,1.92499 0.98131,2.87167 0.5538,1.43062 1.13353,2.85507 1.84383,4.21628 0.0999,0.16822 0.18028,0.37304 0.37774,0.44751 0.35312,0.15527 0.74523,0.18495 1.12345,0.23668 1.20907,0.13582 2.42684,0.16501 3.64165,0.21291 2.96291,0.0948 5.92658,0.15841 8.88989,0.23978 0.73999,1.85462 1.43396,3.72902 2.24793,5.55315 0.69238,1.54305 1.50484,3.03133 2.42982,4.44727 1.41418,2.19693 2.95056,4.31704 4.62452,6.32365 2.43721,2.90515 5.23725,5.5534 8.5049,7.50548 3.021912,1.82244 6.422341,2.97109 9.899103,3.53053 0.516807,0.0851 1.035014,0.15886 1.554951,0.22221 0.211237,-0.36276 0.414177,-0.7309 0.578234,-1.11776 1.698801,-3.61494 3.433012,-7.21336 5.141259,-10.82363 0.13695,-0.35366 0.2486,-0.63232 0.38553,-0.98598 -2.807834,-0.73077 -5.496599,-1.31932 -7.927154,-2.74971 -1.684241,-0.97548 -3.129202,-2.30587 -4.467916,-3.70623 -1.495041,-1.57606 -2.856812,-3.28947 -3.952687,-5.16868 -0.35338,-0.60717 -0.73549,-1.20194 -1.01441,-1.84846 -0.0937,-0.25891 -0.19672,-0.58971 -0.0114,-0.83251 0.24834,-0.29478 0.66117,-0.33434 1.01597,-0.40049 0.74764,-0.10324 1.504442,-0.10265 2.257739,-0.11679 2.254625,-0.0233 4.509233,0.006 6.763871,-0.0248 8.668747,-0.0669 17.335887,-0.2621 26.003027,-0.43305 -0.68707,-1.06115 -1.54543,-2.02352 -2.58175,-2.75436 -1.07709,-0.77809 -2.25189,-1.4051 -3.37603,-2.10995 -1.63089,-0.94282 -3.35827,-1.7006 -5.06997,-2.4815 -1.09876,-0.4781 -2.24046,-0.84827 -3.34708,-1.3069 -5.96371,0.0596 -11.928157,0.10781 -17.891851,0.0259 -2.113986,-0.0341 -4.227796,-0.0759 -6.341736,-0.11265 -0.11819,-0.66223 -0.27273,-1.32138 -0.29609,-1.99626 -0.1151,-1.85693 0.0277,-3.71582 0.0909,-5.57176 3.35381,-0.0628 6.707593,-0.1255 10.061385,-0.1881 -2.321098,-1.70478 -4.427726,-3.75914 -5.935525,-6.22856 -0.83568,-1.37125 -1.49378,-2.84717 -2.00607,-4.36769 -0.53705,-1.64492 -0.77901,-3.37271 -0.83613,-5.0984 -0.10126,-2.41886 0.0602,-4.86165 0.64389,-7.21661 0.83431,-3.43913 2.54923,-6.66191 4.951103,-9.26249 2.521675,-2.75179 5.723617,-4.82029 9.149269,-6.26628 1.488661,-0.64041 3.034915,-1.13258 4.588335,-1.58853 1.34363,-0.4107 2.68713,-0.82125 4.03074,-1.23197 -0.95131,-0.20249 -1.92077,-0.26195 -2.89129,-0.26097 z"
       style="display:inline;opacity:1;fill:#f4f4f4;fill-opacity:1;stroke:none;stroke-width:1.01017916;stroke-linecap:butt;stroke-linejoin:miter;stroke-miterlimit:4;stroke-dasharray:none;stroke-opacity:1" />
    <path
       style="display:inline;opacity:1;fill:#fec225;fill-opacity:1;stroke:none;stroke-width:1.01017916;stroke-linecap:butt;stroke-linejoin:miter;stroke-miterlimit:4;stroke-dasharray:none;stroke-opacity:1"
       d="m 103.43278,173.01878 c -0.58232,5.3e-4 -1.16509,0.0232 -1.74458,0.0491 -0.27691,0.0145 -0.55393,0.0312 -0.83045,0.0496 -2.995835,0.28099 -5.99484,0.78115 -8.827852,1.82366 -1.845831,0.67187 -3.631682,1.50653 -5.34175,2.4722 -3.872275,2.22305 -7.297915,5.1642 -10.301175,8.45478 -3.19672,3.52566 -5.9418,7.49002 -7.90959,11.83184 -0.89315,1.98256 -1.59734,4.05451 -2.03398,6.18618 -0.12912,0.47828 -0.26469,0.96755 -0.53642,1.387 -0.19182,0.18958 -0.48789,0.17644 -0.73586,0.22686 -1.18491,0.14322 -2.3804,0.147 -3.57187,0.18087 -5.01616,0.0977 -10.03454,-2.7e-4 -15.05024,0.13125 -1.14642,0.0255 -2.29309,0.0587 -3.43702,0.1416 -0.18084,0.0555 -0.62378,-0.0545 -0.56068,0.25063 0.11195,0.51425 0.32565,0.99905 0.50798,1.49086 0.73117,1.85388 1.53987,3.6776 2.4226,5.46427 0.18082,0.3529 0.36401,0.70821 0.59428,1.03146 0.18542,0.145 0.4423,0.10147 0.66196,0.14418 1.60541,0.14195 3.21749,0.17517 4.82762,0.22686 3.48591,0.0886 6.9732,0.0949 10.45982,0.13849 0.90596,0.009 1.81224,0.0186 2.71817,0.0279 0.0668,2.52837 0.1337,5.05671 0.20053,7.58507 -3.6163,0.005 -7.23273,-0.0113 -10.84898,0.0124 -1.20104,0.0152 -2.40598,0.01 -3.60182,0.13591 -0.3152,0.0411 -0.66569,0.0736 -0.91416,0.29146 -0.15134,0.20534 -0.0209,0.4638 0.0201,0.68367 0.25796,0.97921 0.62544,1.92499 0.98131,2.87167 0.5538,1.43062 1.13353,2.85507 1.84383,4.21628 0.0999,0.16822 0.18028,0.37304 0.37774,0.44751 0.35312,0.15527 0.74523,0.18495 1.12345,0.23668 1.20907,0.13582 2.42684,0.16501 3.64165,0.21291 2.96291,0.0948 5.92658,0.15841 8.88989,0.23978 0.73999,1.85462 1.43396,3.72902 2.24793,5.55315 0.69238,1.54305 1.50484,3.03133 2.42982,4.44727 1.41418,2.19693 2.95056,4.31704 4.62452,6.32365 2.43721,2.90515 5.23725,5.5534 8.5049,7.50548 3.021912,1.82244 6.422341,2.97109 9.899103,3.53053 0.516807,0.0851 1.035014,0.15886 1.554951,0.22221 0.211237,-0.36276 0.414177,-0.7309 0.578234,-1.11776 1.698801,-3.61494 3.433012,-7.21336 5.141259,-10.82363 0.13695,-0.35366 0.2486,-0.63232 0.38553,-0.98598 -2.807834,-0.73077 -5.496599,-1.31932 -7.927154,-2.74971 -1.684241,-0.97548 -3.129202,-2.30587 -4.467916,-3.70623 -1.495041,-1.57606 -2.856812,-3.28947 -3.952687,-5.16868 -0.35338,-0.60717 -0.73549,-1.20194 -1.01441,-1.84846 -0.0937,-0.25891 -0.19672,-0.58971 -0.0114,-0.83251 0.24834,-0.29478 0.66117,-0.33434 1.01597,-0.40049 0.74764,-0.10324 1.504442,-0.10265 2.257739,-0.11679 2.254625,-0.0233 4.509233,0.006 6.763871,-0.0248 8.668747,-0.0669 17.335887,-0.2621 26.003027,-0.43305 -0.68707,-1.06115 -1.54543,-2.02352 -2.58175,-2.75436 -1.07709,-0.77809 -2.25189,-1.4051 -3.37603,-2.10995 -1.63089,-0.94282 -3.35827,-1.7006 -5.06997,-2.4815 -1.09876,-0.4781 -2.24046,-0.84827 -3.34708,-1.3069 -5.96371,0.0596 -11.928157,0.10781 -17.891851,0.0259 -2.113986,-0.0341 -4.227796,-0.0759 -6.341736,-0.11265 -0.11819,-0.66223 -0.27273,-1.32138 -0.29609,-1.99626 -0.1151,-1.85693 0.0277,-3.71582 0.0909,-5.57176 3.35381,-0.0628 6.707593,-0.1255 10.061385,-0.1881 -2.321098,-1.70478 -4.427726,-3.75914 -5.935525,-6.22856 -0.83568,-1.37125 -1.49378,-2.84717 -2.00607,-4.36769 -0.53705,-1.64492 -0.77901,-3.37271 -0.83613,-5.0984 -0.10126,-2.41886 0.0602,-4.86165 0.64389,-7.21661 0.83431,-3.43913 2.54923,-6.66191 4.951103,-9.26249 2.521675,-2.75179 5.723617,-4.82029 9.149269,-6.26628 1.488661,-0.64041 3.034915,-1.13258 4.588335,-1.58853 1.34363,-0.4107 2.68713,-0.82125 4.03074,-1.23197 -0.95131,-0.20249 -1.92077,-0.26195 -2.89129,-0.26097 z"
       id="path1436"
       inkscape:connector-curvature="0"
       sodipodi:nodetypes="ccccccccccccccccccccccccccccccccccccccccccccccccccccccccccccccccccccc" />
  </g>
</svg>
