<?xml version="1.0" encoding="UTF-8" standalone="no"?>
<!-- Created with Inkscape (http://www.inkscape.org/) -->

<svg
   xmlns:dc="http://purl.org/dc/elements/1.1/"
   xmlns:cc="http://creativecommons.org/ns#"
   xmlns:rdf="http://www.w3.org/1999/02/22-rdf-syntax-ns#"
   xmlns:svg="http://www.w3.org/2000/svg"
   xmlns="http://www.w3.org/2000/svg"
   xmlns:sodipodi="http://sodipodi.sourceforge.net/DTD/sodipodi-0.dtd"
   xmlns:inkscape="http://www.inkscape.org/namespaces/inkscape"
   sodipodi:docname="Allegro.svg"
   inkscape:version="0.92.4 5da689c313, 2019-01-14"
   id="svg8"
   version="1.1"
   viewBox="0 0 211.66667 158.75"
   height="600"
   width="800">
  <defs
     id="defs2">
    <clipPath
       clipPathUnits="userSpaceOnUse"
       id="clipPath2679">
      <rect
         style="display:inline;opacity:0.95999995;fill:#35bf5c;fill-opacity:1;stroke:none;stroke-width:1;stroke-opacity:1"
         width="800"
         height="600"
         x="0"
         y="1.9875739e-05"
         id="rect2681"
         inkscape:label="Shadow mask" />
    </clipPath>
  </defs>
  <sodipodi:namedview
     id="base"
     pagecolor="#ffffff"
     bordercolor="#666666"
     borderopacity="1.0"
     inkscape:pageopacity="0.0"
     inkscape:pageshadow="2"
     inkscape:zoom="0.35"
     inkscape:cx="227.47842"
     inkscape:cy="503.91459"
     inkscape:document-units="px"
     inkscape:current-layer="layer1"
     showgrid="false"
     units="px"
     inkscape:pagecheckerboard="true"
     inkscape:window-width="1366"
     inkscape:window-height="712"
     inkscape:window-x="0"
     inkscape:window-y="26"
     inkscape:window-maximized="1"
     inkscape:snap-nodes="false"
     inkscape:snap-object-midpoints="true"
     inkscape:snap-global="true"
     showguides="false"
     inkscape:guide-bbox="true">
    <inkscape:grid
       empspacing="2"
       spacingx="52.916667"
       spacingy="39.6875"
       units="px"
       type="xygrid"
       id="grid815" />
    <sodipodi:guide
       position="162.52976,127.75595"
       orientation="0,1"
       id="guide5335"
       inkscape:locked="false" />
    <sodipodi:guide
       position="176.13691,31.75"
       orientation="0,1"
       id="guide5337"
       inkscape:locked="false" />
  </sodipodi:namedview>
  <metadata
     id="metadata5">
    <rdf:RDF>
      <cc:Work
         rdf:about="">
        <dc:format>image/svg+xml</dc:format>
        <dc:type
           rdf:resource="http://purl.org/dc/dcmitype/StillImage" />
        <dc:title />
      </cc:Work>
    </rdf:RDF>
  </metadata>
  <g
     inkscape:label="Tile"
     inkscape:groupmode="layer"
     id="layer1"
     transform="translate(0,-138.25001)">
    <rect
       style="display:inline;opacity:0.95999995;fill:#ff6d00;fill-opacity:1;stroke:none;stroke-width:0.26458335;stroke-opacity:1"
       width="211.66667"
       height="158.75"
       x="0"
       y="138.25002"
       id="rect817"
       inkscape:label="Background" />
    <path
       style="opacity:0.18686871;fill:#000000;fill-opacity:1;stroke-width:4.43918371"
       d="m 248.03711,193.41016 c -1.61716,0.18038 -3.03881,1.59742 -2.98633,3.28711 v 17.87109 l -20.22851,-20.22852 c -0.51342,-0.51341 -1.188,-0.86039 -1.95118,-0.91406 -6.33709,-0.0378 -12.6759,-0.002 -19.01367,-0.0137 -1.8686,-0.20425 -3.70161,1.37468 -3.64258,3.28516 v 83.88867 l -28.82031,-28.82032 c -1.41973,-1.41974 -2.99038,-2.68312 -4.71875,-3.73632 -6.32121,-3.92644 -13.65866,-5.90695 -20.98047,-6.88672 -16.55406,-2.10864 -33.79698,1.43239 -48.185544,9.88867 -0.979816,0.65 -1.075941,1.87769 -0.9375,2.93555 0.321222,5.25112 0.641676,10.50079 0.96289,15.75195 0.07956,0.60707 0.367149,1.13474 0.775391,1.54297 l 14.066403,14.0664 c -3.0789,0.82587 -6.09782,1.86881 -9.01562,3.16407 -7.197265,3.20016 -13.766713,8.34911 -17.525392,15.38281 -2.895663,5.30925 -4.073945,11.41861 -4.013672,17.42969 -0.612469,9.12022 3.020186,18.35613 9.439453,24.77539 l 376.826171,376.8262 c 2.97241,2.97241 6.54236,5.34104 10.56445,6.81445 7.01908,3.21018 14.79304,4.22171 22.44141,3.87891 h 55.2168 c 1.93111,0.0601 3.50512,-1.80533 3.28515,-3.6875 v -15.55859 l 18.45118,18.45117 c 0.51341,0.51341 1.188,0.85832 1.95117,0.91211 6.33709,0.0378 12.67589,0.004 19.01367,0.0156 1.88213,0.21959 3.74748,-1.35408 3.6875,-3.28515 l -0.0449,-0.0449 v -17.82617 l 20.22851,20.22852 c 0.51341,0.51341 1.18801,0.85832 1.95117,0.91211 6.3371,0.0378 12.6759,0.004 19.01368,0.0156 1.88216,0.21959 3.74748,-1.35408 3.6875,-3.28515 v -44.59961 l 30.69922,30.69922 c 10.99721,10.99721 26.86554,17.1427 42.39453,16.83203 10.76194,0.26003 21.7784,-0.65976 31.86914,-4.6543 2.4122,-0.98891 4.82115,-2.04969 7.01562,-3.46289 0.41879,-0.30447 0.74836,-0.67003 1.01953,-1.06641 l 57.16407,57.16407 c 0.77257,0.77257 2.01012,1.12434 3.12304,1.01171 10.9976,0.88203 22.09311,1.61639 33.09766,0.43555 8.24587,-0.91756 16.58909,-3.18402 23.32617,-8.2168 9.26003,-6.64384 14.99601,-17.35237 16.66406,-28.51562 1.69391,-8.57605 1.27352,-17.29022 1.33399,-25.96484 v -5.13477 l 17.83008,17.83008 c 0.51341,0.51341 1.18801,0.85832 1.95117,0.91211 6.33709,0.0378 12.67589,0.004 19.01367,0.0156 1.88217,0.21959 3.74759,-1.35408 3.6875,-3.28515 v -62.69141 c -0.068,-3.27985 0.1317,-6.61442 0.85351,-9.82227 l 58.55274,58.55469 c 0.98763,0.98767 2.02324,1.93636 3.10542,2.84375 17.5549,15.52313 44.7271,18.54915 65.2676,7.26953 10.728,-5.73891 19.9368,-14.79146 24.5215,-26.20117 8.3622,-19.36671 6.41,-43.22528 -5.8965,-60.51367 -1.4912,-1.97484 -3.1151,-3.83387 -4.8535,-5.57227 L 702.44922,257.48828 c -14.72406,-14.72406 -37.66042,-20.75711 -57.66992,-14.51953 -10.61847,3.1015 -20.34796,9.39718 -27.46289,17.8457 l -18.23633,-18.23633 c -0.25372,-0.25368 -0.5615,-0.46001 -0.92774,-0.5957 -7.41358,-1.69413 -15.26304,-1.95108 -22.78906,-0.72265 -22.0374,3.54043 -40.97883,23.79288 -40.125,46.61718 v 2.09375 l -32.8457,-32.8457 c -2.25831,-2.25831 -4.74158,-4.30566 -7.44141,-6.09375 -19.01692,-13.693 -46.35425,-13.99268 -65.66601,-0.71875 -8.68661,5.73687 -15.84706,13.86324 -19.66797,23.61914 -1.38981,3.14816 -2.48072,6.43134 -3.29297,9.78906 l -30.19336,-30.19336 c -1.9558,-1.95579 -4.10181,-3.72234 -6.43555,-5.24609 -8.42647,-5.60939 -18.70343,-7.75816 -28.71289,-7.72656 h -0.002 c -7.25758,-0.03 -14.61498,1.08889 -21.42578,3.63672 l -49.85157,-49.85157 c -0.51341,-0.51341 -1.188,-0.86039 -1.95117,-0.91406 -6.33709,-0.0378 -12.6759,-0.002 -19.01367,-0.0137 -0.23527,-0.0275 -0.47015,-0.0277 -0.70117,-0.002 z"
       id="path2225"
       inkscape:connector-curvature="0"
       inkscape:label="shadow"
       transform="matrix(0.26458334,0,0,0.26458334,0,138.25001)"
       clip-path="url(#clipPath2679)" />
    <path
       inkscape:connector-curvature="0"
       id="path827"
       d="m 187.14041,207.85153 c -3.73618,-4.94805 -10.62319,-7.16124 -16.54243,-5.31603 -4.58968,1.34058 -8.55623,4.93293 -9.89409,9.58792 -1.80464,5.74504 -0.5048,12.7696 4.23984,16.74776 4.64473,4.10716 11.83414,4.90799 17.26882,1.92359 2.83846,-1.51842 5.2749,-3.91368 6.48794,-6.9325 2.21249,-5.12411 1.696,-11.43652 -1.56008,-16.01074 z m -4.81559,12.91988 c -0.6692,2.01466 -1.96806,3.87881 -3.82133,4.9639 -1.94497,1.14591 -4.46583,1.34543 -6.51793,0.36147 -1.79943,-0.85249 -3.13679,-2.47325 -3.94162,-4.2656 -1.19868,-2.64904 -1.33891,-5.77086 -0.27625,-8.49031 0.73179,-1.95692 2.08281,-3.74039 3.95022,-4.73062 1.9315,-1.03041 4.36822,-1.15347 6.34027,-0.16099 1.8,0.89224 3.12505,2.54536 3.91631,4.36342 1.09183,2.49181 1.24303,5.37926 0.35033,7.95873 z M 71.624984,231.81203 c 0.01587,0.51093 -0.477723,0.9273 -0.97571,0.86916 -1.676868,-0.003 -3.354024,0.006 -5.030713,-0.004 -0.48684,-0.0343 -0.837565,-0.5177 -0.782384,-0.98913 0,-13.79849 0,-27.59698 0,-41.39546 -0.01587,-0.51093 0.477723,-0.92731 0.97571,-0.86916 1.676868,0.003 3.354024,-0.006 5.030713,0.004 0.486839,0.0343 0.837565,0.51769 0.782384,0.98912 0,13.79849 0,27.59698 0,41.39547 z m -11.862794,0 c 0.01587,0.51093 -0.477723,0.9273 -0.975711,0.86916 -1.676868,-0.003 -3.354024,0.006 -5.030712,-0.004 -0.48684,-0.0343 -0.837565,-0.5177 -0.782385,-0.98913 0,-13.79849 0,-27.59698 0,-41.39546 -0.01562,-0.50548 0.469564,-0.9232 0.963965,-0.86916 1.676868,0.003 3.354024,-0.006 5.030713,0.004 0.48684,0.0343 0.837565,0.51769 0.782384,0.98912 0,13.79849 0,27.59698 0,41.39547 z m 99.03671,-28.18882 c 0.004,1.23538 -0.008,2.47159 0.006,3.70642 -0.0188,0.60089 -0.69535,1.0176 -1.24744,0.80194 -1.79335,-0.3571 -3.71917,-0.43667 -5.44936,0.24175 -1.29404,0.49673 -2.37707,1.50338 -2.96432,2.75924 -0.61503,1.26789 -0.76848,2.69949 -0.73962,4.0927 0,5.52893 0,11.05785 0,16.58677 0.0159,0.51093 -0.47772,0.9273 -0.97571,0.86916 -1.67687,-0.003 -3.35402,0.006 -5.03071,-0.004 -0.48684,-0.0343 -0.83756,-0.5177 -0.78238,-0.98913 0,-5.75684 0,-11.51369 0,-17.27053 -0.22591,-6.03893 4.78521,-11.39758 10.61594,-12.33432 1.99126,-0.32502 4.0685,-0.25682 6.03001,0.19142 0.38248,0.14166 0.51804,0.56989 0.52487,0.94278 0.0106,0.0754 0.0139,0.49992 0.0126,0.40615 z m -21.62317,13.61285 c 0.10407,-4.85274 -2.10874,-9.84482 -6.21964,-12.56748 -5.03156,-3.62294 -12.26502,-3.70203 -17.37459,-0.18997 -2.29833,1.51788 -4.1928,3.66803 -5.20375,6.24928 -2.83579,6.42359 -1.10044,14.91331 4.78752,19.03213 5.05955,3.78249 12.50672,3.66724 17.621,0.25525 -0.004,1.34116 0.009,2.68255 -0.007,4.02355 -0.0419,1.33973 -0.4937,2.70664 -1.44946,3.67387 -1.07787,1.11045 -2.59635,1.65459 -4.09089,1.91687 -2.58448,0.45215 -5.23742,0.13198 -7.82305,-0.16035 -0.3583,-0.036 -0.80966,0.0808 -0.91551,0.47325 -0.0951,0.37271 -0.0404,0.7617 -0.055,1.14257 0,1.23912 0,2.47823 0,3.71735 0.006,0.53108 0.55836,0.79531 1.02781,0.74775 2.90978,0.23337 5.84551,0.42797 8.75713,0.11554 2.18172,-0.24277 4.38921,-0.84243 6.17173,-2.17402 2.45005,-1.75785 3.9677,-4.59126 4.40904,-7.54487 0.44817,-2.26908 0.3371,-4.5745 0.35308,-6.86966 0,-3.94702 0,-7.89404 0,-11.84106 z m -15.04578,9.46675 c -1.66149,0.0145 -3.30723,-0.6079 -4.5646,-1.68964 -1.87252,-1.59256 -2.95128,-3.97908 -3.28266,-6.38218 -0.35161,-2.79169 0.38142,-5.76161 2.12545,-7.99252 1.08763,-1.39652 2.65289,-2.45467 4.40915,-2.77214 1.22578,-0.22155 2.49683,-0.12771 3.70407,0.15657 1.63278,0.38982 3.11564,1.37252 4.08803,2.74365 1.20117,1.67405 1.74363,3.73551 1.88341,5.76952 0.0918,1.5436 -0.13285,3.10196 -0.60129,4.57322 -0.5616,1.74897 -1.61838,3.39724 -3.19379,4.39092 -1.34972,0.86961 -2.97863,1.20755 -4.56777,1.2026 z M 48.345718,214.19402 c -0.0048,-2.30399 -0.278707,-4.66319 -1.251612,-6.77573 -0.658594,-1.41621 -1.646615,-2.72249 -2.994547,-3.54387 -1.672486,-1.03887 -3.613747,-1.56294 -5.550975,-1.82217 -4.379929,-0.55791 -8.942089,0.37928 -12.749063,2.61667 -0.259243,0.17198 -0.284704,0.49644 -0.248075,0.77633 0.08499,1.38936 0.169975,2.77872 0.254963,4.16809 0.07165,0.54684 0.780121,0.8446 1.220918,0.51314 1.003304,-0.65097 2.095563,-1.16231 3.21418,-1.58329 2.131193,-0.7792 4.426256,-1.21166 6.698161,-1.00311 0.873497,0.0888 1.749362,0.2796 2.538318,0.67556 1.537266,0.85972 2.463592,2.63262 2.349068,4.38214 0,0.16797 0,0.33595 0,0.50392 -2.551873,0.002 -5.103817,-0.005 -7.655644,0.004 -2.336582,0.0723 -4.681241,0.52321 -6.823872,1.47436 -1.904276,0.84671 -3.642284,2.20901 -4.636768,4.07001 -0.766144,1.40474 -1.078159,3.02128 -1.062212,4.61171 -0.237085,3.53042 1.93048,7.1264 5.292853,8.35813 1.857137,0.84936 3.914043,1.11711 5.937669,1.0264 4.869742,0 9.739485,0 14.609228,0 0.510931,0.0159 0.927303,-0.47772 0.869155,-0.97571 0,-5.83715 0,-11.67431 0,-17.51146 -0.0039,0.0118 -0.0079,0.0235 -0.01175,0.0352 z m -6.518664,13.02558 c -2.92459,0 -5.84918,0 -8.77377,0 -2.192536,-0.0174 -4.711536,-1.63821 -4.579888,-4.05714 0.02991,-1.47578 0.868416,-2.88959 2.126842,-3.65389 1.355856,-0.84657 3.000805,-1.04885 4.569465,-1.0275 2.219118,0 4.438234,0 6.657351,0 0,2.91284 0,5.82569 0,8.73853 z m 48.390805,-25.32295 c -2.850786,-0.0118 -5.761346,0.64294 -8.167397,2.21692 -2.469965,1.58896 -4.287978,4.05947 -5.337534,6.78089 -1.741371,4.48831 -1.628583,9.73692 0.656019,14.01551 2.553552,4.89866 8.153336,7.78665 13.595599,7.67773 2.847428,0.0688 5.76183,-0.17443 8.431668,-1.23132 0.638226,-0.26165 1.275756,-0.54257 1.856376,-0.91648 0.48781,-0.35464 0.57166,-0.98544 0.4757,-1.53583 -0.002,-1.29877 0.004,-2.5977 -0.003,-3.89637 -0.004,-0.34583 -0.18898,-0.79407 -0.5919,-0.79702 -0.74248,0.005 -1.158727,1.04936 -1.909142,0.97474 -3.293872,1.67115 -7.226676,2.12447 -10.801296,1.1995 -2.908009,-0.86862 -5.334726,-3.81965 -5.416022,-6.74106 6.632013,0 13.264028,0 19.89604,0 0.52892,0.0172 0.88933,-0.51117 0.83375,-1.00489 0.14096,-2.91421 -0.22495,-5.8777 -1.25739,-8.6156 -0.91282,-2.42216 -2.47658,-4.65406 -4.663853,-6.0822 -2.229504,-1.48415 -4.949112,-2.05288 -7.597448,-2.04452 z M 83.041455,214.241 c 0.06801,-3.6655 3.535929,-6.78733 7.188149,-6.47168 3.511287,-0.33788 6.791516,2.99629 6.371707,6.47168 -4.519952,0 -9.039904,0 -13.559856,0 z"
       style="opacity:1;fill:#f4f4f4;fill-opacity:1;stroke-width:1.17453408"
       inkscape:label="logo" />
  </g>
</svg>
