<?xml version="1.0" encoding="UTF-8" standalone="no"?>
<!-- Created with Inkscape (http://www.inkscape.org/) -->

<svg
   xmlns:dc="http://purl.org/dc/elements/1.1/"
   xmlns:cc="http://creativecommons.org/ns#"
   xmlns:rdf="http://www.w3.org/1999/02/22-rdf-syntax-ns#"
   xmlns:svg="http://www.w3.org/2000/svg"
   xmlns="http://www.w3.org/2000/svg"
   xmlns:sodipodi="http://sodipodi.sourceforge.net/DTD/sodipodi-0.dtd"
   xmlns:inkscape="http://www.inkscape.org/namespaces/inkscape"
   sodipodi:docname="BnpParibas.svg"
   inkscape:version="0.92.4 5da689c313, 2019-01-14"
   id="svg8"
   version="1.1"
   viewBox="0 0 211.66667 158.75"
   height="600"
   width="800">
  <defs
     id="defs2">
    <clipPath
       clipPathUnits="userSpaceOnUse"
       id="clipPath5085">
      <rect
         inkscape:label="Shadow mask"
         id="rect5087"
         y="1.9875739e-05"
         x="0"
         height="600"
         width="800"
         style="display:inline;opacity:0.95999995;fill:#35bf5c;fill-opacity:1;stroke:none;stroke-width:1;stroke-opacity:1" />
    </clipPath>
  </defs>
  <sodipodi:namedview
     id="base"
     pagecolor="#ffffff"
     bordercolor="#666666"
     borderopacity="1.0"
     inkscape:pageopacity="0.0"
     inkscape:pageshadow="2"
     inkscape:zoom="0.49497475"
     inkscape:cx="407.37902"
     inkscape:cy="129.05961"
     inkscape:document-units="px"
     inkscape:current-layer="layer1"
     showgrid="true"
     units="px"
     inkscape:pagecheckerboard="true"
     inkscape:window-width="1366"
     inkscape:window-height="712"
     inkscape:window-x="0"
     inkscape:window-y="26"
     inkscape:window-maximized="1"
     inkscape:snap-nodes="false"
     inkscape:snap-object-midpoints="true"
     inkscape:snap-global="true"
     showguides="true"
     inkscape:guide-bbox="true">
    <inkscape:grid
       id="grid815"
       type="xygrid"
       units="px"
       spacingy="39.6875"
       spacingx="52.916667"
       empspacing="2" />
    <sodipodi:guide
       inkscape:locked="false"
       id="guide5335"
       orientation="0,1"
       position="162.52976,127.75595" />
    <sodipodi:guide
       inkscape:locked="false"
       id="guide5337"
       orientation="0,1"
       position="176.13691,31.75" />
  </sodipodi:namedview>
  <metadata
     id="metadata5">
    <rdf:RDF>
      <cc:Work
         rdf:about="">
        <dc:format>image/svg+xml</dc:format>
        <dc:type
           rdf:resource="http://purl.org/dc/dcmitype/StillImage" />
        <dc:title />
      </cc:Work>
    </rdf:RDF>
  </metadata>
  <g
     inkscape:label="Tile"
     inkscape:groupmode="layer"
     id="layer1"
     transform="translate(0,-138.25001)">
    <rect
       style="display:inline;opacity:0.95999995;fill:#0fb777;fill-opacity:1;stroke:none;stroke-width:0.26458335;stroke-opacity:1"
       width="211.66667"
       height="158.75"
       x="0"
       y="138.25002"
       id="rect817"
       inkscape:label="Background" />
    <path
       style="clip-rule:evenodd;display:inline;opacity:0.12999998;fill:#000000;fill-opacity:1;fill-rule:evenodd;stroke-width:6.94205904"
       d="m 446.78906,53.363281 64.50977,64.509769 c -22.01918,5.27442 -43.7315,11.81174 -65.08985,19.31836 -16.29891,5.82916 -32.49423,12.12376 -47.84765,20.16406 l 485.33203,485.33008 c 12.49094,-2.75158 25.11307,-4.86073 37.77148,-6.67774 l 52.62696,52.62696 c 3.92866,-2.36814 7.8775,-4.70292 11.85156,-6.99415 6.97633,-4.05511 14.06744,-7.90221 21.22464,-11.625 l 82.0488,82.04883 c 0.027,0.0265 0.072,-0.0335 0.1484,-0.23047 3.6712,-7.74644 5.9837,-16.04698 8.2305,-24.29296 5.281,-20.29289 9.0553,-40.95598 11.957,-61.71485 1.8249,-13.77165 3.4206,-27.62314 3.4395,-41.5332 -0.099,-4.48025 -0.1249,-9.07376 -1.4942,-13.38477 0.3523,-0.84208 1.8475,-1.30935 2.6329,-2.01953 6.6574,-4.57931 13.3098,-9.40548 18.5136,-15.65625 3.8662,-4.55097 6.1619,-10.11735 9.1133,-15.24609 L 656.42578,92.654297 c -5.37864,0.471042 -10.76053,0.89426 -16.14258,1.324219 -11.77031,0.997228 -23.70229,1.745758 -35.07617,5.173828 -5.48258,-3.377915 -11.20255,-6.356659 -17.01758,-9.117188 C 568.18441,80.643106 547.16109,73.580607 525.87891,67.712891 499.99304,60.700884 473.54498,55.506538 446.78906,53.363281 Z M 351.39258,177.29883 c -0.9101,0.14177 -1.8114,0.33869 -2.70508,0.56055 -7.36724,1.93553 -14.39913,4.9522 -21.31445,8.10546 -12.69027,5.94497 -24.98309,12.87044 -36.16993,21.3418 -0.95487,1.21591 -2.26458,1.1809 -3.65429,0.9375 -11.78434,-0.81592 -23.61487,-0.85851 -35.41602,-0.42969 -14.21957,0.7606 -28.36186,2.75361 -42.30469,5.6211 -6.75158,1.4657 -13.53511,2.99847 -19.97851,5.53711 l 42.43164,42.43164 c -17.57555,22.44405 -32.38901,46.97977 -45.13867,72.45117 l 171.08398,171.08398 c -6.54912,0.99108 -13.14562,1.66143 -19.76562,1.95703 -0.31626,0.0153 -0.63291,0.0212 -0.94922,0.0352 l -81.94727,-81.94726 c -1.87066,0.26582 -3.74099,0.54113 -5.61133,0.81054 l -68.71093,-68.71094 c -2.42426,21.9374 -4.52464,44.10615 -2.42188,66.16211 0.49144,5.22558 1.20697,10.43011 2.13672,15.59571 -11.71813,3.17416 -23.30313,6.92623 -34.42969,11.80859 -0.98723,0.4283 -1.97141,0.86388 -2.95312,1.30469 L 628.90625,937.2852 c 5.60474,3.49193 11.25024,6.92687 16.95703,10.2539 l 68.80078,68.8007 c 0.64762,0.6477 1.30047,1.2913 1.95508,1.9317 -2.66774,-9.2058 -4.24615,-18.75992 -4.20117,-28.35935 -0.003,-4.1492 0.24419,-8.29519 0.64648,-12.42383 14.55629,4.28697 29.47135,7.43915 44.58594,8.90039 3.96462,0.39697 7.93778,0.68638 11.91602,0.90625 l 44.62304,44.62304 c 0.0265,0.026 0.18694,0 0.55469,-0.1231 17.03633,-4.2018 33.82433,-9.5693 49.88086,-16.6777 5.53228,-2.4713 10.96728,-5.174 16.20117,-8.2305 9.04184,0.2143 18.13656,-0.1071 27.06641,-1.625 -1.73851,-6.10297 -3.35591,-12.24604 -4.49805,-18.49213 13.89543,-10.7015 26.97081,-22.4368 39.38867,-34.81445 2.79784,-2.77486 5.57196,-5.57434 8.33203,-8.38672 L 788.9668,781.41992 c 3.28237,-13.8967 7.08611,-27.6935 12.29687,-40.99804 1.00018,-2.25718 1.75519,-4.78202 3.06445,-6.8086 3.54086,-1.41044 7.34586,-1.98466 11.08204,-2.63281 11.56864,-1.78587 23.2826,-2.512 34.98046,-2.63672 25.33471,-0.1406 50.55381,3.15851 75.46876,7.49805 L 440.52734,250.50977 c -8.10757,-4.98108 -16.58545,-9.33685 -25.17968,-13.41016 -2.51194,-1.17603 -5.04243,-2.31382 -7.58399,-3.42969 z"
       id="path4746"
       inkscape:connector-curvature="0"
       inkscape:label="Shadow"
       transform="matrix(0.26458334,0,0,0.26458334,0,138.25001)"
       clip-path="url(#clipPath5085)" />
    <path
       inkscape:connector-curvature="0"
       id="path4525"
       d="m 154.65975,178.43054 c -3.69676,2.17922 -7.49855,4.17464 -11.35574,6.05366 -3.67398,1.79035 -7.31572,3.65175 -10.85017,5.70621 -1.05147,0.60622 -2.09632,1.2239 -3.13578,1.85047 3.51679,-3.83589 6.98069,-7.73745 10.02912,-11.9621 1.0717,-1.47192 2.1084,-2.96891 3.13673,-4.47133 -8.8526,0.48322 -17.69864,1.20482 -26.48306,2.41967 -3.55289,0.49984 -7.09627,1.08425 -10.60099,1.85629 4.06226,-2.12733 8.34725,-3.79245 12.65967,-5.33475 6.34472,-2.22992 12.80704,-4.13944 19.37035,-5.61214 2.19025,-0.48262 4.39363,-0.915 6.61711,-1.21425 -0.67081,-0.85035 -1.56728,-1.48477 -2.42281,-2.13448 -2.94532,-2.12351 -6.07692,-3.97191 -9.21379,-5.79449 -4.05431,-2.31918 -8.15572,-4.56295 -12.36166,-6.5966 -0.60633,-0.28798 -1.21511,-0.57165 -1.83568,-0.82785 7.07917,0.56707 14.07685,1.94142 20.92582,3.79668 5.63091,1.5525 11.19348,3.42125 16.48648,5.90623 1.53856,0.73039 3.05181,1.51857 4.50241,2.41231 3.00934,-0.90701 6.16605,-1.10507 9.28028,-1.36892 1.424,-0.11376 2.84818,-0.22565 4.27128,-0.35028 -0.7809,1.35698 -1.38805,2.82982 -2.41098,4.03393 -1.37685,1.65385 -3.13691,2.93073 -4.89835,4.14234 -0.20778,0.1879 -0.60368,0.31169 -0.69689,0.53449 0.36231,1.14062 0.3695,2.3557 0.39557,3.5411 -0.005,3.68037 -0.42703,7.34554 -0.90985,10.98929 -0.76775,5.49245 -1.76651,10.95962 -3.16378,16.32878 -0.59446,2.18175 -1.20634,4.37764 -2.17767,6.42722 -0.0906,0.23157 -0.0194,-0.24925 -0.0461,-0.30034 -0.1061,-6.04115 -0.39815,-12.09579 -1.31616,-18.07412 -0.5202,-3.22755 -1.19078,-6.4649 -2.47166,-9.48656 -0.37136,-0.85818 -0.79981,-1.69468 -1.32374,-2.47046 z M 77.135903,271.148 c -3.632958,-1.32635 -7.151086,-3.02209 -10.308644,-5.26907 -1.768265,-1.2473 -3.429022,-2.64207 -5.006205,-4.12225 1.044657,-2.89757 2.385277,-5.68768 4.00533,-8.30768 0.572491,-0.93411 1.173089,-1.85077 1.791464,-2.75508 -4.297253,0.61065 -8.59335,1.24647 -12.851761,2.09206 -2.027809,-3.51008 -3.522891,-7.30614 -4.63812,-11.19753 -0.845624,-2.92214 -1.521614,-5.88973 -2.174395,-8.85981 -0.641418,5.80427 -1.196874,11.66948 -0.640519,17.50512 0.130026,1.3826 0.319212,2.75959 0.565209,4.12632 -3.100423,0.83983 -6.165616,1.83281 -9.109517,3.1246 -0.261206,0.11332 -0.521655,0.22839 -0.7814,0.34502 3.636965,2.26595 7.333043,4.44988 11.196618,6.31044 0.665133,0.32292 1.333966,0.63821 2.005967,0.94658 1.569143,3.41782 3.469459,6.70001 5.841823,9.62636 1.28798,1.60244 2.693856,3.1071 4.162968,4.54419 -0.705841,-2.43571 -1.123201,-4.96382 -1.111317,-7.50367 -8.5e-4,-1.09781 0.06446,-2.19489 0.1709,-3.28726 3.851355,1.13426 7.797528,1.96836 11.796605,2.35498 1.690434,0.16926 3.387161,0.27132 5.084994,0.32668 z m 15.836486,-85.9876 c -1.219631,1.59151 -2.183267,3.36173 -3.065864,5.15692 -0.623238,1.30654 -1.220059,2.63425 -1.625203,4.02685 7.498537,1.0483 14.768308,3.43391 21.612928,6.63839 2.27389,1.07773 4.51692,2.23033 6.66205,3.54824 -6.59208,-1.14817 -13.26444,-2.02107 -19.967578,-1.98384 -3.095053,0.033 -6.194518,0.22536 -9.255384,0.69787 -0.988534,0.17149 -1.995098,0.3234 -2.931945,0.69658 -0.346405,0.5362 -0.546487,1.20394 -0.811119,1.80115 -1.590269,4.06041 -2.685834,8.29413 -3.644921,12.54179 -0.562927,2.54448 -1.070217,5.10197 -1.490661,7.67401 -1.454034,-3.54754 -2.659794,-7.19024 -3.855682,-10.83094 -0.778707,-2.4007 -1.537822,-4.80787 -2.266216,-7.22434 -2.261033,1.25042 -4.32207,2.82416 -6.364863,4.3968 -4.891735,3.84018 -9.553098,7.96343 -14.14737,12.15189 -0.77202,0.70664 -1.540912,1.41669 -2.305753,2.13109 3.62127,-7.23461 7.870829,-14.18522 12.979319,-20.47069 1.457289,-1.76727 2.959121,-3.5077 4.627798,-5.08038 -1.214818,-1.18538 -2.784666,-1.91899 -4.350804,-2.52097 -2.964915,-1.09525 -6.091626,-1.68828 -9.223042,-2.05775 -1.102297,-0.12534 -2.208639,-0.21622 -3.316936,-0.26664 1.704816,-0.67168 3.499737,-1.07713 5.286094,-1.46493 3.689038,-0.75869 7.430778,-1.2859 11.19304,-1.48714 3.122387,-0.11346 6.252598,-0.10248 9.370538,0.1134 0.367694,0.0644 0.714253,0.0738 0.966896,-0.24791 2.959851,-2.24138 6.212344,-4.07359 9.569977,-5.64653 1.829679,-0.8343 3.689938,-1.63244 5.639186,-2.14455 0.236454,-0.0587 0.474718,-0.11086 0.715515,-0.14837 z m 16.609761,75.14157 c -2.58815,3.47653 -5.28278,6.8778 -8.1852,10.09861 -0.34539,0.16444 -0.76083,0.21355 -1.13465,0.32831 -3.503918,0.90138 -7.095182,1.47584 -10.711271,1.63731 -0.933163,0.0451 -1.867346,0.0677 -2.80156,0.073 2.975822,1.55556 6.186809,2.64389 9.481323,3.28228 -2.754382,2.53802 -5.69483,4.88201 -8.853788,6.89871 -0.117902,0.0918 -0.61002,0.34074 -0.220024,0.21515 4.507536,-1.11173 8.949482,-2.53222 13.19777,-4.413 1.46375,-0.65387 2.90173,-1.3687 4.28653,-2.17739 2.39232,0.0567 4.79882,-0.0282 7.16151,-0.4298 -0.45998,-1.61476 -0.88803,-3.2405 -1.19022,-4.89311 3.6765,-2.83144 7.13591,-5.93628 10.42147,-9.2112 0.74026,-0.73418 1.4741,-1.47481 2.20437,-2.21892 -3.46128,2.43095 -7.05884,4.67709 -10.83549,6.58682 -0.76766,0.3911 -1.54115,0.77073 -2.31934,1.14041 z"
       style="clip-rule:evenodd;display:inline;fill:#f4f4f4;fill-opacity:1;fill-rule:evenodd;stroke-width:1.83675313"
       inkscape:label="Logo" />
  </g>
</svg>
