<?xml version="1.0" encoding="UTF-8" standalone="no"?>
<!-- Created with Inkscape (http://www.inkscape.org/) -->

<svg
   xmlns:dc="http://purl.org/dc/elements/1.1/"
   xmlns:cc="http://creativecommons.org/ns#"
   xmlns:rdf="http://www.w3.org/1999/02/22-rdf-syntax-ns#"
   xmlns:svg="http://www.w3.org/2000/svg"
   xmlns="http://www.w3.org/2000/svg"
   xmlns:sodipodi="http://sodipodi.sourceforge.net/DTD/sodipodi-0.dtd"
   xmlns:inkscape="http://www.inkscape.org/namespaces/inkscape"
   width="800"
   height="600"
   viewBox="0 0 211.66667 158.75"
   version="1.1"
   id="svg8"
   inkscape:version="0.92.4 5da689c313, 2019-01-14"
   sodipodi:docname="CreditAgricole.svg">
  <defs
     id="defs2">
    <inkscape:perspective
       id="perspective20"
       inkscape:persp3d-origin="96.377997 : 64.252 : 1"
       inkscape:vp_z="192.756 : 96.377999 : 1"
       inkscape:vp_y="0 : 1000 : 0"
       inkscape:vp_x="0 : 96.377999 : 1"
       sodipodi:type="inkscape:persp3d" />
    <clipPath
       clipPathUnits="userSpaceOnUse"
       id="clipPath1032">
      <rect
         inkscape:label="Shadow mask"
         id="rect1034"
         y="1.9875739e-05"
         x="0"
         height="600"
         width="800"
         style="display:inline;opacity:0.95999995;fill:#35bf5c;fill-opacity:1;stroke:none;stroke-width:1;stroke-opacity:1" />
    </clipPath>
  </defs>
  <sodipodi:namedview
     id="base"
     pagecolor="#ffffff"
     bordercolor="#666666"
     borderopacity="1.0"
     inkscape:pageopacity="0.0"
     inkscape:pageshadow="2"
     inkscape:zoom="0.49497475"
     inkscape:cx="666.59449"
     inkscape:cy="224.96329"
     inkscape:document-units="px"
     inkscape:current-layer="layer1"
     showgrid="true"
     units="px"
     inkscape:pagecheckerboard="true"
     inkscape:window-width="1366"
     inkscape:window-height="712"
     inkscape:window-x="0"
     inkscape:window-y="26"
     inkscape:window-maximized="1"
     inkscape:snap-nodes="false"
     inkscape:snap-object-midpoints="true"
     inkscape:snap-global="true"
     showguides="true"
     inkscape:guide-bbox="true">
    <inkscape:grid
       id="grid815"
       type="xygrid"
       units="px"
       spacingy="39.6875"
       spacingx="52.916667"
       empspacing="2" />
    <sodipodi:guide
       inkscape:locked="false"
       id="guide5335"
       orientation="0,1"
       position="162.52976,127.75595" />
    <sodipodi:guide
       inkscape:locked="false"
       id="guide5337"
       orientation="0,1"
       position="176.13691,31.75" />
  </sodipodi:namedview>
  <metadata
     id="metadata5">
    <rdf:RDF>
      <cc:Work
         rdf:about="">
        <dc:format>image/svg+xml</dc:format>
        <dc:type
           rdf:resource="http://purl.org/dc/dcmitype/StillImage" />
        <dc:title />
      </cc:Work>
    </rdf:RDF>
  </metadata>
  <g
     inkscape:label="Tile"
     inkscape:groupmode="layer"
     id="layer1"
     transform="translate(0,-138.25001)">
    <rect
       style="display:inline;opacity:0.95999995;fill:#009898;fill-opacity:1;stroke:none;stroke-width:0.26458335;stroke-opacity:1"
       width="211.66667"
       height="158.75"
       x="0"
       y="138.25002"
       id="rect817"
       inkscape:label="Background" />
    <path
       style="clip-rule:evenodd;opacity:0.27999998;fill:#000000;fill-opacity:1;fill-rule:evenodd;stroke-width:2.05943441"
       d="m 687.35938,101.32422 c 0,0 -100.69367,51.46752 -118.50586,60.76172 -10.11421,4.94747 -22.84961,8.17578 -22.84961,8.17578 0.79753,2.65565 1.64415,5.4628 2.56836,8.31836 l -50.21094,-50.21094 h -81.35938 c -6.92433,12.60949 -15.45119,28.3427 -24.39453,44.90625 l -41.07226,-41.07227 c -6.8833,-6.88327 -17.45391,-8.54462 -28.25977,-8.5625 l 0.002,0.002 c -2.05188,-0.003 -4.11307,0.053 -6.1582,0.14258 -22.60778,1.69406 -45.60378,9.68625 -64.48242,17.91406 -9.6823,4.647 -20.33295,8.95743 -26.62695,12.3457 -5.66293,3.04743 -20.04061,12.3435 -28.5586,18.92774 -40.27488,31.36875 -82.7832,73.77727 -82.7832,129.73828 0,3.34443 0.72656,8.90892 0.72656,12.7832 1.93715,10.84328 4.3133,21.30554 8.95703,31.36914 6.07797,13.39552 15.29872,26.70302 26.51367,37.91797 L 264.75977,498.67578 H 158.71289 L 112.63281,452.5957 v 46.08008 L 597.96484,984.00586 C 1517.828,1203.1726 869.81948,741.57674 1172.6914,586.65625 Z"
       id="path853"
       inkscape:connector-curvature="0"
       sodipodi:nodetypes="ccccccccccccccsccsccccccc"
       transform="matrix(0.26458334,0,0,0.26458334,0,138.25001)"
       clip-path="url(#clipPath1032)" />
    <path
       inkscape:label="Logo"
       inkscape:connector-curvature="0"
       id="path9"
       d="m 181.86406,165.0589 c 0,0 -26.64215,13.61723 -31.35496,16.07632 -2.67605,1.30902 -6.04582,2.1634 -6.04582,2.1634 0.92326,3.07429 2.05007,6.8657 4.40647,9.52927 1.52599,1.28669 3.80385,1.57139 5.94328,0.51238 l 27.05184,-14.75545 h -8.1e-4 z m -96.330028,5.90483 c -0.542893,-8.9e-4 -1.088242,0.0141 -1.62935,0.0378 -5.981642,0.44822 -12.066071,2.56287 -17.061045,4.73981 -2.561775,1.22952 -5.379714,2.36979 -7.045002,3.26627 -1.498316,0.8063 -5.302884,3.26616 -7.556601,5.00824 -10.656062,8.29965 -21.902609,19.52007 -21.902609,34.32642 0,0.88488 0.192295,2.35739 0.192295,3.38246 0.512536,2.86895 1.141049,5.6367 2.369703,8.29936 2.946624,6.49419 8.685306,12.91065 15.345565,15.98498 12.500828,5.94324 28.281529,3.89218 41.70472,1.22952 2.382311,-0.53842 3.215192,-0.79265 5.328749,-1.43465 13.934833,-4.09848 40.167933,-16.70209 40.167933,-16.70209 l 0.0177,-0.0106 c 1.40765,3.58045 2.46301,6.27665 2.64333,6.77298 3.91901,9.87654 3.6638,12.95783 7.37832,12.95783 h 20.59576 0.34571 l -13.29435,-29.45921 0.55125,-0.30329 28.1796,-16.90764 v -17.06063 l -35.17732,19.34142 -0.23436,0.12549 -14.59603,-32.34372 h -21.52638 c -9.73458,17.72705 -29.88669,55.70101 -29.88669,55.70101 l 1.100918,-0.14635 c 0,0 15.884003,-2.3564 22.338882,-6.86471 3.17702,-1.84476 4.44041,-5.79863 5.636,-8.30056 l 10.60978,-22.33809 c 0,0 4.66101,11.7749 9.26045,23.41936 l -2.55036,1.27601 -9.83819,5.02062 -4.91888,2.3565 c 0,0 -5.22546,2.04933 -7.88992,3.0744 -9.427408,3.89399 -17.880539,6.30218 -29.203602,8.4023 -10.964117,1.48584 -27.999155,3.15121 -32.278008,-5.3279 -2.970733,-6.14862 1.203708,-11.56698 4.713759,-16.19049 12.808884,-15.06351 29.716184,-25.41248 49.902324,-25.82235 -0.615205,-3.68861 -1.639321,-7.37797 -2.868848,-10.9639 -1.435254,-3.76588 -5.125742,-4.54083 -8.925951,-4.54712 z m -55.73305,87.03553 v 12.19187 H 170.90055 v -12.19187 z"
       style="clip-rule:evenodd;fill:#f4f4f4;fill-opacity:1;fill-rule:evenodd;stroke-width:0.54489201" />
  </g>
</svg>
