<?xml version="1.0" encoding="UTF-8" standalone="no"?>
<!-- Created with Inkscape (http://www.inkscape.org/) -->

<svg
   xmlns:dc="http://purl.org/dc/elements/1.1/"
   xmlns:cc="http://creativecommons.org/ns#"
   xmlns:rdf="http://www.w3.org/1999/02/22-rdf-syntax-ns#"
   xmlns:svg="http://www.w3.org/2000/svg"
   xmlns="http://www.w3.org/2000/svg"
   xmlns:sodipodi="http://sodipodi.sourceforge.net/DTD/sodipodi-0.dtd"
   xmlns:inkscape="http://www.inkscape.org/namespaces/inkscape"
   width="800"
   height="600"
   viewBox="0 0 211.66667 158.75"
   version="1.1"
   id="svg8"
   inkscape:version="0.92.4 5da689c313, 2019-01-14"
   sodipodi:docname="Fast.svg">
  <defs
     id="defs2">
    <style
       id="style822">.cls-1{fill:#e50914;}</style>
  </defs>
  <sodipodi:namedview
     id="base"
     pagecolor="#ffffff"
     bordercolor="#666666"
     borderopacity="1.0"
     inkscape:pageopacity="0.0"
     inkscape:pageshadow="2"
     inkscape:zoom="0.5"
     inkscape:cx="494.96172"
     inkscape:cy="285.98531"
     inkscape:document-units="px"
     inkscape:current-layer="layer1"
     showgrid="true"
     units="px"
     inkscape:pagecheckerboard="true"
     inkscape:window-width="1366"
     inkscape:window-height="712"
     inkscape:window-x="0"
     inkscape:window-y="26"
     inkscape:window-maximized="1"
     inkscape:snap-nodes="true"
     inkscape:snap-object-midpoints="true"
     inkscape:snap-global="false"
     showguides="true"
     inkscape:guide-bbox="true">
    <inkscape:grid
       id="grid815"
       type="xygrid"
       units="px"
       spacingy="39.6875"
       spacingx="52.916667"
       empspacing="2" />
    <sodipodi:guide
       inkscape:locked="false"
       id="guide5335"
       orientation="0,1"
       position="162.52976,127.75595" />
    <sodipodi:guide
       inkscape:locked="false"
       id="guide5337"
       orientation="0,1"
       position="176.13691,31.75" />
  </sodipodi:namedview>
  <metadata
     id="metadata5">
    <rdf:RDF>
      <cc:Work
         rdf:about="">
        <dc:format>image/svg+xml</dc:format>
        <dc:type
           rdf:resource="http://purl.org/dc/dcmitype/StillImage" />
        <dc:title />
      </cc:Work>
    </rdf:RDF>
  </metadata>
  <g
     inkscape:label="Tile"
     inkscape:groupmode="layer"
     id="layer1"
     transform="translate(0,-138.25001)">
    <rect
       style="opacity:1;fill:#ff1744;fill-opacity:1;stroke:none;stroke-width:0.26458335;stroke-opacity:1"
       width="211.66667"
       height="158.75"
       x="0"
       y="138.25002"
       id="rect817"
       inkscape:label="Background" />
    <rect
       inkscape:label="Shadow mask"
       id="rect1009"
       y="138.25002"
       x="0"
       height="158.75"
       width="211.66667"
       style="display:none;opacity:0.95999995;fill:#35bf5c;fill-opacity:1;stroke:none;stroke-width:0.26458335;stroke-opacity:1" />
    <path
       style="opacity:0.33838381;fill:#000000;fill-opacity:1;stroke-width:0.87878346"
       d="m 107.8923,160.90547 -6.19839,0.12919 -6.154289,0.74654 -6.048701,1.35768 -5.883495,1.95516 -5.658667,2.53215 -5.377313,3.08428 -5.042552,3.606 -4.657484,4.09168 -4.225831,4.53575 -3.751948,4.93572 -3.240796,5.28478 -2.696731,5.58227 -2.12534,5.82387 -1.534069,6.00647 -0.926651,6.12944 -0.30992,6.19217 c 0.04183,0.0539 0.0047,0.1866 0.01739,0.26955 v 6.21702 l 8.6914,8.69202 h -8.717484 v 35.94068 l 154.332301,154.3323 c 29.64009,3.62436 192.75117,-1.67868 105.23903,-95.60913 l -154.33229,-154.33229 -4.65748,-4.09168 -5.04256,-3.606 -5.37731,-3.0849 -5.65867,-2.53215 -5.88349,-1.95454 -6.0487,-1.35768 -6.15429,-0.74716 z"
       id="path1086"
       inkscape:connector-curvature="0"
       inkscape:transform-center-x="-80.770766"
       inkscape:transform-center-y="77.405066"
       sodipodi:nodetypes="ccccccccccccccccccccccccccccccccc" />
    <path
       inkscape:connector-curvature="0"
       id="path828"
       d="m 107.89219,160.9056 -6.19809,0.12883 -6.154261,0.74697 -6.048948,1.35764 -5.883192,1.95473 -5.658654,2.53232 -5.377566,3.08457 -5.042768,3.60604 -4.657561,4.09146 -4.225842,4.536 -3.751879,4.93521 -3.240434,5.28513 -2.696608,5.58221 -2.125857,5.82355 -1.533847,6.00669 -0.92651,6.12981 -0.309929,6.19167 c 0.04182,0.0539 0.0044,0.18708 0.01714,0.27003 v 6.21704 h 16.696887 v -6.41581 h -8.250608 v -0.0704 l 0.47921,-5.33687 1.009616,-5.26238 1.529927,-5.13527 2.034964,-4.95691 2.519657,-4.72898 2.979173,-4.4538 3.408941,-4.13413 3.804623,-3.77314 4.162305,-3.37448 4.478404,-2.94208 4.411877,-2.48028 4.973625,-1.99371 5.147827,-1.48721 5.270574,-0.96587 5.340664,-0.43486 c 0.92358,-0.0296 1.03475,-0.044 1.64734,-0.052 0,0 -2.55009,30.98855 -3.93537,46.13475 -3.055813,2.31449 -3.523361,7.18694 -0.96344,10.0403 2.40274,2.98694 7.28675,3.31202 10.06415,0.66986 2.91549,-2.48892 3.09783,-7.38034 0.3757,-10.07942 l -0.51031,-0.48312 c -0.2557,-0.0745 -0.1715,-0.32817 -0.21195,-0.51614 l -1.09397,-11.96534 c 6.33445,0.96275 11.87729,5.73877 13.76577,11.86133 0.62442,1.88249 0.8562,3.93069 0.83337,5.8774 h 8.30588 c 0.10504,-4.28231 -0.88683,-8.58532 -2.856,-12.38949 -1.96083,-3.80846 -4.89428,-7.10915 -8.4462,-9.50356 -3.54667,-2.40216 -7.70346,-3.89243 -11.96849,-4.29083 l -0.41013,-0.0355 c -0.27977,-3.05685 -0.55953,-6.11372 -0.8393,-9.17058 l 3.4714,0.2937 3.42474,0.63878 3.34386,0.97749 3.22957,1.30643 3.08301,1.62234 2.90563,1.92201 2.69925,2.20249 2.46587,2.46096 2.20788,2.69485 1.92781,2.9018 1.62847,3.07976 1.31289,3.22696 0.98416,3.3419 0.6456,3.42345 0.30061,3.47082 c -1.24102,2.11535 -0.0631,1.78666 0.75891,1.81759 h 8.18843 c 0.0651,-5.975 -1.04341,-11.96925 -3.37262,-17.48092 l -1.87782,-3.9247 -2.26025,-3.71764 -2.62009,-3.4734 -2.65449,-2.8988 -3.21583,-2.93051 -3.49232,-2.59483 -3.73394,-2.23322 -3.93822,-1.84929 -4.10316,-1.44689 -4.22713,-1.03002 -4.30882,-0.60287 c -2.4892,0.0317 -3.35477,-0.17547 -3.35477,-0.17547 -0.56076,-5.10537 -0.7089,-5.12485 -0.89471,-7.15325 l 5.35025,0.29414 5.29419,0.82682 5.18517,1.35121 5.02439,1.86213 4.81337,2.35442 4.55427,2.82319 4.24968,3.26376 3.90262,3.67172 3.51656,4.04297 3.09537,4.37385 2.64323,4.66102 2.16471,4.90164 1.66456,5.09324 1.14777,5.23396 0.61949,5.32242 0.0746,1.41645 c 0.0309,0.13288 -0.15846,0.0454 -0.23551,0.0704 h -8.01682 v 6.41581 h 16.69689 v -6.48618 l -0.30984,-6.19168 -0.92642,-6.12982 -1.53376,-6.00671 -2.12578,-5.82357 -2.69653,-5.58227 -3.24036,-5.28517 -3.75181,-4.93526 -4.22577,-4.53607 -4.65751,-4.09151 -5.04271,-3.6061 -5.37754,-3.08467 -5.65861,-2.53239 -5.88316,-1.95482 -6.04893,-1.35772 -6.15425,-0.74705 -2.5757,-0.1289 z m 13.79965,76.69618 c -2.87246,-0.004 -5.81582,0.6832 -8.19723,2.34006 -1.87244,1.2869 -3.30923,3.2118 -3.93755,5.40145 -0.50352,1.70776 -0.52931,3.52736 -0.27756,5.27994 0.24855,1.67305 0.95263,3.30167 2.1387,4.52417 1.44302,1.50826 3.38321,2.40819 5.32073,3.10156 1.93124,0.69561 3.93599,1.14768 5.91046,1.69776 1.33994,0.39353 2.6971,0.79295 3.92428,1.47437 0.71306,0.39662 1.39744,0.9917 1.59036,1.81843 0.13364,0.60902 0.13762,1.26069 -0.0475,1.85973 -0.30151,0.96671 -1.16633,1.64198 -2.08624,1.98473 -1.42063,0.53213 -2.9738,0.54165 -4.46484,0.39472 -2.41885,-0.25105 -4.72054,-1.20196 -6.75193,-2.51449 -0.85645,-0.5487 -1.67408,-1.15632 -2.46227,-1.79876 -1.5556,1.8634 -3.11121,3.72682 -4.66682,5.59023 4.89799,4.38341 11.77613,6.46442 18.27645,5.51669 2.54791,-0.38337 5.0818,-1.34542 6.98933,-3.12132 1.60044,-1.46786 2.64176,-3.495 3.00213,-5.62903 0.26457,-1.58976 0.26782,-3.23701 -0.0826,-4.81418 -0.36001,-1.63611 -1.23995,-3.14815 -2.48602,-4.26805 -1.65985,-1.50697 -3.75946,-2.41208 -5.85873,-3.12542 -2.61932,-0.89278 -5.37585,-1.34552 -7.94834,-2.38199 -0.8495,-0.36122 -1.74812,-0.79811 -2.24297,-1.61569 -0.37118,-0.63946 -0.41347,-1.41617 -0.31942,-2.1345 0.14274,-0.90674 0.81802,-1.65017 1.62801,-2.03871 1.21655,-0.59263 2.61363,-0.64868 3.94001,-0.532 2.43971,0.23737 4.73568,1.24245 6.81508,2.49861 0.50586,0.3063 1.00123,0.62978 1.48719,0.96671 1.36795,-1.98298 2.7359,-3.96596 4.10385,-5.94895 -3.73098,-2.98965 -8.51694,-4.61841 -13.29675,-4.52607 z m -37.954178,0.2197 c -5.129099,12.05409 -10.258198,24.10818 -15.387297,36.16227 h 8.049797 c 1.095615,-2.68327 2.191239,-5.36653 3.286853,-8.0498 h 15.176178 c 1.095623,2.68327 2.191237,5.36653 3.286862,8.0498 h 8.286655 L 91.049413,237.82148 Z m -39.686003,0.25573 v 35.94087 h 7.90905 v -13.90091 h 17.119117 v -7.1796 H 51.960709 v -7.68076 h 19.429359 v -7.1796 z m 94.294161,0 v 7.28429 h 10.92301 v 28.62225 h 7.90904 V 245.3615 h 10.91442 v -7.28429 z m -51.067276,9.23581 c 1.590502,3.8813 3.181012,7.76259 4.771513,11.64389 h -9.543035 c 1.590511,-3.8813 3.181012,-7.76259 4.771522,-11.64389 z"
       style="fill:#f4f4f4;fill-opacity:1;stroke-width:0.87878352"
       sodipodi:nodetypes="ccccccccccccccccccccccccccccccccccccccscccccccccccccccccccccccccccccccccccccccccccccccccccccccccccccccccccccccccccccccccccccccccccccccccccccccccccccccccccccccccccccccccccccccccccccccccccc"
       inkscape:transform-center-x="-0.24231072"
       inkscape:transform-center-y="0.085932922" />
  </g>
</svg>
