<?xml version="1.0" encoding="UTF-8" standalone="no"?>
<!-- Created with Inkscape (http://www.inkscape.org/) -->

<svg
   xmlns:dc="http://purl.org/dc/elements/1.1/"
   xmlns:cc="http://creativecommons.org/ns#"
   xmlns:rdf="http://www.w3.org/1999/02/22-rdf-syntax-ns#"
   xmlns:svg="http://www.w3.org/2000/svg"
   xmlns="http://www.w3.org/2000/svg"
   xmlns:sodipodi="http://sodipodi.sourceforge.net/DTD/sodipodi-0.dtd"
   xmlns:inkscape="http://www.inkscape.org/namespaces/inkscape"
   width="800"
   height="600"
   viewBox="0 0 211.66667 158.75"
   version="1.1"
   id="svg8"
   inkscape:version="0.92.4 5da689c313, 2019-01-14"
   sodipodi:docname="Finances.svg">
  <defs
     id="defs2">
    <clipPath
       clipPathUnits="userSpaceOnUse"
       id="clipPath1156">
      <rect
         style="display:inline;opacity:0.95999995;fill:#35bf5c;fill-opacity:1;stroke:none;stroke-width:1;stroke-opacity:1"
         width="800"
         height="600"
         x="0"
         y="1.9875739e-05"
         id="rect1158"
         inkscape:label="Shadow mask" />
    </clipPath>
  </defs>
  <sodipodi:namedview
     id="base"
     pagecolor="#ffffff"
     bordercolor="#666666"
     borderopacity="1.0"
     inkscape:pageopacity="0.0"
     inkscape:pageshadow="2"
     inkscape:zoom="0.49497475"
     inkscape:cx="340.31522"
     inkscape:cy="263.34909"
     inkscape:document-units="px"
     inkscape:current-layer="layer1"
     showgrid="true"
     units="px"
     inkscape:pagecheckerboard="true"
     inkscape:window-width="1366"
     inkscape:window-height="712"
     inkscape:window-x="0"
     inkscape:window-y="26"
     inkscape:window-maximized="1"
     inkscape:snap-nodes="true"
     inkscape:snap-object-midpoints="true"
     inkscape:snap-global="true"
     showguides="true"
     inkscape:guide-bbox="true">
    <inkscape:grid
       empspacing="2"
       spacingx="52.916667"
       spacingy="39.6875"
       units="px"
       type="xygrid"
       id="grid815" />
    <sodipodi:guide
       position="162.52976,127.75595"
       orientation="0,1"
       id="guide5335"
       inkscape:locked="false" />
    <sodipodi:guide
       position="176.13691,31.75"
       orientation="0,1"
       id="guide5337"
       inkscape:locked="false" />
  </sodipodi:namedview>
  <metadata
     id="metadata5">
    <rdf:RDF>
      <cc:Work
         rdf:about="">
        <dc:format>image/svg+xml</dc:format>
        <dc:type
           rdf:resource="http://purl.org/dc/dcmitype/StillImage" />
        <dc:title />
      </cc:Work>
    </rdf:RDF>
  </metadata>
  <g
     inkscape:label="Tile"
     inkscape:groupmode="layer"
     id="layer1"
     transform="translate(0,-138.25001)">
    <rect
       style="display:inline;opacity:0.95999995;fill:#00bfa5;fill-opacity:1;stroke:none;stroke-width:0.26458335;stroke-opacity:1"
       width="211.66667"
       height="158.75"
       x="0"
       y="138.25002"
       id="rect817"
       inkscape:label="Background" />
    <path
       style="opacity:0.2171717;stroke-width:25.13681221"
       d="m 362.29492,73.769531 v 54.796879 c -51.02729,12.81996 -87.97851,51.02888 -87.97851,96.02343 0,25.40107 8.76883,43.761 22.49023,57.48243 L 434.5918,419.85938 c -10.42213,3.70016 -22.20331,5.82421 -34.5918,5.82421 -10.30336,0 -20.19148,-1.46687 -29.22461,-4.08789 l -46.18555,-46.18554 h -50.27343 c 0,23.75656 10.3002,45.62247 27.53515,62.85742 l 60.44336,60.44336 v 27.51953 L 800.58984,964.52539 H 876 v -54.79687 c 51.02733,-12.81997 87.97852,-51.02888 87.97852,-96.02344 0,-25.401 -8.76885,-43.76104 -22.49024,-57.48242 L 803.70312,618.43555 c 10.42198,-3.70005 22.20383,-5.82422 34.5918,-5.82422 10.30348,0 20.18958,1.46498 29.22266,4.08594 l 46.1875,46.1875 h 50.27344 c 0,-23.75656 -10.30021,-45.62248 -27.53516,-62.85743 L 876,539.58398 V 512.06445 L 437.70508,73.769531 Z"
       transform="matrix(0.26458334,0,0,0.26458334,0,138.25001)"
       id="path1057"
       inkscape:connector-curvature="0"
       inkscape:label="shadow"
       clip-path="url(#clipPath1156)" />
    <path
       id="path821"
       d="m 72.579465,237.57734 h 13.301389 c 0,7.18285 9.111601,13.30166 19.952356,13.30166 10.84101,0 19.95235,-6.11881 19.95235,-13.30166 0,-7.3158 -6.91666,-9.97603 -21.54854,-13.50097 -14.099493,-3.52493 -31.657555,-7.91458 -31.657555,-26.40369 0,-11.90481 9.776716,-22.01409 23.277688,-25.40604 v -14.49866 h 19.952357 v 14.49866 c 13.50098,3.39195 23.2777,13.50123 23.2777,25.40604 h -13.30165 c 0,-7.18285 -9.11134,-13.30166 -19.95235,-13.30166 -10.840755,0 -19.952356,6.11881 -19.952356,13.30166 0,7.3158 6.916895,9.97628 21.548556,13.50097 14.09974,3.52493 31.6578,7.91458 31.6578,26.40369 0,11.90481 -9.77672,22.01409 -23.2777,25.40604 v 14.49866 H 95.857153 V 262.98338 C 82.356181,259.59143 72.579465,249.48215 72.579465,237.57734 Z"
       inkscape:connector-curvature="0"
       style="display:inline;fill:#f4f4f4;fill-opacity:1;stroke-width:6.65078163"
       inkscape:label="Logo" />
  </g>
</svg>
