<?xml version="1.0" encoding="UTF-8" standalone="no"?>
<!-- Created with Inkscape (http://www.inkscape.org/) -->

<svg
   xmlns:dc="http://purl.org/dc/elements/1.1/"
   xmlns:cc="http://creativecommons.org/ns#"
   xmlns:rdf="http://www.w3.org/1999/02/22-rdf-syntax-ns#"
   xmlns:svg="http://www.w3.org/2000/svg"
   xmlns="http://www.w3.org/2000/svg"
   xmlns:sodipodi="http://sodipodi.sourceforge.net/DTD/sodipodi-0.dtd"
   xmlns:inkscape="http://www.inkscape.org/namespaces/inkscape"
   width="800"
   height="600"
   viewBox="0 0 211.66667 158.75"
   version="1.1"
   id="svg8"
   inkscape:version="0.92.4 5da689c313, 2019-01-14"
   sodipodi:docname="Gmail.svg">
  <defs
     id="defs2">
    <clipPath
       clipPathUnits="userSpaceOnUse"
       id="clipPath909">
      <rect
         inkscape:label="Shadow mask"
         id="rect911"
         y="1.9875739e-05"
         x="0"
         height="600"
         width="800"
         style="display:inline;opacity:0.95999995;fill:#4d4d4d;fill-opacity:1;stroke:none;stroke-width:1;stroke-opacity:1" />
    </clipPath>
  </defs>
  <sodipodi:namedview
     id="base"
     pagecolor="#ffffff"
     bordercolor="#666666"
     borderopacity="1.0"
     inkscape:pageopacity="0.0"
     inkscape:pageshadow="2"
     inkscape:zoom="0.7"
     inkscape:cx="466.46881"
     inkscape:cy="400.69551"
     inkscape:document-units="px"
     inkscape:current-layer="layer1"
     showgrid="true"
     units="px"
     inkscape:pagecheckerboard="true"
     inkscape:window-width="1366"
     inkscape:window-height="712"
     inkscape:window-x="0"
     inkscape:window-y="26"
     inkscape:window-maximized="1"
     inkscape:snap-nodes="true"
     inkscape:snap-object-midpoints="true"
     inkscape:snap-global="true"
     showguides="true"
     inkscape:guide-bbox="true"
     inkscape:snap-others="true">
    <inkscape:grid
       id="grid815"
       type="xygrid"
       units="px"
       spacingy="39.6875"
       spacingx="52.916667"
       empspacing="2" />
    <sodipodi:guide
       inkscape:locked="false"
       id="guide5335"
       orientation="0,1"
       position="162.52976,127.75595" />
    <sodipodi:guide
       inkscape:locked="false"
       id="guide5337"
       orientation="0,1"
       position="176.13691,31.75" />
  </sodipodi:namedview>
  <metadata
     id="metadata5">
    <rdf:RDF>
      <cc:Work
         rdf:about="">
        <dc:format>image/svg+xml</dc:format>
        <dc:type
           rdf:resource="http://purl.org/dc/dcmitype/StillImage" />
        <dc:title />
      </cc:Work>
    </rdf:RDF>
  </metadata>
  <g
     inkscape:label="Tile"
     inkscape:groupmode="layer"
     id="layer1"
     transform="translate(0,-138.25001)">
    <rect
       style="display:inline;opacity:0.95999995;fill:#f14336;fill-opacity:1;stroke:none;stroke-width:0.26458335;stroke-opacity:1"
       width="211.66667"
       height="158.75"
       x="0"
       y="138.25002"
       id="rect817"
       inkscape:label="Background" />
    <path
       style="display:inline;opacity:0.25252524;fill:#000000;fill-opacity:1;stroke-width:25.00000763"
       d="m 200,100 c -27.75007,0 -50,22.24973 -50,50 v 300 l 50,50 438.29492,438.29492 h 399.99998 l -49.99998,-50 h 49.99998 l -49.99998,-50 v -50 l 99.99998,100 v -300 c 0,-13.84369 -5.5984,-26.31921 -14.625,-35.3457 L 635.375,114.6543 C 626.30746,105.58676 613.7811,100 600,100 Z"
       id="path840"
       inkscape:connector-curvature="0"
       transform="matrix(0.26458334,0,0,0.26458334,0,138.25001)"
       clip-path="url(#clipPath909)" />
    <path
       style="display:inline;fill:#f4f4f4;fill-opacity:1;stroke-width:6.6145854"
       inkscape:connector-curvature="0"
       d="M 158.75,257.31255 H 145.52075 V 199.435 L 105.83328,224.23952 66.145747,199.435 v 57.87755 H 52.916585 v -79.37508 h 7.937513 l 44.979182,28.11203 44.97922,-28.11203 h 7.9375 m 0,-13.22926 H 52.916585 c -7.342205,0 -13.229187,5.887 -13.229187,13.22926 v 79.37508 a 13.22918,13.22918 0 0 0 13.229187,13.22926 H 158.75 a 13.22918,13.22918 0 0 0 13.22927,-13.22926 v -79.37508 c 0,-7.34226 -5.95326,-13.22926 -13.22927,-13.22926 z"
       id="path821" />
  </g>
</svg>
