<?xml version="1.0" encoding="UTF-8" standalone="no"?>
<!-- Created with Inkscape (http://www.inkscape.org/) -->

<svg
   xmlns:dc="http://purl.org/dc/elements/1.1/"
   xmlns:cc="http://creativecommons.org/ns#"
   xmlns:rdf="http://www.w3.org/1999/02/22-rdf-syntax-ns#"
   xmlns:svg="http://www.w3.org/2000/svg"
   xmlns="http://www.w3.org/2000/svg"
   xmlns:sodipodi="http://sodipodi.sourceforge.net/DTD/sodipodi-0.dtd"
   xmlns:inkscape="http://www.inkscape.org/namespaces/inkscape"
   sodipodi:docname="GoogleCalendar.svg"
   inkscape:version="0.92.4 5da689c313, 2019-01-14"
   id="svg8"
   version="1.1"
   viewBox="0 0 211.66667 158.75"
   height="600"
   width="800">
  <defs
     id="defs2">
    <clipPath
       clipPathUnits="userSpaceOnUse"
       id="clipPath2726">
      <rect
         inkscape:label="Shadow mask"
         id="rect2728"
         y="1.9875739e-05"
         x="0"
         height="600"
         width="800"
         style="display:inline;opacity:0.95999995;fill:#333333;fill-opacity:1;stroke:none;stroke-width:1;stroke-opacity:1" />
    </clipPath>
  </defs>
  <sodipodi:namedview
     id="base"
     pagecolor="#ffffff"
     bordercolor="#666666"
     borderopacity="1.0"
     inkscape:pageopacity="0.0"
     inkscape:pageshadow="2"
     inkscape:zoom="0.32"
     inkscape:cx="36.185569"
     inkscape:cy="239.86405"
     inkscape:document-units="px"
     inkscape:current-layer="layer1"
     showgrid="false"
     units="px"
     inkscape:pagecheckerboard="true"
     inkscape:window-width="1366"
     inkscape:window-height="712"
     inkscape:window-x="0"
     inkscape:window-y="26"
     inkscape:window-maximized="1"
     inkscape:snap-nodes="true"
     inkscape:snap-object-midpoints="true"
     inkscape:snap-global="true"
     showguides="false"
     inkscape:guide-bbox="true">
    <inkscape:grid
       empspacing="2"
       spacingx="52.916667"
       spacingy="39.6875"
       units="px"
       type="xygrid"
       id="grid815" />
    <sodipodi:guide
       position="162.52976,127.75595"
       orientation="0,1"
       id="guide5335"
       inkscape:locked="false" />
    <sodipodi:guide
       position="176.13691,31.75"
       orientation="0,1"
       id="guide5337"
       inkscape:locked="false" />
    <sodipodi:guide
       position="155.2301,115.51897"
       orientation="0,1"
       id="guide838"
       inkscape:locked="false" />
    <sodipodi:guide
       position="55.505832,115.54956"
       orientation="1,0"
       id="guide840"
       inkscape:locked="false" />
    <sodipodi:guide
       position="156.2292,115.51577"
       orientation="1,0"
       id="guide842"
       inkscape:locked="false" />
  </sodipodi:namedview>
  <metadata
     id="metadata5">
    <rdf:RDF>
      <cc:Work
         rdf:about="">
        <dc:format>image/svg+xml</dc:format>
        <dc:type
           rdf:resource="http://purl.org/dc/dcmitype/StillImage" />
        <dc:title />
      </cc:Work>
    </rdf:RDF>
  </metadata>
  <g
     inkscape:label="Tile"
     inkscape:groupmode="layer"
     id="layer1"
     transform="translate(0,-138.25001)">
    <rect
       style="display:inline;opacity:0.95999995;fill:#3664d0;fill-opacity:1;stroke:none;stroke-width:0.26458335;stroke-opacity:1"
       width="211.66667"
       height="158.75"
       x="0"
       y="138.25002"
       id="rect817"
       inkscape:label="Background" />
    <path
       d="m 481.6543,99.248047 c -21.13662,5.54e-4 -48.11983,0.01062 -82.55274,0.02539 l -156.01172,0.06641 -2.05664,0.488281 c -10.22189,2.425012 -17.90006,9.325692 -21.14258,19.003902 -1.34627,4.01834 -1.375,4.48115 -1.375,22.47266 v 16.42187 l 94.09571,94.09571 c -2.44441,1.65778 -4.71955,3.51443 -6.79688,5.57617 -0.33909,0.33654 -0.67077,0.67871 -0.99804,1.02539 l -95.03125,-95.03125 c -4.26079,4.26077 -8.57734,10.33325 -10.04102,17.08984 -0.17218,0.79483 -0.29338,2.81372 -0.28906,4.80078 0.007,3.20728 0.519,7.20146 7.92578,61.83203 11.52364,84.99553 10.90625,80.30065 10.90625,83.05079 0,1.33833 -0.40781,8.37585 -0.9082,15.63867 -0.80274,11.65102 -2.08472,30.73176 -6.4043,95.38086 -0.62582,9.36637 -1.31175,19.34505 -1.52344,22.17383 -0.46145,6.16644 -0.49517,11.15208 -0.0937,13.48632 1.02365,5.9532 3.87619,11.24729 7.9375,15.3086 L 453.4688,728.32812 c 4.59177,4.59178 10.72845,7.6075 17.50977,8.21485 1.1621,0.10411 76.1242,0.17222 166.58203,0.15234 155.37587,-0.034 164.57428,-0.0574 166.39257,-0.43359 11.74911,-2.43066 20.53997,-11.20791 22.78126,-22.74805 0.50056,-2.57732 0.39785,-7.98489 -0.35743,-19.00976 -0.37465,-5.46896 -1.91719,-28.40729 -3.42968,-50.97461 -1.51247,-22.56731 -3.31655,-49.32436 -4.00782,-59.46094 l -1.25586,-18.43164 2.63672,-19.74414 c 1.45107,-10.85919 4.49051,-33.42335 6.75391,-50.14453 7.88774,-58.27132 9.57471,-70.94144 9.72461,-73.07422 0.18673,-2.65642 -0.51872,-7.50475 -1.53711,-10.57227 -1.19789,-3.60817 -3.12968,-6.88162 -5.69336,-9.70703 -0.54159,-0.59689 -0.78389,-0.87178 -1.03711,-1.125 l -10.84375,-10.84375 -0.004,-12.70508 c -0.003,-9.46718 -0.0991,-16.8162 -0.23242,-17.7539 -0.89446,-6.29132 -3.81072,-11.91035 -8.08398,-16.1836 L 573.19336,107.60938 c -4.19667,-4.19668 -9.70214,-7.09538 -15.88672,-8.060552 -1.45394,-0.226885 -12.2425,-0.302444 -75.65234,-0.300781 z"
       id="path2292"
       inkscape:connector-curvature="0"
       transform="matrix(0.26458334,0,0,0.26458334,0,138.25001)"
       style="display:inline;opacity:0.19696972"
       clip-path="url(#clipPath2726)" />
    <path
       transform="matrix(0.26458334,0,0,0.26458334,-1.1002547e-6,138.25001)"
       inkscape:connector-curvature="0"
       id="path850"
       d="m 481.6543,99.248047 c -21.13662,5.54e-4 -48.11983,0.01062 -82.55274,0.02539 l -156.01172,0.06641 -2.05664,0.488281 c -10.22189,2.425012 -17.90007,9.325692 -21.14258,19.003902 -1.34627,4.01834 -1.375,4.48115 -1.375,22.47266 v 16.42187 l 362.99805,-0.0234 -0.004,-16.15624 c -0.003,-9.46718 -0.0991,-16.81621 -0.23243,-17.75391 -1.7729,-12.46989 -11.48867,-22.29618 -23.9707,-24.244139 -1.45394,-0.226885 -12.2425,-0.302444 -75.65234,-0.300781 z M 309.19727,113.625 c 3.98652,-0.008 7.15494,1.29725 9.89843,4.08203 3.51712,3.57005 4.83193,8.14259 3.77539,13.12891 -1.13911,5.37603 -5.66575,9.75078 -11.16797,10.79101 -0.98541,0.18631 -2.22087,0.3306 -2.74414,0.32032 -2.95038,-0.0578 -6.82079,-1.60664 -9.11328,-3.64454 -3.70327,-3.29198 -5.57447,-8.65037 -4.6582,-13.33984 0.54544,-2.79155 1.728,-4.95067 3.89844,-7.11914 2.98502,-2.98231 5.92832,-4.20994 10.11133,-4.21875 z m 180.69531,0.0449 c 1.9733,-0.0711 4.21844,0.1567 5.51953,0.61328 3.58894,1.25941 6.38188,3.76126 8.02734,7.19141 1.13661,2.36932 1.50019,3.83744 1.49414,6.04297 -0.0161,6.22884 -4.04043,11.80664 -9.83984,13.63867 -1.69829,0.53649 -4.63677,0.89411 -5.58594,0.67969 -0.25144,-0.0568 -1.02337,-0.2144 -1.71484,-0.34961 -3.65309,-0.71427 -7.60344,-3.69035 -9.34766,-7.04297 -1.22029,-2.34555 -1.61869,-4.12823 -1.61523,-7.22266 0.002,-1.99867 0.10745,-2.82213 0.51367,-4.01367 1.59163,-4.66872 6.06597,-8.5798 10.71094,-9.36328 0.55213,-0.0931 1.18012,-0.15013 1.83789,-0.17383 z m -280.10742,49.72266 c -4.26079,4.26077 -8.57734,10.33325 -10.04102,17.08984 -0.17218,0.79483 -0.29338,2.81372 -0.28906,4.80078 0.007,3.20728 0.519,7.20146 7.92578,61.83203 11.52364,84.99552 10.90625,80.30065 10.90625,83.05079 0,1.33833 -0.40781,8.37585 -0.9082,15.63867 -0.80274,11.65102 -2.08472,30.73176 -6.4043,95.38086 -0.62582,9.36637 -1.31175,19.34506 -1.52344,22.17383 -0.46145,6.16644 -0.49512,11.15208 -0.0937,13.48632 2.181,12.68397 12.66802,22.3789 25.44727,23.52344 1.1621,0.10411 76.1242,0.17222 166.58203,0.15234 155.37587,-0.034 164.57429,-0.0574 166.39258,-0.43359 11.7491,-2.43066 20.53997,-11.20791 22.78125,-22.74805 0.50056,-2.57732 0.39785,-7.98489 -0.35743,-19.00976 -0.37465,-5.46896 -1.91719,-28.40729 -3.42968,-50.97461 -1.51247,-22.56731 -3.31655,-49.32436 -4.00782,-59.46094 l -1.25585,-18.43164 2.63671,-19.74414 c 1.45107,-10.85919 4.49051,-33.42335 6.75391,-50.14453 7.88774,-58.27132 9.57471,-70.94144 9.72461,-73.07422 0.18673,-2.65642 -0.51872,-7.50475 -1.53711,-10.57227 -1.19789,-3.60817 -3.12968,-6.88162 -5.69336,-9.70703 -1.28183,-1.4127 -0.89101,-1.01719 -2.92187,-2.8164 z m 279.96679,79.16406 c 0.78658,-0.0142 1.00779,0.056 1.00196,0.24414 -0.005,0.17253 0.0575,38.7621 0.13867,85.75391 0.11642,67.32036 0.0881,85.51117 -0.13281,85.77734 -0.24248,0.28817 -1.79886,0.33789 -10.72852,0.33789 -5.74692,0 -10.51776,-0.0685 -10.60156,-0.15234 -0.0838,-0.0838 -0.15235,-32.79524 -0.15235,-72.69141 0,-68.93209 -0.0183,-72.53779 -0.39843,-72.53711 -0.22002,3.5e-4 -9.75479,3.14176 -21.1875,6.98047 -11.4327,3.83871 -20.92262,6.92669 -21.08789,6.86328 -0.44162,-0.1691 -0.44258,-18.70072 -0.002,-19.0664 0.16435,-0.1364 5.53868,-2.09571 11.94336,-4.35547 51.30509,-18.10196 48.0478,-16.99308 50.21875,-17.11328 0.39987,-0.0221 0.72609,-0.0363 0.98828,-0.041 z m -145.47265,0.0937 c 3.47567,-0.0256 6.99543,0.0728 8.875,0.30664 21.2774,2.64684 35.33897,13.98288 40.10351,32.33008 1.36619,5.26095 1.61328,7.37191 1.61328,13.77344 0,6.25623 -0.15856,7.48019 -1.53125,11.76757 -1.67763,5.23978 -4.65749,10.15567 -8.98828,14.83008 -2.96713,3.20256 -8.68819,7.4401 -12.73828,9.43555 -1.95679,0.96411 -2.40343,1.44664 -1.59961,1.72266 0.22002,0.0755 1.40443,0.53521 2.63281,1.02148 1.2284,0.48625 2.40152,0.88281 2.60743,0.88281 0.46612,0 5.80502,3.50253 7.95898,5.22071 7.83707,6.25145 12.31737,14.21582 13.9707,24.83984 0.57838,3.71658 0.52402,10.87529 -0.11328,15.08594 -1.94666,12.86129 -7.76179,22.94721 -17.40039,30.17773 -3.36196,2.52203 -8.7141,5.38736 -13.0293,6.97656 -4.47096,1.64657 -10.5178,2.90774 -16.34374,3.40821 -5.59156,0.4803 -11.60229,0.21204 -17.48633,-0.7793 -9.67915,-1.63072 -18.74909,-5.48289 -25.31055,-10.75 -3.71552,-2.98257 -7.5624,-7.37606 -10.00781,-11.43164 -2.94773,-4.88864 -5.09518,-11.61761 -5.81446,-18.2207 -0.35854,-3.29166 -0.32116,-4.90137 0.11915,-5.07032 0.19887,-0.0763 4.75628,-0.13867 10.12695,-0.13867 7.29009,0 9.83428,0.0686 10.03906,0.27344 0.15087,0.15087 0.27539,0.83202 0.27539,1.51367 0,1.82525 0.62614,5.72869 1.2832,7.9961 0.71664,2.47292 2.00719,5.25249 3.44336,7.41406 1.41012,2.12237 4.74956,5.46418 6.86719,6.87109 7.33254,4.87157 17.47803,6.81822 27.59961,5.29883 12.58958,-1.8899 20.8773,-8.69208 23.99219,-19.69336 1.19413,-4.21747 1.38694,-5.78686 1.38867,-11.27539 10e-4,-5.70719 -0.34421,-8.17713 -1.70508,-12.20312 -2.90793,-8.60281 -10.03356,-14.78053 -20.08984,-17.41797 -5.02785,-1.31863 -7.28349,-1.51924 -18.4961,-1.63477 -9.52006,-0.0981 -10.36539,-0.13731 -10.56054,-0.50195 -0.25373,-0.47409 -0.10481,-15.32893 0.15625,-15.58008 0.0976,-0.0939 4.49893,-0.21707 9.77929,-0.27344 10.23774,-0.10931 12.03636,-0.26305 16.56641,-1.4082 2.48892,-0.62919 4.91757,-1.54461 7.38281,-2.78516 6.53227,-3.28711 11.79384,-9.753 13.54102,-16.64062 1.11046,-4.37756 1.30534,-11.37245 0.45117,-16.19141 -2.15308,-12.14725 -9.07646,-19.30119 -21.01367,-21.71289 -2.19478,-0.44341 -3.24787,-0.51034 -8.01367,-0.51172 -6.18887,-0.002 -8.14977,0.2552 -12.15039,1.59375 -7.17243,2.39979 -12.31079,6.67862 -15.65821,13.03711 -1.97092,3.74382 -3.09741,7.79614 -3.36523,12.11133 l -0.14258,2.28516 -10.1582,0.0605 c -5.7304,0.0336 -10.24642,-0.0296 -10.36133,-0.14453 -0.28122,-0.28122 0.20618,-5.74259 0.77734,-8.70898 1.61018,-8.36263 5.85672,-16.25291 12.0625,-22.41211 7.63621,-7.57889 17.86639,-12.4829 29.85352,-14.3125 1.70467,-0.26019 5.13565,-0.40997 8.61133,-0.43555 z"
       style="display:inline;opacity:1;fill:#f4f4f4;fill-opacity:1;stroke-width:0.22858758" />
  </g>
</svg>
