<?xml version="1.0" encoding="UTF-8" standalone="no"?>
<svg
   xmlns:dc="http://purl.org/dc/elements/1.1/"
   xmlns:cc="http://creativecommons.org/ns#"
   xmlns:rdf="http://www.w3.org/1999/02/22-rdf-syntax-ns#"
   xmlns:svg="http://www.w3.org/2000/svg"
   xmlns="http://www.w3.org/2000/svg"
   xmlns:sodipodi="http://sodipodi.sourceforge.net/DTD/sodipodi-0.dtd"
   xmlns:inkscape="http://www.inkscape.org/namespaces/inkscape"
   width="800"
   height="600"
   viewBox="0 0 211.66667 158.75"
   version="1.1"
   id="svg8"
   inkscape:version="1.0 (4035a4fb49, 2020-05-01)"
   sodipodi:docname="GoogleTranslate.svg">
  <defs
     id="defs2">
    <clipPath
       id="clipPath1753"
       clipPathUnits="userSpaceOnUse">
      <path
         inkscape:transform-center-y="71.218484"
         inkscape:transform-center-x="-71.634927"
         id="path1755"
         style="display:inline;fill:#f4f4f4;fill-opacity:1;stroke-width:0.104189"
         d="m 57.90795,165.59421 c -2.186271,-0.0189 -4.332809,1.09886 -5.602923,2.87307 -0.880433,1.21547 -1.35486,2.72149 -1.315461,4.2219 0.0021,23.53232 -0.0035,47.06477 0.0035,70.59709 0.04563,1.74417 0.809469,3.44118 2.039623,4.67112 L 195.96162,390.88575 c 0.30053,0.30164 0.62958,0.57402 0.98242,0.81333 1.22548,0.84258 2.72611,1.26574 4.20982,1.20674 h 29.78334 l 19.62893,19.62895 c 0.90799,-1.00248 1.81559,-2.00517 2.72352,-3.00768 l 3.00767,3.00768 c 13.55263,-0.003 27.10408,0.004 40.65559,-0.003 2.21943,-0.0568 4.36946,-1.25995 5.58049,-3.12097 0.74908,-1.13866 1.14567,-2.50754 1.10781,-3.87104 -0.003,-23.18171 0.003,-46.36331 -0.003,-69.54391 -0.0456,-1.70743 -0.79674,-3.3638 -1.99994,-4.56701 L 158.70826,188.5 c -0.26825,-0.26936 -0.55976,-0.51525 -0.87141,-0.73452 -1.26555,-0.90714 -2.83943,-1.35812 -4.39215,-1.29245 H 119.21227 L 98.333452,165.59421 Z" />
    </clipPath>
  </defs>
  <sodipodi:namedview
     inkscape:document-rotation="0"
     inkscape:guide-bbox="true"
     showguides="true"
     inkscape:snap-global="false"
     inkscape:snap-object-midpoints="true"
     inkscape:snap-nodes="true"
     inkscape:window-maximized="1"
     inkscape:window-y="670"
     inkscape:window-x="0"
     inkscape:window-height="712"
     inkscape:window-width="1366"
     inkscape:pagecheckerboard="true"
     units="px"
     showgrid="true"
     inkscape:current-layer="layer1"
     inkscape:document-units="px"
     inkscape:cy="266.3798"
     inkscape:cx="443.49141"
     inkscape:zoom="0.5"
     inkscape:pageshadow="2"
     inkscape:pageopacity="0.0"
     borderopacity="1.0"
     bordercolor="#666666"
     pagecolor="#ffffff"
     id="base">
    <inkscape:grid
       id="grid815"
       type="xygrid"
       units="px"
       spacingy="39.6875"
       spacingx="52.916667"
       empspacing="2" />
    <sodipodi:guide
       inkscape:locked="false"
       id="guide5335"
       orientation="0,1"
       position="162.52976,127.75595" />
    <sodipodi:guide
       inkscape:locked="false"
       id="guide5337"
       orientation="0,1"
       position="176.13691,31.75" />
  </sodipodi:namedview>
  <metadata
     id="metadata5">
    <rdf:RDF>
      <cc:Work
         rdf:about="">
        <dc:format>image/svg+xml</dc:format>
        <dc:type
           rdf:resource="http://purl.org/dc/dcmitype/StillImage" />
        <dc:title />
      </cc:Work>
    </rdf:RDF>
  </metadata>
  <g
     transform="translate(0,-138.25001)"
     id="layer1"
     inkscape:groupmode="layer"
     inkscape:label="Tile">
    <rect
       inkscape:label="Background"
       id="rect817"
       y="138.25002"
       x="0"
       height="158.75"
       width="211.66667"
       style="display:inline;opacity:1;fill:#4285f4;fill-opacity:1;stroke:none;stroke-width:0.264583;stroke-opacity:1" />
    <rect
       inkscape:transform-center-y="0.00096246152"
       inkscape:transform-center-x="-0.003923753"
       clip-path="url(#clipPath1753)"
       style="display:inline;opacity:0.339286;fill:#000000;fill-opacity:1;stroke:none;stroke-width:0.264583;stroke-opacity:1"
       width="211.66667"
       height="158.75"
       x="0"
       y="138.25002"
       id="rect1158"
       inkscape:label="Shadow mask" />
    <path
       inkscape:transform-center-y="-0.24579047"
       inkscape:transform-center-x="-0.17041254"
       d="m 57.907992,165.59401 c -2.186362,-0.018 -4.33285,1.09931 -5.602987,2.87381 -0.880462,1.21445 -1.354577,2.7206 -1.31522,4.22108 0.002,23.53232 -0.0039,47.0647 0.003,70.59698 0.0568,2.17196 1.226593,4.26879 3.022957,5.48464 1.225043,0.84261 2.725337,1.26608 4.209784,1.2064 14.339434,0 28.678867,0 43.018294,0 2.13127,6.54303 4.26255,13.08606 6.39381,19.62909 5.92516,-6.54303 11.85031,-13.08606 17.77547,-19.62909 -0.35112,-1.28737 -0.83133,-2.57309 -1.21972,-3.86001 -8.61996,-26.84098 -17.23993,-53.68194 -25.859895,-80.5229 -13.475151,0 -26.950304,0 -40.425455,0 z m 22.28612,25.99522 c 3.097064,-0.0147 6.207258,0.86463 8.790063,2.58571 0.74267,0.48949 1.444102,1.04115 2.097713,1.64432 -1.430907,1.37529 -2.861814,2.75058 -4.292721,4.12586 -1.622566,-1.51939 -3.79878,-2.4149 -6.016246,-2.51816 -2.333721,-0.1339 -4.70592,0.56753 -6.581418,1.96526 -2.235255,1.64518 -3.76156,4.21475 -4.136082,6.96503 -0.387746,2.70387 0.307035,5.55383 1.937211,7.75101 1.655768,2.26599 4.27086,3.82832 7.071207,4.11977 1.623093,0.17435 3.287214,-4.5e-4 4.834376,-0.52287 1.848262,-0.64098 3.4838,-1.905 4.515836,-3.57298 0.697209,-1.10534 1.155751,-2.36959 1.271663,-3.67432 -3.160407,-0.003 -6.320815,-0.007 -9.481222,-0.01 0,-1.85458 0,-3.70916 0,-5.56374 5.070544,0 10.14109,0 15.211635,0 0.343501,1.45856 0.450951,2.96745 0.354379,4.46164 -0.168835,3.09122 -1.102847,6.18394 -2.925682,8.70859 -1.870505,2.6306 -4.692518,4.53934 -7.797653,5.39273 -2.507465,0.70199 -5.173899,0.8382 -7.739802,0.39559 -3.703843,-0.65942 -7.146607,-2.66266 -9.559465,-5.54796 -2.34448,-2.77787 -3.715664,-6.36201 -3.802647,-9.99771 -0.109692,-3.63239 1.045716,-7.29031 3.236041,-10.19182 2.441208,-3.2703 6.14961,-5.57696 10.176372,-6.26854 0.935882,-0.16482 1.886198,-0.24699 2.836442,-0.24739 z m 30.575268,-5.11565 c 2.63886,8.21704 5.2777,16.43409 7.91656,24.65113 3.18326,0 6.36652,0 9.54979,0 0,-2.19495 0,-4.38992 0,-6.58487 2.12543,0 4.25086,0 6.3763,0 0,2.19495 0,4.38992 0,6.58487 6.54655,0 13.09312,0 19.63967,0 0,1.35793 0,2.71584 0,4.07376 -0.58171,-0.0199 -1.16586,-0.006 -1.7487,-0.01 -2.35855,0 -4.7171,0 -7.07565,0 -0.4497,2.77881 -1.61235,5.38492 -2.98789,7.82064 -1.67712,2.93964 -3.71042,5.66083 -5.88896,8.24527 3.89649,4.1658 8.04798,8.08389 12.26519,11.92137 0.20741,0.0971 0.2988,0.32964 0.0552,0.44074 -1.04711,1.04711 -2.09421,2.09421 -3.14132,3.14133 -4.20213,-3.91735 -8.31287,-7.93745 -12.2111,-12.15902 -1.77514,1.87596 -3.62359,3.68385 -5.56205,5.39105 -0.54226,-1.69638 -1.0914,-3.39056 -1.63366,-5.08694 1.44254,-1.1877 2.81253,-2.46203 4.12213,-3.79445 -2.14818,-2.53889 -4.23669,-5.15054 -5.92815,-8.02196 -0.57942,-1.00683 -1.13856,-2.04695 -1.42559,-3.17956 -0.034,-0.19768 0.20745,-0.0876 0.32027,-0.11338 1.65343,0 3.30686,0 4.96029,0 0.12741,0.80047 0.53299,1.51926 0.91418,2.22273 0.933,1.64513 2.0769,3.15955 3.26404,4.62742 0.32478,0.36484 0.56879,0.81149 0.97113,1.10083 2.57739,-3.111 4.85606,-6.51897 6.35604,-10.28595 0.29202,-0.74034 0.55064,-1.49407 0.76798,-2.25974 -6.88341,0 -13.76682,0 -20.65023,0 3.72299,11.59282 7.44601,23.18562 11.16901,34.77845 -0.34238,0.31783 -0.63299,0.69815 -0.95854,1.03649 -5.61228,6.19752 -11.22456,12.39507 -16.83684,18.5926 13.55197,-0.002 27.10399,0.004 40.65592,-0.003 2.21906,-0.0572 4.36969,-1.26032 5.5801,-3.12116 0.74888,-1.13864 1.14573,-2.50786 1.1074,-3.87111 -0.002,-23.18161 0.003,-46.36327 -0.003,-69.54485 -0.055,-2.08884 -1.16818,-4.10103 -2.8719,-5.30081 -1.26536,-0.90711 -2.83887,-1.35755 -4.39202,-1.29151 -14.22522,-1.3e-4 -28.45045,-2.6e-4 -42.67569,-3.8e-4 z m 2.59863,83.13243 C 97.305741,251.61615 81.243471,233.62629 65.181201,215.63643 c 16.06227,17.98986 32.12454,35.97972 48.186809,53.96958 z"
       style="display:inline;fill:#f4f4f4;fill-opacity:1;stroke-width:0.104189"
       id="polygon849" />
  </g>
</svg>
