<?xml version="1.0" encoding="UTF-8" standalone="no"?>
<!-- Created with Inkscape (http://www.inkscape.org/) -->

<svg
   xmlns:dc="http://purl.org/dc/elements/1.1/"
   xmlns:cc="http://creativecommons.org/ns#"
   xmlns:rdf="http://www.w3.org/1999/02/22-rdf-syntax-ns#"
   xmlns:svg="http://www.w3.org/2000/svg"
   xmlns="http://www.w3.org/2000/svg"
   xmlns:xlink="http://www.w3.org/1999/xlink"
   xmlns:sodipodi="http://sodipodi.sourceforge.net/DTD/sodipodi-0.dtd"
   xmlns:inkscape="http://www.inkscape.org/namespaces/inkscape"
   width="800"
   height="600"
   viewBox="0 0 211.66667 158.75"
   version="1.1"
   id="svg8"
   inkscape:version="0.92.4 5da689c313, 2019-01-14"
   sodipodi:docname="IggGames.svg">
  <defs
     id="defs2">
    <linearGradient
       id="a">
      <stop
         id="stop821"
         offset="0" />
    </linearGradient>
    <linearGradient
       xlink:href="#a"
       gradientUnits="userSpaceOnUse"
       y2="28.2285"
       y1="28.2285"
       x2="93.488"
       x1="73.607"
       id="e" />
    <linearGradient
       xlink:href="#a"
       gradientUnits="userSpaceOnUse"
       y2="28.442"
       y1="28.442"
       x2="70.615"
       x1="46.385"
       id="d" />
    <linearGradient
       xlink:href="#a"
       gradientUnits="userSpaceOnUse"
       y2="28.4415"
       y1="28.4415"
       x2="41.311"
       x1="17.357"
       id="c" />
    <linearGradient
       xlink:href="#a"
       gradientUnits="userSpaceOnUse"
       y2="28.259"
       y1="28.259"
       x2="10.541"
       id="b" />
    <clipPath
       clipPathUnits="userSpaceOnUse"
       id="clipPath1574">
      <rect
         style="display:inline;opacity:0.95999995;fill:#35bf5c;fill-opacity:1;stroke:none;stroke-width:1;stroke-opacity:1"
         width="800"
         height="600"
         x="1.7725923e-15"
         y="1.9875739e-05"
         id="rect1576"
         inkscape:label="Shadow mask" />
    </clipPath>
  </defs>
  <sodipodi:namedview
     id="base"
     pagecolor="#ffffff"
     bordercolor="#666666"
     borderopacity="1.0"
     inkscape:pageopacity="0.0"
     inkscape:pageshadow="2"
     inkscape:zoom="0.49497475"
     inkscape:cx="205.65646"
     inkscape:cy="326.2433"
     inkscape:document-units="px"
     inkscape:current-layer="layer1"
     showgrid="false"
     units="px"
     inkscape:pagecheckerboard="true"
     inkscape:window-width="1366"
     inkscape:window-height="712"
     inkscape:window-x="0"
     inkscape:window-y="26"
     inkscape:window-maximized="1"
     inkscape:snap-nodes="false"
     inkscape:snap-object-midpoints="true"
     inkscape:snap-global="false"
     showguides="false"
     inkscape:guide-bbox="true">
    <inkscape:grid
       id="grid815"
       type="xygrid"
       units="px"
       spacingy="39.6875"
       spacingx="52.916667"
       empspacing="2" />
    <sodipodi:guide
       inkscape:locked="false"
       id="guide5335"
       orientation="0,1"
       position="162.52976,127.75595" />
    <sodipodi:guide
       inkscape:locked="false"
       id="guide5337"
       orientation="0,1"
       position="176.13691,31.75" />
  </sodipodi:namedview>
  <metadata
     id="metadata5">
    <rdf:RDF>
      <cc:Work
         rdf:about="">
        <dc:format>image/svg+xml</dc:format>
        <dc:type
           rdf:resource="http://purl.org/dc/dcmitype/StillImage" />
        <dc:title />
      </cc:Work>
    </rdf:RDF>
  </metadata>
  <g
     inkscape:label="Tile"
     inkscape:groupmode="layer"
     id="layer1"
     transform="translate(0,-138.25001)">
    <rect
       style="display:inline;opacity:1;fill:#0b729f;fill-opacity:1;stroke:none;stroke-width:0.26458335;stroke-opacity:1"
       width="211.66667"
       height="158.75"
       x="0"
       y="138.25002"
       id="rect817"
       inkscape:label="Background" />
    <path
       style="display:inline;opacity:0.34343435;fill:#000000;fill-opacity:1;stroke:none;stroke-width:0;stroke-linecap:butt;stroke-linejoin:miter;stroke-miterlimit:4;stroke-dasharray:none;stroke-opacity:1"
       d="m 188.98438,216.34766 c -15.9286,0 -31.85743,15.92879 -31.85743,31.85742 v 0.1289 l -31.93164,-31.93164 v 39.82227 L 85.373047,216.40234 v 167.25 L 462.19922,760.47852 h 39.82226 v -51.76368 l 41.80469,41.80469 c 5.97513,5.97513 13.94435,9.95899 21.91016,9.95899 h 199.10742 c 15.92855,0 31.85547,-15.9288 31.85547,-31.85743 l 0.0215,-19.88281 41.78125,41.78125 c 5.97559,5.97559 13.94589,9.95899 21.91211,9.95899 h 199.10742 c 15.9285,0 31.8574,-15.9288 31.8574,-31.85743 l 0.074,-71.73242 -23.8437,-23.84375 23.7695,0.006 0.074,-39.875 -376.82613,-376.82617 -0.0742,39.87305 -191.05664,-0.041 -39.83398,-39.83398 c -15.92859,0 -31.85742,15.92879 -31.85742,31.85742 l -31.85742,-31.85547 -0.0742,39.87305 -191.05469,-0.041 z"
       id="path1437"
       inkscape:connector-curvature="0"
       inkscape:label="shadow"
       transform="matrix(0.26458334,0,0,0.26458334,0,138.25001)"
       clip-path="url(#clipPath1574)" />
    <path
       inkscape:label="logo"
       inkscape:connector-curvature="0"
       id="path4569"
       d="m 50.001881,195.49221 c -4.214441,0 -8.428879,4.21443 -8.428879,8.42888 l -0.01974,27.40784 c -0.0032,4.21445 4.214438,8.42888 8.42888,8.42888 h 52.680498 c 4.21443,0 8.42887,-4.21443 8.42887,-8.42888 l 0.0197,-18.97897 -48.485803,0.0141 v 10.5361 h 37.929943 c 0,3.05456 -3.208662,6.32165 -6.321652,6.32165 H 58.411005 c -3.296133,0 -6.321651,-3.23623 -6.321658,-6.32165 v -10.5361 c -10e-6,-3.18716 3.039204,-6.3339 6.294083,-6.33318 l 52.70807,0.0115 0.0197,-10.55009 z m 77.967139,0 c -4.21444,0 -8.42889,4.21443 -8.42889,8.42888 l -0.0197,27.40784 c -0.004,4.21445 4.21443,8.42888 8.42888,8.42888 h 52.6805 c 4.21443,0 8.42888,-4.21443 8.42888,-8.42888 l 0.0197,-18.97897 -48.48581,0.0141 v 10.5361 h 37.92996 c 0,3.05456 -3.20867,6.32165 -6.32165,6.32165 h -35.82275 c -3.29614,0 -6.32165,-3.23623 -6.32165,-6.32165 v -10.5361 c -1e-5,-3.18716 3.03918,-6.3339 6.29406,-6.33318 l 52.70808,0.0115 0.0197,-10.55009 z m -105.380754,0.014 v 44.25162 h 10.5361 v -44.25162 z"
       style="display:inline;opacity:1;fill:#f4f4f4;fill-opacity:1;stroke:none;stroke-width:0;stroke-linecap:butt;stroke-linejoin:miter;stroke-miterlimit:4;stroke-dasharray:none;stroke-opacity:1" />
  </g>
</svg>
