<?xml version="1.0" encoding="UTF-8" standalone="no"?>
<!-- Created with Inkscape (http://www.inkscape.org/) -->

<svg
   xmlns:dc="http://purl.org/dc/elements/1.1/"
   xmlns:cc="http://creativecommons.org/ns#"
   xmlns:rdf="http://www.w3.org/1999/02/22-rdf-syntax-ns#"
   xmlns:svg="http://www.w3.org/2000/svg"
   xmlns="http://www.w3.org/2000/svg"
   xmlns:sodipodi="http://sodipodi.sourceforge.net/DTD/sodipodi-0.dtd"
   xmlns:inkscape="http://www.inkscape.org/namespaces/inkscape"
   width="800"
   height="600"
   viewBox="0 0 211.66667 158.75"
   version="1.1"
   id="svg8"
   inkscape:version="0.92.4 5da689c313, 2019-01-14"
   sodipodi:docname="ING.svg">
  <defs
     id="defs2">
    <style
       id="style820"
       type="text/css" />
    <clipPath
       clipPathUnits="userSpaceOnUse"
       id="clipPath3317">
      <rect
         inkscape:label="Shadow mask"
         id="rect3319"
         y="1.9875739e-05"
         x="0"
         height="600"
         width="800"
         style="display:inline;opacity:0.95999995;fill:#35bf5c;fill-opacity:1;stroke:none;stroke-width:1;stroke-opacity:1" />
    </clipPath>
  </defs>
  <sodipodi:namedview
     id="base"
     pagecolor="#ffffff"
     bordercolor="#666666"
     borderopacity="1.0"
     inkscape:pageopacity="0.0"
     inkscape:pageshadow="2"
     inkscape:zoom="0.7"
     inkscape:cx="293.16071"
     inkscape:cy="264.88051"
     inkscape:document-units="px"
     inkscape:current-layer="layer1"
     showgrid="true"
     units="px"
     inkscape:pagecheckerboard="true"
     inkscape:window-width="1366"
     inkscape:window-height="712"
     inkscape:window-x="0"
     inkscape:window-y="26"
     inkscape:window-maximized="1"
     inkscape:snap-nodes="false"
     inkscape:snap-object-midpoints="true"
     inkscape:snap-global="true"
     showguides="true"
     inkscape:guide-bbox="true">
    <inkscape:grid
       id="grid815"
       type="xygrid"
       units="px"
       spacingy="39.6875"
       spacingx="52.916667"
       empspacing="2" />
    <sodipodi:guide
       inkscape:locked="false"
       id="guide5335"
       orientation="0,1"
       position="162.52976,127.75595" />
    <sodipodi:guide
       inkscape:locked="false"
       id="guide5337"
       orientation="0,1"
       position="176.13691,31.75" />
  </sodipodi:namedview>
  <metadata
     id="metadata5">
    <rdf:RDF>
      <cc:Work
         rdf:about="">
        <dc:format>image/svg+xml</dc:format>
        <dc:type
           rdf:resource="http://purl.org/dc/dcmitype/StillImage" />
        <dc:title />
      </cc:Work>
    </rdf:RDF>
  </metadata>
  <g
     inkscape:label="Tile"
     inkscape:groupmode="layer"
     id="layer1"
     transform="translate(0,-138.25001)">
    <rect
       style="display:inline;opacity:0.95999995;fill:#f57c00;fill-opacity:1;stroke:none;stroke-width:0.26458335;stroke-opacity:1"
       width="211.66667"
       height="158.75"
       x="0"
       y="138.25002"
       id="rect817"
       inkscape:label="Background" />
    <path
       style="font-size:14px;font-family:Roboto;text-anchor:middle;display:inline;overflow:visible;opacity:0.13636361;fill:#000000;fill-opacity:0.95686275;fill-rule:nonzero;stroke:none;stroke-width:9.34244823;stroke-linecap:round;stroke-linejoin:round"
       d="m 255.26367,107.45703 2.56055,2.56055 c 2.06109,3.19071 1.4814,7.20698 1.42383,10.85937 l -11.3086,-11.30859 c -5.65219,0.18671 -11.21094,2.03651 -15.69531,5.34375 v 1.06445 l 6.05469,6.05469 c -5.53442,-0.69418 -10.16057,-2.80237 -16.03516,-2.91992 l -0.79687,-0.79492 -0.0137,-0.0137 c -0.18621,-0.18633 -0.45401,-0.2786 -0.73828,-0.26953 -3.21381,1.49481 -6.09125,3.73591 -8.4082,6.31446 -7.23104,5.27848 -12.70573,12.61262 -15.69531,21.04882 l 2.9414,2.94141 c -2.30648,1.96231 -4.21115,4.70936 -7.14453,5.43945 v 15.75 c -4.2041,3.31654 -7.44723,7.66071 -9.34375,12.63086 -5.17571,16.62958 -6.27734,35.53936 -6.27734,56.58789 l 32.09766,32.09766 c -1.39272,1.00526 -2.74923,2.0685 -4.04297,3.2168 v 3.37304 l -23.93555,-23.93554 c -0.16736,0.13311 -0.3312,0.27384 -0.49805,0.4082 l -8.84375,-8.84375 v 16.84375 l 6.24219,6.24219 c -2.48287,1.51688 -4.1434,4.19312 -4.2793,7.23047 0,4.20412 1.0918,8.40803 1.0918,12.63086 -0.16815,1.47609 0.1876,2.9699 1.00977,4.20312 l 4.73632,4.73633 -2.59765,2.59766 24.99219,24.99218 c -0.78763,0.65216 -1.52928,1.30879 -2.23438,1.97852 l -23.8125,-23.8125 c 4.20411,21.20738 10.55606,41.91826 18.9082,61.8457 -8.4082,13.63994 -17.74954,39.82801 -24.12109,65.00586 l 10.81055,10.81055 -2.43164,-0.41211 c -6.53972,0.88751 -10.57435,0.8873 -15.88086,7.24023 -0.33475,0.38347 -0.65281,0.80037 -0.95899,1.23828 l -10.62695,-10.62695 h -11.49023 c -0.0138,0.0137 -0.0253,0.0312 -0.0391,0.0449 l -5.13672,-5.13672 c -6.14733,-3.1017 -13.54784,-2.28004 -18.87304,2.10157 -9.34245,8.4082 -9.3418,12.63014 -9.3418,18.9082 l 5.40234,5.40234 -1.34765,1.66993 v 16.8457 c 0.14089,0.58348 0.32729,1.14942 0.54883,1.69726 L 101.2168,468.42188 c -0.53256,8.50163 1.6806,16.96474 6.31445,24.12109 L 592.86328,977.875 h 159.41016 c -1.06507,-3.51281 -2.80308,-6.77276 -5.13867,-9.60352 -1.46121,-2.92238 -1.79037,-6.28833 -1.72852,-9.68945 l 19.26367,19.26367 h 12.63086 L 756.5625,957.10742 c -0.0309,-1.42678 0.15397,-2.92743 0.63477,-4.52344 0.46823,-0.51853 1.189,-0.91154 2.01367,-1.2832 l 26.32226,26.32227 h 8.40821 c 0,-2.36178 0.0671,-4.80343 0.16797,-7.26758 l 7.25781,7.25781 h 7.32422 c 0.34901,-1.04496 0.74944,-2.14254 1.16406,-3.25586 l 3.2832,3.2832 h 122.54492 c -2.10206,-4.20408 -4.20399,-7.32386 -5.25976,-9.34179 L 872.5918,910.4668 872.30859,908.10938 893.69922,929.5 c -0.5884,-0.8839 -1.0819,-1.74817 -1.54883,-2.55859 l 2.54883,2.54882 c 0.0151,-1.08022 10e-4,-2.16009 0,-3.24023 l 51.33594,51.33594 h 9.34375 l -15.61133,-15.61133 c -0.53207,-2.45312 -0.9012,-4.94447 -1.05664,-7.46484 0,-0.0156 0.002,-0.0387 0.002,-0.0547 l 23.1582,23.1582 h 11.53711 l 0.34961,-6.15234 6.04102,6.04101 h 65.00592 c 7.474,-0.11149 14.7407,-2.29012 21.0469,-6.27929 h 12.6308 c 26.2336,0 47.1623,-7.32337 66.0528,-26.23243 25.0377,-25.18726 39.6582,-64.93088 39.6582,-103.7207 -0.3735,-47.17939 -19.2452,-92.30303 -52.5977,-125.68359 L 646.26367,230.25391 c 0.25413,0.25434 0.49951,0.51578 0.75195,0.77148 l -0.75195,-0.75195 c -4.32426,-4.32427 -8.82678,-8.00553 -13.34961,-11.42774 l -48.70898,-48.70898 c -3.64097,-3.64097 -7.81337,-6.71903 -12.38281,-9.11914 l 3.1582,9.3418 h -1.05469 l -10.7168,-10.7168 c -1.58229,-1.5823 -3.84258,-2.286 -6.05273,-1.86719 -16.84448,-3.15776 -32.51242,6.27751 -49.30078,9.3418 v 2.10351 l 12.66601,12.66602 c 1.94418,3.45394 3.77491,6.8872 6.23633,9.34766 l 8.32813,8.32812 c -0.026,-0.0127 -0.0544,-0.0221 -0.0801,-0.0352 l -2,-2 -1.05664,1.05664 145.76953,145.76954 c 0.0114,0.71316 0.0293,1.42544 0.0293,2.13867 0,23.02445 -3.87747,41.98207 -10.07032,57.25976 L 551.68164,287.75586 c -11.53795,-11.53788 -24.17054,-21.04688 -37.89453,-21.04688 -6.27817,0 -12.63033,-10e-4 -16.84375,5.23047 -0.15308,0.12973 -0.29652,0.2688 -0.44531,0.40235 L 351.16602,127.00977 c -1.86338,-1.86339 -3.95156,-3.55019 -6.32618,-5.01563 l -3.1582,2.10156 h -2.10742 l -5.875,-5.875 c -2.80677,-2.80675 -6.90319,-4.14639 -10.91797,-3.58789 -0.34016,0.11372 -0.69622,0.26028 -1.05859,0.41602 l -5.55469,-5.55469 c -6.31551,2.01797 -5.25977,6.2215 -5.25977,9.3418 l 16.47071,16.4707 c -1.31673,-0.009 -2.56003,0.20159 -3.73633,0.57227 l -26.38477,-26.38477 c -0.52666,2.73081 -1.64309,4.89921 -2.5957,6.95117 l -4.78516,-4.78515 c -4.20409,1.05577 -9.47242,4.20507 -11.53711,4.20507 -8.4082,-4.20408 -18.90943,-8.4082 -23.07617,-8.4082 z"
       id="path1152"
       inkscape:connector-curvature="0"
       transform="matrix(0.26458334,0,0,0.26458334,0,138.25001)"
       clip-path="url(#clipPath3317)" />
    <path
       inkscape:label="Logo"
       style="font-size:14px;font-family:Roboto;text-anchor:middle;display:inline;overflow:visible;fill:#f4f4f4;fill-opacity:0.95686275;fill-rule:nonzero;stroke:none;stroke-width:2.47185612;stroke-linecap:round;stroke-linejoin:round"
       inkscape:connector-curvature="0"
       d="m 170.99063,199.17632 c -3.88821,-3.88821 -8.32272,-5.82614 -11.65233,-9.70201 a 20.738873,20.738873 0 0 1 -4.16753,-5.56909 c -1.09503,-1.24584 -2.40761,-2.28154 -3.87588,-3.05275 l 0.83548,2.47185 h -0.27931 a 6.9953531,6.9953531 0 0 1 -3.88824,-1.66109 l 1.11234,-1.11233 c -0.42021,-0.46225 -1.04807,-0.67233 -1.66107,-0.55617 -4.45677,-0.83549 -8.60207,1.66109 -13.04399,2.47185 v 0.55617 c 2.77341,0.83549 3.34195,4.16756 5.00302,5.82616 h 1.6611 c 0.55617,0 1.38422,0.55617 1.93792,0.55617 a 5.5616766,5.5616766 0 0 0 -0.55617,-1.66107 1.0381796,1.0381796 0 0 1 1.6611,0 c 1.38423,0.83548 3.34196,-0.55618 4.71136,1.66107 -1.6166,-0.15566 -3.24556,0.13359 -4.71136,0.83549 0,0.27931 0.8355,0.8256 0.55617,1.38425 -1.39166,-0.55617 -3.05275,0 -3.60892,-1.11234 l -0.27932,0.27933 a 15.64685,15.64685 0 0 0 6.6839,4.45675 c 3.60892,0.55616 6.6839,-1.11234 10.25821,-0.27932 12.76714,6.10548 21.63368,20.53124 21.63368,34.95698 0,20.53124 -11.65233,28.84162 -19.13957,28.84162 -1.62154,-0.0816 -3.17882,-0.66247 -4.45675,-1.66108 a 40.785626,40.785626 0 0 0 1.38175,-11.37301 c 0,-11.93165 -4.71136,-24.68644 -11.14065,-31.34809 -3.05275,-3.05273 -6.39471,-5.5691 -10.02585,-5.5691 -1.6611,0 -3.34195,0 -4.45675,1.38425 -1.37683,1.16673 -2.10108,2.92669 -1.95277,4.72126 a 15.597413,15.597413 0 0 1 -8.5996,2.49656 17.747928,17.747928 0 0 1 -10.53751,-3.87587 v -4.15272 c -0.82558,-0.27931 -3.60889,-1.93792 -2.22465,-3.34195 0.63772,0.23236 1.23591,0.61303 1.67098,1.11234 -0.27932,-1.93792 -0.27932,-4.15273 -1.67098,-5.82617 -0.78358,0.0545 -1.56221,-0.14088 -2.22467,-0.55617 -0.97886,-0.84783 -1.57706,-2.05164 -1.6611,-3.34194 0.82561,1.38424 2.22468,0.83548 3.05276,1.66109 -1.39166,-3.34196 -0.83549,-4.71136 -3.34195,-9.70203 -0.55617,-2.47187 -3.05276,-3.87588 -4.69654,-5.5691 -0.835495,-0.55617 -1.112345,-1.39166 -2.224679,-1.39166 -1.112336,-0.27931 -1.112336,-1.66109 -1.112336,-2.47184 0.580901,0.22246 1.137051,0.4993 1.661102,0.83549 -1.661102,-3.88825 -2.773436,-8.04344 -6.382339,-10.27058 l -0.835485,0.55618 h -4.45675 a 20.170347,20.170347 0 0 1 2.496568,-1.39167 c -0.741556,-0.85279 -1.903323,-1.27052 -3.040382,-1.11234 -0.835484,0.27932 -1.937933,1.11234 -3.052744,1.11234 h -0.08897 c 0,-0.82558 -0.279326,-1.93792 1.391652,-2.47184 a 15.201915,15.201915 0 0 0 -5.00304,0 c -0.266964,1.38423 -1.112334,2.22466 -1.112334,3.34195 -0.741557,0.67974 -1.369413,1.42624 -1.952763,2.22467 0,-1.66109 0.825598,-3.34196 1.112334,-4.99317 -1.112334,0.27934 -2.506462,1.11233 -3.052743,1.11233 -2.22467,-1.11233 -5.00304,-2.22464 -6.105489,-2.22464 1.670978,1.11231 0.835494,3.05272 1.112335,4.45675 l -1.112335,-0.55617 c -0.279317,-1.11234 -1.661083,-1.93794 -1.937933,-3.34195 -1.495475,0.0494 -2.966227,0.53886 -4.152717,1.4139 v 0.2818 a 3.6830657,3.6830657 0 0 1 2.496576,1.66107 c -1.937941,0 -3.341956,-0.83549 -5.270003,-0.83549 0.0025,-0.0741 -0.02475,-0.14838 -0.0742,-0.20268 -0.04943,-0.0545 -0.123595,-0.0816 -0.202686,-0.0791 -0.850322,0.3955 -1.611651,0.98873 -2.224677,1.67097 -1.913214,1.3966 -3.361722,3.33702 -4.152716,5.5691 0.568528,-0.0667 1.14447,0.0322 1.661087,0.27931 -1.112334,0.27932 -1.661087,1.6611 -2.773423,1.93795 v 4.16755 c -1.112335,0.8775 -1.970068,2.02692 -2.471856,3.34194 -1.369408,4.39991 -1.661087,9.40294 -1.661087,14.97203 a 2.2246705,2.2246705 0 0 1 -1.381767,1.67098 v 4.45676 c 0.781107,-0.79841 1.614122,-1.54244 2.471856,-2.22468 v 3.56443 c -1.09256,0.1927 -1.90333,1.11974 -1.952768,2.22467 0,1.11234 0.289208,2.22466 0.289208,3.34195 -0.04449,0.39055 0.04943,0.78604 0.266961,1.11233 0.140904,-0.70201 0.69212,-1.25076 1.391656,-1.39164 a 2.422419,2.422419 0 0 1 1.661087,-0.5463 c -0.741557,0.91953 -1.277951,1.95276 -1.661087,3.05276 l -0.825602,0.82558 a 2.768479,2.768479 0 0 0 -0.279319,0.83549 c 1.112336,5.61112 2.793199,11.09122 5.003037,16.36369 -2.22467,3.6089 -4.696526,10.53753 -6.382332,17.19917 A 6.8717603,6.8717603 0 0 0 40.3728,250.24241 6.154922,6.154922 0 0 0 35.916043,252.739 c -1.626481,-0.82066 -3.58419,-0.60313 -4.993149,0.55617 -2.471856,2.22467 -2.471856,3.34194 -2.471856,5.00301 a 5.6358323,5.6358323 0 0 0 -1.670975,3.88825 c -0.140905,2.24939 0.444935,4.48888 1.670975,6.38233 h 42.177283 c -0.281793,-0.92943 -0.741557,-1.7921 -1.359518,-2.54107 -0.835494,-1.67098 -0.279326,-3.88822 -0.279326,-5.5691 0.756386,-1.66603 1.685807,-3.25049 2.773427,-4.72124 0.279317,-0.83547 0,-0.83547 0.279317,-1.11233 l 1.977487,-0.55616 c 1.112334,0 1.937934,-0.8355 3.341948,-0.8355 0.835485,1.39166 0.835485,-0.8256 2.22467,-1.38424 3.052744,-0.55617 6.115374,0 7.798706,2.22467 0.04943,0.28675 0.13595,0.56854 0.266963,0.82561 h -1.47075 c -1.661092,-0.82561 -3.599025,-1.67098 -5.569093,-0.82561 0,0.82561 -0.266964,0.82561 -0.266964,1.66111 v 1.38422 c 1.112334,0 1.937933,1.11233 3.040382,1.66109 a 4.844838,4.844838 0 0 1 3.341947,-1.66109 3.1145387,3.1145387 0 0 1 3.341957,3.05275 v 3.05272 c 1.141994,0.9146 2.466909,1.582 3.888229,1.93796 a 2.0516405,2.0516405 0 0 1 -2.227145,1.1148 h -2.22467 c -0.482013,-0.16316 -0.815712,-0.6056 -0.835486,-1.11233 -0.746499,1.053 -1.394128,2.17028 -1.937941,3.34194 H 119.1558 c -0.55617,-1.11233 -1.11231,-1.93794 -1.39165,-2.47185 a 18.934419,18.934419 0 0 1 -0.55615,-5.56908 l 3.04034,-4.16756 c 1.67098,0 3.05275,-0.55618 6.10549,-0.83549 0.55617,-0.83549 0,-1.38425 2.47187,-1.38425 1.34469,-0.0203 2.67948,0.26698 3.89811,0.83549 0.27931,0.32134 0.27931,0.79595 0,1.11233 -0.55616,0.54382 -1.66109,-0.55617 -2.48422,-0.27932 -0.55616,0.55617 0.26696,0.82561 0.26696,1.38426 0.55617,0.55617 -2.47186,-0.55618 -2.47186,-0.55618 0,0 -0.55616,1.67097 -0.83547,2.22468 l 1.66107,1.67098 c 0.55617,0.82558 -0.8256,1.66107 -0.8256,2.47184 -0.55616,-0.27931 -1.67097,-1.11233 -1.67097,-0.82559 -0.55617,2.22468 0,4.15273 -0.27932,6.38234 h 3.05274 l 0.26697,-4.70148 c 0.27932,-2.77342 3.60889,-7.79871 5.5691,-7.79871 1.01839,0.0741 1.98737,0.46472 2.7734,1.11234 0.55617,1.11233 1.93796,1.66109 1.93796,2.22467 0,0.56358 -0.82314,0.83549 -2.22469,0.83549 -0.55616,0 -0.55616,-0.83549 -1.39165,-1.39166 l -1.66109,1.67097 c 0,0 1.9775,1.66108 1.9775,2.77341 a 3.2134131,3.2134131 0 0 1 -1.11482,2.77344 l -1.6611,-3.34194 c -0.83548,0 -2.22466,1.66107 -2.22466,2.47184 0,1.11234 -0.55617,1.67098 -0.55617,3.34195 h 17.19918 c 1.9775,-0.0295 3.90058,-0.6056 5.56909,-1.66107 h 3.34195 c 6.94097,0 12.47793,-1.93795 17.47602,-6.94097 6.62458,-6.66413 10.49304,-17.17941 10.49304,-27.44255 -0.0988,-12.48288 -5.09203,-24.42195 -13.91657,-33.25389 z m -27.13604,-14.48506 c -0.55617,-0.8355 -1.38422,0 -1.93792,0 a 2.595449,2.595449 0 0 1 -1.93792,-0.8355 c 1.66107,0 2.47184,-0.83548 3.87584,-1.39165 1.11234,0.83548 2.22467,1.11233 3.05276,2.22467 z m 8.91104,4.15271 c -0.82558,-1.11233 -1.97747,-2.47184 -3.05273,-2.47184 0.82312,0 1.93793,-0.83549 3.34195,-0.83549 0.55617,1.38423 1.66108,2.22468 1.93794,3.34194 l 0.2793,1.66109 a 2.9662274,2.9662274 0 0 0 -2.58554,-1.62649 z m -45.8529,36.66258 -1.38424,0.55617 a 8.08297,8.08297 0 0 1 -5.826168,-1.93794 4.844838,4.844838 0 0 0 2.506458,-1.38175 c 1.3002,1.31502 2.91682,2.26667 4.70148,2.76352 z m -14.425749,-3.05274 c -1.384242,0.27931 -2.471862,-1.11234 -3.888229,-1.67098 -0.556168,-1.66107 -0.556168,-3.34194 -1.112335,-4.15272 1.112335,0.82561 3.608911,0.82561 3.040382,3.34195 0.01238,0.82561 1.124697,1.38424 1.960182,2.48422 z m 0,9.15823 a 16.83334,16.83334 0 0 1 3.052744,1.66108 h -0.835494 c -3.052735,1.11234 -5.569084,-0.83549 -8.043413,-2.47186 a 14.60867,14.60867 0 0 1 4.990678,-0.82561 z m 0.556167,-4.45675 a 10.332359,10.332359 0 0 1 3.052744,-1.11481 c 1.112335,1.11231 2.22467,3.05273 4.167558,4.16754 -1.112338,0 -3.052756,0 -4.167558,-0.83549 -1.151888,-0.52898 -2.190067,-1.27795 -3.052744,-2.2049 z m -3.055211,17.21151 c 0.07418,-1.0011 0.721776,-1.87118 1.661083,-2.22467 1.661092,0.55617 3.052744,-3.05273 4.696514,-1.11233 a 6.9211974,6.9211974 0 0 0 2.227145,0.27932 c 1.977491,0.83548 2.471871,2.47187 3.341961,3.88824 -1.38424,0 -2.50645,0 -3.341961,-1.39165 -0.279317,0 -0.82559,-0.82562 -1.112335,-0.27932 -1.384233,1.11233 -2.773418,-0.8355 -4.456749,-0.55618 a 5.4628023,5.4628023 0 0 1 -3.040382,1.66108 z m 13.842383,-29.39777 c -0.27931,1.11233 -1.39165,0 -1.66109,0 h -2.506459 c -0.29661,-0.40539 -0.48941,-0.88245 -0.556147,-1.38425 1.112306,-0.27932 1.937926,-0.83548 2.785776,-0.27932 0.5438,0.82561 1.11232,1.66111 1.93792,1.66111 z m -5.269986,-11.93165 a 8.2807184,8.2807184 0 0 0 1.114798,2.22715 c 1.112338,-0.55617 1.112338,0.83548 1.391658,1.11233 0.40045,0.78604 0.68224,1.63142 0.83549,2.47185 -1.67098,0 -2.506461,-0.83549 -3.341946,-2.47185 -0.140884,-1.11233 -0.140884,-2.2321 0,-3.34194 z m -2.224678,13.59026 2.763532,2.47187 c -1.661092,0 -3.599017,0.83549 -4.45675,-0.83549 a 9.5908017,9.5908017 0 0 0 1.705588,-1.6611 z m -0.266973,-21.07752 c 0,0.27931 -0.55615,2.77344 -0.55615,2.77344 l -2.22467,0.55616 1.384225,-6.10548 c 0.583376,0.86514 1.055502,1.79454 1.404023,2.77341 z M 56.706858,175.29821 c 0.657515,0.0182 1.28537,-0.29663 1.661092,-0.83549 1.391652,-0.27932 2.224669,-1.66109 3.888228,-0.83548 1.055485,0.11112 2.086246,0.39548 3.052745,0.83548 -0.0692,0.5265 0.140901,1.05054 0.556168,1.38424 1.661082,0 1.661082,1.67096 2.471852,3.05275 a 6.896479,6.896479 0 0 0 2.227146,0.27931 c 1.661082,0.55617 3.052734,0.55617 3.599016,1.39166 a 10.208766,10.208766 0 0 1 6.92862,-1.39166 c 0.457296,-1.08268 0.830541,-2.22468 1.112334,-3.34194 0.279318,0.83548 0.279318,0 0.835486,0 1.112334,-0.8355 2.506463,-2.22468 4.456758,-1.66111 1.112335,0.82561 3.040382,0.27932 4.167546,1.66111 0.835493,1.11233 1.384242,2.7734 2.22467,4.16755 -0.835484,1.66107 0,3.88822 -1.661084,4.69652 l -1.670977,1.66107 c -0.543805,0 -0.543805,0.55617 -1.384234,0.55617 0.835486,1.93795 0.279318,4.71136 -0.556167,6.6839 0.556167,-0.2793 1.391653,-0.2793 1.391653,-1.11233 a 1.5325508,1.5325508 0 0 1 0,1.1148 v 0.83549 c -0.123597,1.50042 -0.823132,2.89207 -1.952772,3.88823 -0.556159,1.66109 -1.937934,3.87588 -3.875867,4.15273 v 0.55617 c 3.984633,0.0617 7.892634,1.11233 11.370532,3.05273 v 1.97255 a 25.039904,25.039904 0 0 0 -11.140646,-3.60891 c 0.09145,0.65999 -0.0052,1.32985 -0.279326,1.93793 3.341957,1.67098 6.372453,3.05275 9.145871,5.56909 v 2.47187 c -2.785781,-2.77343 -5.826163,-5.5691 -9.435074,-6.38233 -0.266964,0.55616 -1.384243,1.11233 -1.661093,2.22467 -1.829167,-1.52515 -3.994518,-2.59547 -6.315593,-3.11949 -0.823122,0 -1.384233,-3.05275 -1.384233,-3.05275 a 4.5729339,4.5729339 0 0 0 2.719035,-2.75117 h 1.112343 c 0.825599,0 0.825599,-0.55618 0.825599,-1.39166 0,-1.66108 -3.599026,-1.66108 -5.270003,-1.66108 -1.977479,0 -3.341948,0 -4.45675,0.8256 -0.556168,0 -0.266964,0.83548 -0.266964,1.39164 0.197743,0.34608 0.482011,0.63032 0.823131,0.8355 0.556167,0 1.112335,-0.55618 1.661083,-0.55618 -0.279317,1.67099 0.279318,2.47186 1.977488,3.34196 l -0.266964,2.78578 c -3.341948,0 -5.569094,1.39165 -8.043422,2.47187 -0.790988,-0.60562 -1.448503,-1.35954 -1.937934,-2.22467 -3.341947,1.11233 -9.158225,5.56909 -9.158225,5.56909 v -1.9775 c 2.506464,-2.22468 5.826164,-3.34194 8.330159,-4.71136 v -1.93792 c -1.112334,-0.55617 -2.224677,0 -3.341956,0 a 13.150275,13.150275 0 0 0 -6.696255,2.8179 9.9615809,9.9615809 0 0 0 -0.27932,-1.93793 c 3.052743,-1.67096 6.940973,-3.05275 10.537523,-2.47184 v -1.13706 c -0.234829,-0.57842 -0.234829,-1.41389 -0.790997,-1.41389 -1.661083,-1.66111 -3.341947,-4.15273 -3.341947,-5.82618 l 1.112334,-0.55617 c -0.556167,-1.66109 -1.112334,-5.82615 0,-7.20794 a 9.4424905,9.4424905 0 0 1 -3.888229,-3.34194 c -0.627851,-1.23098 -1.092561,-2.53858 -1.384239,-3.88823 0.847847,-1.63637 1.36941,-2.2049 2.224667,-3.86599 z m 25.801243,51.86696 c -1.416376,-0.83549 -3.888238,-1.11234 -3.344424,-2.77591 0.420219,-0.90963 1.09503,-1.68085 1.937934,-2.22465 a 14.707544,14.707544 0 0 0 1.404015,5.00302 z m -17.199178,-8.04341 -0.835493,3.60889 c -0.934357,-1.63636 -1.589404,-3.41857 -1.937934,-5.26999 z m -3.599025,4.45674 a 9.5413652,9.5413652 0 0 1 -4.456759,-3.60891 c -0.506728,-1.04314 -0.790996,-2.18265 -0.835485,-3.34195 a 2.6448862,2.6448862 0 0 1 2.227138,1.38177 v 0.27932 c 1.39166,1.67098 2.773426,3.06511 3.065106,5.27988 z m -3.052745,3.34196 a 5.7099879,5.7099879 0 0 1 -1.937933,3.87587 c -0.353473,0.30156 -0.724251,0.58088 -1.112335,0.83549 0,-1.66109 0.835484,-3.05276 0.835484,-4.45675 0.823132,-0.27934 1.636369,-0.83551 2.204898,-0.27934 z m 2.773427,3.34196 c 0.279318,-0.27933 0.556168,0 1.112336,0 l -1.112336,4.15269 c -1.384241,1.11233 -3.341956,0.55616 -4.993154,0.55616 2.204898,-0.59323 3.865982,-3.08487 4.980792,-4.74595 z M 51.716184,186.3919 c 0.452348,-0.89481 1.013461,-1.7303 1.661086,-2.47187 v 3.31723 l -1.937936,0.55618 z m 0,5.56909 2.224669,-0.83548 -1.433676,1.64873 c 0.279319,2.77341 -0.825599,4.69652 -0.825599,7.20792 l -1.391656,-4.45675 c 0.276847,-1.26559 0.758859,-2.47681 1.426262,-3.5842 z m -0.321343,32.15144 a 3.8313769,3.8313769 0 0 1 1.381769,-1.93794 c 0.835487,0.27932 1.384239,0.27932 2.471857,0.55616 -1.391656,1.38425 -2.785783,1.97748 -3.34195,3.60891 -0.01235,-0.7737 -0.197744,-1.53255 -0.533922,-2.22466 z m -17.715792,37.18164 c -0.598191,-0.37818 -1.250759,-0.65748 -1.937936,-0.82558 -0.835488,1.66107 0,2.77341 0,4.71136 -0.01235,0.56851 -0.106294,1.12963 -0.279319,1.67096 -0.97144,-0.38066 -1.693222,-1.21121 -1.937936,-2.22466 v -4.45676 l 2.471857,-3.0651 c 1.483112,0.79841 2.209837,2.57567 1.661086,4.18978 z m 6.394692,0 c -0.279322,-1.11233 -1.112336,-2.47184 -2.506462,-2.47184 -1.112336,2.22468 -1.384239,3.05273 -0.279321,6.38233 -0.716838,0.71683 -1.569628,1.28536 -2.506462,1.67097 -0.454822,-1.33975 -0.642683,-2.75611 -0.556167,-4.16755 -0.01985,-1.88849 0.264489,-3.76959 0.835488,-5.5691 0.823127,-0.82311 1.391653,-2.22467 2.224669,-3.05273 h 3.040385 c -1.384242,0 -1.384242,1.38423 -1.384242,2.22468 0.835487,0.27932 1.937936,0.55616 1.937936,1.93792 a 5.6358323,5.6358323 0 0 1 -0.813241,3.06264 z m 6.903894,3.88082 c 0,-1.38422 0.823128,-3.05274 0.823128,-4.71136 -0.60066,-0.6056 -1.38424,-0.99862 -2.224671,-1.11232 -0.622907,0.4647 -1.028292,1.16177 -1.112335,1.93793 -0.835488,1.6611 -2.471857,3.34195 -2.773422,4.99314 -0.07416,0.004 -0.148313,-0.0247 -0.197743,-0.0741 -0.04943,-0.0493 -0.08157,-0.12368 -0.0791,-0.20271 0,-2.77342 0.27932,-7.48971 1.977484,-9.43506 1.404015,-1.68088 2.471857,-1.68088 4.202156,-1.9157 l 1.384239,0.23482 -1.112334,1.6611 c 1.112334,0.55617 2.773423,1.67097 2.773423,3.34194 0.0099,2.22468 -3.599022,5.30212 -3.599022,5.30212 z m 10.537525,-5.27 -1.977487,-5.02527 c -2.224671,-2.22468 -4.711359,-2.47187 -6.105484,-3.59902 -1.112337,-0.27932 -1.112337,0.55616 -1.661089,0 -0.06673,-0.82808 0.234827,-1.64379 0.825599,-2.22467 h 1.626483 l 1.670975,0.83548 c 0.870093,0.8701 2.78578,0.8701 2.78578,2.5287 -0.135944,0.61797 0.07415,1.26066 0.556169,1.67099 l 2.785781,0.79099 0.266964,2.22467 z m 3.052744,-5.02527 c -0.556176,-0.82562 0,-2.22468 -0.825607,-3.05275 0,-0.55616 0.556167,-0.83549 0.279326,-1.11234 -0.279326,-0.55617 -3.608912,-1.67098 -3.608912,-1.67098 -1.268064,-0.83548 -2.471858,-1.76242 -3.608913,-2.77341 -1.112334,-0.27932 -1.937932,0.27933 -3.341949,0.55617 v -0.55617 c 0.556168,-1.11234 0.556168,-2.47186 2.224672,-2.47186 0.914587,-0.15324 1.846477,0.16072 2.484216,0.83549 1.112335,0 1.670978,1.11233 2.506462,1.38424 1.006044,0.96403 2.125798,1.80444 3.341948,2.47187 a 1.6561437,1.6561437 0 0 0 0.835484,1.66108 c 1.661093,0 1.112336,1.66109 1.661093,2.77342 z m 3.052736,-6.33784 c -0.556168,-1.93795 -1.937934,-3.88825 -3.599017,-3.88825 -0.828075,-0.68221 -1.500419,-1.53253 -1.972544,-2.47183 -0.835486,-0.83549 -1.661084,0 -2.773424,-0.83549 a 5.7347064,5.7347064 0 0 0 -3.599023,0.83549 v -0.81079 l 1.937936,-2.22466 c 1.937934,0.27931 4.456759,0 4.993154,1.39164 a 10.826731,10.826731 0 0 1 3.052736,2.22715 v 0.83549 c 0.543814,0.27932 1.661091,0.55617 2.224669,0.82314 0,0.83548 -0.266955,4.16754 -0.266955,4.16754 z m 3.040382,-13.59025 c -1.275476,0.28424 -2.600391,0.28424 -3.875867,0 0.835485,-0.55617 1.661083,-0.82562 2.78578,-1.66111 l 2.22467,-2.22467 h 2.22467 c -0.835486,1.67097 -1.693219,3.33207 -3.361721,3.88823 z m 0.835493,-12.47794 c 0.870087,-0.084 1.745125,0.10867 2.471852,0.55616 0,1.39165 0.556168,2.47184 0.556168,4.15272 -1.661084,-1.67098 -3.052745,-3.0651 -3.052745,-4.69652 z m 0.835484,16.64301 c 0.266964,-0.82562 1.112336,-1.11235 1.661093,-1.93796 0.741556,-0.95166 1.394119,-1.97748 1.937933,-3.05273 a 4.6718083,4.6718083 0 0 1 3.052735,-0.83549 c -0.279316,1.66111 -1.112334,2.22468 -2.506454,4.15272 -0.815712,0.55617 -2.484214,0.82312 -4.145307,1.66109 z m 3.875876,5.26999 -1.661092,-2.22468 h 4.212043 l 0.835485,1.6611 c -0.956604,0.75638 -2.237032,0.96402 -3.386436,0.55617 z m 1.937933,-16.3637 -0.494373,-2.78578 c 1.062895,-0.65999 2.002202,-1.50781 2.763532,-2.47184 -0.03215,1.97748 -0.311453,4.43451 -2.22467,5.26999 z m 3.341949,-14.42574 c -0.279318,0 0,0.82559 -0.279318,0.82559 a 24.273627,24.273627 0 0 0 -0.556168,2.77344 c -0.825607,0.53392 -1.858834,0.63772 -2.773427,0.27932 v -0.83549 c -0.227409,-0.71685 -0.321338,-1.47324 -0.279316,-2.22468 l -0.279318,-0.27932 a 1.186491,1.186491 0 0 0 -0.790997,1.39165 4.1527185,4.1527185 0 0 0 -0.823131,1.93794 3.8808141,3.8808141 0 0 1 -2.518825,-0.82559 v -2.47187 c 0,-0.54381 0,-0.54381 -0.279318,-0.54381 l -1.384232,1.38426 c -1.112336,-0.83549 -1.384243,-3.05276 -1.384243,-4.45676 4.456759,-2.47187 10.025853,-1.671 13.313417,-0.27933 0.556168,0.27933 1.112335,0.27933 1.661092,0.55616 -0.279326,1.66109 -0.825599,4.16756 -2.471861,5.26999 a 4.1279998,4.1279998 0 0 0 -1.137051,-2.47432 z m 4.993152,29.95889 a 8.6267782,8.6267782 0 0 1 -2.773427,-1.39166 5.883018,5.883018 0 0 1 -0.279316,-1.67097 h 2.22467 l 1.384241,3.05275 h -0.556168 z m 0,-7.49714 a 29.266776,29.266776 0 0 1 -4.456758,-5.27 l 4.456758,0.83549 a 38.65983,38.65983 0 0 1 3.341949,3.34194 c -0.976386,0.69214 -2.143104,1.07526 -3.341949,1.09257 z m 3.052736,-10.53753 c -1.67097,-2.47185 -0.835484,-4.69652 0,-6.6839 0.494374,1.54492 0.840437,3.1195 1.112335,4.71136 0.279326,1.11235 1.937942,1.6611 2.471861,2.47187 -1.112334,0.31144 -3.065097,0.87009 -3.608911,-0.52404 z m 1.112335,24.68644 1.384242,-3.34196 c 0.84538,-0.12367 1.680865,-0.30899 2.471862,-0.55616 0.914582,-0.21751 1.848948,-0.31146 2.785779,-0.27931 v 0.27931 c 3.065098,0 6.683899,-0.27931 8.911037,2.22468 l 0.26696,2.22465 c -1.11235,-0.83548 -2.773417,-0.83548 -3.341956,-2.22465 a 12.359281,12.359281 0 0 0 -3.341948,-0.27932 c -1.186482,0.22987 -2.392745,0.32134 -3.599017,0.27932 -0.279317,0 0,-0.27932 -0.556167,-0.55617 -1.680856,0.56852 -3.341949,0.56852 -5.012926,2.22465 z m 8.91105,10.27056 -0.835484,0.82561 c -0.823132,-0.82561 -0.279327,-3.05276 -1.661093,-3.34195 -1.384241,0 -2.506463,-1.39165 -3.040382,-1.66109 l 1.112336,-0.55618 a 1.3348024,1.3348024 0 0 1 1.114802,0 c 0.556166,0.55618 1.112334,0.82562 1.112334,1.38424 0.556168,0.83549 1.384242,0 1.977479,0.83549 a 4.1279998,4.1279998 0 0 1 0.200193,2.49657 z m 8.60204,-0.55617 c -0.55616,-1.66108 -1.11233,-4.15273 -3.05273,-4.15273 a 3.6830657,3.6830657 0 0 0 -1.661085,-2.49656 l -2.224683,-0.26697 c 0.279326,1.11234 1.937951,1.11234 0.82314,2.77344 1.112343,0.82559 1.937929,0.82559 2.506458,2.22467 0.54381,0.82559 0,1.93792 0.26696,2.47185 l -1.661075,0.82561 c 0,-1.39166 0.27932,-4.16756 -1.6611,-4.69654 -1.661075,0.55616 -1.937925,-1.66109 -3.052736,-2.47185 -0.556167,0 -0.556167,-1.39166 -1.391652,-0.83549 -1.384241,0.83549 -3.040391,0 -4.456759,0.83549 l 1.391653,-2.22467 c 1.112335,-0.8355 2.22467,-0.55617 3.341947,-0.8355 l 2.224661,-0.27932 c 2.22467,0 4.152723,1.11234 6.382361,1.93795 1.0876,0.4746 1.73027,1.5894 1.66107,2.77341 0.55616,0.27932 1.6611,0.27932 1.6611,1.11234 -0.46965,1.07526 -0.85033,2.18513 -1.14696,3.3197 z m 3.88825,-4.15273 c -0.55617,-0.83548 -0.82561,-1.66107 -1.39165,-1.66107 0.83548,-3.05275 -0.82313,-5.56909 -1.38426,-8.04343 v -0.84783 c 0.83549,1.39165 3.04039,2.77341 2.77344,4.16754 0.20761,2.12084 0.29662,4.25159 0.26695,6.38233 z m -2.77344,-34.68014 2.22468,-1.11233 c 0.74157,0.61303 1.58199,1.0802 2.47187,1.38425 a 3.78194,3.78194 0 0 1 -4.76822,-0.26696 z m 18.86026,4.45676 c 0.61796,0.48202 1.17907,1.03819 1.66107,1.6611 v 2.22467 c -2.50646,-1.39166 -3.88822,-3.88824 -6.10548,-6.38234 2.18265,-0.0247 2.71905,2.195 4.39991,2.47185 z m -12.4878,0.55617 c 0.83548,0.83548 1.97748,1.93794 1.97748,2.77343 a 2.2246705,2.2246705 0 0 1 -1.11481,1.66107 c -0.49436,-0.56851 -0.87009,-1.2285 -1.11233,-1.93792 -0.0741,-0.84786 0.004,-1.70062 0.23482,-2.5213 z m 2.50646,20.81303 a 5.4380837,5.4380837 0 0 0 -1.39166,-4.15519 c 0,-0.55616 0.8355,-0.55616 0.27933,-1.38424 0,0 -1.66111,-0.83549 -1.66111,-1.93793 0,-1.10246 1.11234,-1.93794 1.66111,-2.77343 0,-0.27932 1.11233,0.55617 1.11233,2.22467 a 4.1032812,4.1032812 0 0 1 -0.27931,1.66109 c -0.27933,0.83549 1.66107,0.83549 1.66107,1.67099 -0.0446,1.6067 -1.16177,2.99589 -1.42626,4.65697 z m 3.05273,-11.93164 c -0.12853,0.55369 -0.56111,0.98873 -1.11233,1.11233 a 6.7976047,6.7976047 0 0 1 -1.67098,-2.77343 c -0.26695,-1.11232 0.83549,-3.05273 0.83549,-3.05273 0.27934,0 0.54383,0.5438 0.83549,0.5438 0.27934,0.27931 0,1.11234 0.27934,1.93794 0.79097,0.53393 1.33479,1.64873 0.79097,2.20489 z m 2.47185,14.48507 c 0.55617,-1.39166 0.55617,-4.16754 0,-4.16754 -0.54381,-0.27931 -1.66107,0 -1.66107,-0.55617 0,-0.83549 0.27932,-1.93795 0.27932,-2.47186 0,-1.11234 -0.83549,-1.67099 -0.83549,-2.22468 0,-1.67098 1.93794,-1.93794 2.47185,-3.05273 0.23236,1.18648 0.32133,2.3977 0.26695,3.6089 0,0.55617 0.83548,2.22468 0,3.60892 0,0.83549 1.67097,0.27932 1.67097,1.11234 -0.0446,1.31502 -1.71547,2.97364 -2.27408,4.08845 z m 4.45676,-6.6839 c -0.8355,0 -0.8355,-0.55617 -0.8355,-1.66108 -0.32875,-1.61166 -0.79099,-3.18869 -1.38423,-4.72126 -0.55618,-2.22467 -1.93794,-4.15271 -3.05273,-6.68389 -0.27931,-1.11234 -1.66109,-1.66107 -2.77342,-2.47185 a 4.9931495,4.9931495 0 0 1 3.88821,1.1148 c 0,0.55617 0.26696,0.83549 1.11234,1.67098 1.97749,0 1.39166,2.47185 3.05273,3.59902 -0.83549,0.83549 -1.11233,1.39166 -1.66107,1.97747 0.82558,0.55617 1.66107,0.82315 1.93792,1.66111 -0.0791,1.62648 -0.35593,3.5644 -0.35593,5.51222 z m 3.88821,-2.77341 c -0.55616,-1.67098 -1.67097,-3.34195 -2.22464,-5.00305 0,-0.27932 -0.27935,-0.27932 0.27931,-0.55617 0.27932,0 1.39166,0 1.39166,0.27933 a 5.3639282,5.3639282 0 0 1 0.82558,2.22713 c -0.0791,1.05797 -0.61302,1.88356 -0.3337,2.99589 z m 14.9844,-8.32275 c -0.55616,-0.55617 0,-1.66108 -1.39165,-1.66108 a 2.9909459,2.9909459 0 0 0 -1.39166,0.82559 c -0.55616,0.27932 -2.22467,-0.82559 -2.22467,0 0,1.39166 -1.11233,1.93795 -2.47184,1.93795 a 3.5347544,3.5347544 0 0 1 -1.67098,-0.27932 v -2.79321 c 3.60891,0 3.34195,-1.11234 4.99314,-1.11234 1.11234,0 1.97748,0.55617 2.77343,0.55617 1.39164,0 0.56853,-0.55617 1.97749,-0.55617 1.40894,0 1.93792,1.11234 2.76353,1.39166 0,0.8256 0.8355,1.93794 0.8355,3.05274 -1.98245,0 -3.95499,-0.55616 -4.21206,-1.39165 z m 1.66109,7.48973 c -0.83549,-0.27932 -2.77342,-0.54383 -2.77342,-1.38424 0,-1.11235 -0.55617,-1.39167 -1.93794,-1.39167 -1.24085,0.0693 -2.46196,0.35349 -3.6089,0.83549 -0.49437,-0.6748 -0.87011,-1.42872 -1.11233,-2.22467 1.25075,-0.4647 2.56578,-0.74155 3.89811,-0.82559 1.93794,0 3.87587,0 3.87587,0.82559 -0.0791,1.05797 1.59186,1.33482 1.59186,4.1107 z m -3.01565,-15.62956 a 17.747928,17.747928 0 0 0 1.95028,-0.55617 c 1.38424,0 2.47186,2.22468 2.76355,3.88824 a 16.388406,16.388406 0 0 0 -7.48727,-2.22713 c -2.0368,0.34605 -3.95495,1.21119 -5.56909,2.47183 l -0.56852,-2.4842 c 1.66108,-0.27932 1.66108,-1.67098 2.77341,-1.67098 0.83549,0 1.93795,-0.27933 2.77344,-0.27933 0.58335,-0.0988 1.14693,-0.28425 1.67098,-0.55615 1.38422,0 0.82558,1.39165 1.69322,1.39165 z m -8.65151,-3.58417 c 0.82313,-0.8355 2.22469,-1.93796 3.34195,-1.93796 1.93793,0 3.60891,1.39166 3.60891,2.77343 -1.67098,0 -1.97749,-0.27931 -3.05274,-0.27931 -1.54491,-0.0741 -3.01567,0.66246 -3.88824,1.93793 a 2.6448862,2.6448862 0 0 1 -0.0446,-2.49657 z m 0.80088,-7.20795 a 2.0763592,2.0763592 0 0 1 2.22714,0 c 0,1.66109 1.93794,0.83548 3.05276,1.38425 a 6.9211974,6.9211974 0 0 1 1.1148,2.49657 c -1.93794,-0.55617 -3.04038,-1.39164 -4.71136,-1.39164 -0.55616,0 -3.05275,0.83547 -3.34195,1.39164 -0.84785,-1.11234 0.5438,-3.33207 1.66108,-3.87586 z m 5.27,42.12044 a 6.4021076,6.4021076 0 0 0 -3.89812,-1.1148 c 0,-1.11234 -0.82559,-2.47187 -1.38423,-2.47187 -1.66109,0 -1.38424,1.11233 -2.77343,1.11233 l 2.47185,-2.47185 c 0.27934,-0.55616 0.27934,-0.55616 0.83549,-0.55616 a 2.9909459,2.9909459 0 0 0 1.95031,0.82559 4.0538441,4.0538441 0 0 1 -0.27934,1.66109 c 0.83549,0.55617 1.39165,-0.27931 1.93794,0.55617 0.83549,0.27931 1.66109,0.55617 1.66109,1.67098 a 2.1257964,2.1257964 0 0 1 -0.54628,0.83548 z m 2.77343,-3.88824 c -1.93795,-0.27932 -1.93795,-2.47184 -2.22467,-2.77341 -1.38425,-1.66111 -3.34196,-0.27932 -4.71136,-0.27932 -0.55617,-1.66109 0.26694,-1.66109 0.26694,-2.77343 0.8355,0 1.67099,-0.55617 2.50647,0 1.39166,-0.55617 2.22467,0.82561 3.60892,0.82561 a 16.932216,16.932216 0 0 0 1.11482,2.22714 11.889628,11.889628 0 0 1 -0.55617,2.81791 z m 1.38422,-5.82616 c -1.93792,0 -0.8231,-3.88822 -4.99314,-3.88822 -0.83549,0 -1.38422,1.38422 -2.47185,1.67097 0,-0.27932 0.27932,-1.93794 0.27932,-1.93794 a 2.5460118,2.5460118 0 0 1 1.39166,-2.22715 c 2.22468,0 1.67097,0.83549 3.34194,1.39166 0.76629,0.44 1.61659,0.72425 2.47185,0.83549 v 4.15271 z m 3.88826,12.75479 c 0,-1.39167 -1.66111,-2.22468 -2.77344,-4.69655 l 1.11233,-1.93792 a 3.5100357,3.5100357 0 0 1 1.95029,2.77341 2.1257964,2.1257964 0 0 0 0,1.38178 c 0,0.27932 0.55617,0.27932 0.55617,0.83549 -0.39548,0.5092 -0.68223,1.09255 -0.84783,1.71546 z m 1.97747,-5.5691 -1.66108,-2.47187 c 0.55614,-0.83548 0.55614,-1.93792 1.38423,-3.34195 a 5.5616766,5.5616766 0 0 1 1.1148,2.22714 c 0.16801,1.28538 -0.13339,2.59545 -0.84783,3.67567 z m -27.19041,5.87066 a 2.422419,2.422419 0 0 1 1.1148,2.22714 3.4111615,3.4111615 0 0 1 -1.1148,2.22715 c -0.55618,-0.55617 -0.55618,-1.38425 -1.11235,-2.22467 -0.55616,0 -0.83548,1.38422 -0.83548,1.93792 0.13339,2.16287 0.80087,4.26148 1.93793,6.10549 h 2.47187 a 48.4731,48.4731 0 0 1 -0.83549,-6.68391 c 0.168,-1.34716 0.5438,-2.65724 1.11234,-3.88821 z m -35.792469,1.68085 c -0.543805,0 -1.937933,0.83549 -1.937933,1.39167 0,1.11232 -0.556168,7.20793 -0.556168,7.20793 h 1.937934 c 0.825598,-2.47187 2.484214,-5.82616 2.484214,-7.20793 0.02475,-1.10245 -0.800882,-1.39167 -1.928047,-1.39167 z m -6.683895,-1.11233 c -0.556168,0 -1.384243,1.67097 -1.384243,2.22467 0.05441,2.55342 0.51909,5.08214 1.384243,7.48974 h 2.22467 c 0,-2.47187 0.279316,-5.27001 0.279316,-7.48974 -0.257068,0 0.301566,0.5438 -2.471852,-2.21724 z m -3.052745,-2.22468 -3.052743,0.55617 c -0.603133,0.60313 -0.993683,1.38425 -1.112336,2.22467 l 1.391652,-0.55616 c 0.40539,0.25706 0.702012,0.65258 0.835494,1.11233 -0.289212,1.39167 -1.977487,1.39167 -2.506463,1.97748 -0.835494,2.77343 1.670969,4.45678 1.977479,6.68391 h 3.341956 a 18.168143,18.168143 0 0 1 -1.661092,-7.20793 c -0.131006,-1.63142 0.16315,-3.26285 0.847847,-4.74597 z m 11.963786,-71.86426 h 0.835485 c 0.835484,-0.83549 1.384241,0 1.937933,-0.83549 a 5.9571736,5.9571736 0 0 0 -0.568521,-5.26999 c -0.543814,-1.11234 -1.937933,-1.6611 -3.341957,-2.77344 l -1.977478,1.11234 a 3.1886944,3.1886944 0 0 0 -1.661092,3.05276 11.024478,11.024478 0 0 1 4.745963,4.71135 z m -11.140663,-1.39165 c 1.384242,0 0.835493,1.93792 1.937942,2.22467 h 2.471853 c 0,-0.83549 -0.279318,-0.83549 -0.556168,-0.83549 -1.384233,0 -1.384233,-2.22467 -2.471852,-1.67097 -0.543814,0 -1.112335,-0.55617 -1.937934,0 0.04445,0.32134 0.04445,0.32134 0.600656,0.32134 z m 0.835493,6.10548 H 77.47787 c 0.494366,2.37297 0.655039,4.79044 0.556167,7.20792 1.280419,0.12368 2.249386,1.23594 2.22467,2.47187 a 19.379353,19.379353 0 0 1 3.341948,1.66107 3.2628501,3.2628501 0 0 0 1.114811,-1.93792 c -1.112335,-1.38424 -3.608912,-0.55617 -3.608912,-3.05275 l -1.661084,-0.55616 c 0.06431,-1.49052 -0.02468,-2.986 -0.279325,-4.45677 l 0.279325,-0.27932 a 2.2246705,2.2246705 0 0 0 0.847848,1.11482 c 1.112335,0 2.22467,0.27931 3.341947,-0.55617 0.556168,-0.27933 0.556168,-1.66108 1.112336,-1.66108 a 1.3100837,1.3100837 0 0 0 1.381766,-0.55617 c 0.301565,-0.45484 0.556167,0 0,-0.27932 l -6.103013,-0.83548 c -0.56853,0.90221 -1.977488,0.90221 -1.977488,1.73771 z m -5.826162,-6.38233 c -0.556176,-0.55617 -2.224678,0.27932 -3.04039,0.55617 -1.001102,0.16071 -1.779736,0.94919 -1.937934,1.95276 h 3.107127 a 8.7503712,8.7503712 0 0 1 1.905799,-2.46197 z m -11.36313,0.27932 a 33.295902,33.295902 0 0 1 5.270004,-3.34196 c -0.279326,-2.77342 -3.341957,-3.05275 -4.696531,-4.16755 h -1.0802 c -2.22467,0.83548 -2.773427,3.05275 -3.040382,4.99314 0.815712,2.56333 2.471853,0.90223 3.608911,2.56333 z m 18.613079,21.13435 3.052745,1.11233 v -1.39164 H 79.737142 Z M 61.981805,187.80084 c -0.01986,0.44494 0.14831,0.88495 0.469649,1.20135 0.321338,0.31638 0.753919,0.48447 1.203796,0.45975 a 1.9774849,1.9774849 0 0 0 1.114802,1.6611 c 0.247192,0.27188 0.600665,0.42021 0.968976,0.42021 0.368302,0 0.716832,-0.15324 0.968966,-0.42021 0.835485,0.55616 1.112335,-0.55617 1.391653,0 0.05683,1.30266 -0.03705,2.60779 -0.279318,3.88822 -0.279326,1.97747 -1.937942,1.66109 -3.341956,2.47185 0,0.83548 -0.825598,2.22467 0,3.05275 0.870095,-0.56853 1.80446,-1.02583 2.785788,-1.36941 a 2.9909459,2.9909459 0 0 1 1.960182,-2.22715 c 0,-2.47184 0.825599,-4.99314 0.825599,-7.48973 -0.187865,-0.7366 -0.699536,-1.34714 -1.391652,-1.66107 h -6.683905 z m 2.471852,15.81989 a 1.6561437,1.6561437 0 0 0 0.835485,1.66109 c 0.692125,-0.62291 1.569631,-0.98874 2.471861,-1.11233 -0.543806,-1.13707 -1.928047,-0.0247 -3.332061,-0.54382 z"
       id="path826" />
  </g>
</svg>
