<?xml version="1.0" encoding="UTF-8" standalone="no"?>
<!-- Created with Inkscape (http://www.inkscape.org/) -->

<svg
   xmlns:dc="http://purl.org/dc/elements/1.1/"
   xmlns:cc="http://creativecommons.org/ns#"
   xmlns:rdf="http://www.w3.org/1999/02/22-rdf-syntax-ns#"
   xmlns:svg="http://www.w3.org/2000/svg"
   xmlns="http://www.w3.org/2000/svg"
   xmlns:sodipodi="http://sodipodi.sourceforge.net/DTD/sodipodi-0.dtd"
   xmlns:inkscape="http://www.inkscape.org/namespaces/inkscape"
   width="800"
   height="600"
   viewBox="0 0 211.66667 158.75"
   version="1.1"
   id="svg8"
   inkscape:version="0.92.4 5da689c313, 2019-01-14"
   sodipodi:docname="KickassTorrents.svg">
  <defs
     id="defs2">
    <clipPath
       clipPathUnits="userSpaceOnUse"
       id="clipPath2678">
      <rect
         inkscape:label="Shadow mask"
         id="rect2680"
         y="138.25002"
         x="0"
         height="158.75"
         width="211.66667"
         style="display:inline;opacity:0.95999995;fill:#35bf5c;fill-opacity:1;stroke:none;stroke-width:0.26458335;stroke-opacity:1" />
    </clipPath>
  </defs>
  <sodipodi:namedview
     id="base"
     pagecolor="#ffffff"
     bordercolor="#666666"
     borderopacity="1.0"
     inkscape:pageopacity="0.0"
     inkscape:pageshadow="2"
     inkscape:zoom="0.5"
     inkscape:cx="205.68225"
     inkscape:cy="246.03585"
     inkscape:document-units="px"
     inkscape:current-layer="layer1"
     showgrid="true"
     units="px"
     inkscape:pagecheckerboard="true"
     inkscape:window-width="1366"
     inkscape:window-height="712"
     inkscape:window-x="0"
     inkscape:window-y="26"
     inkscape:window-maximized="1"
     inkscape:snap-nodes="true"
     inkscape:snap-object-midpoints="true"
     inkscape:snap-global="true"
     showguides="true"
     inkscape:guide-bbox="true"
     inkscape:snap-bbox="true"
     inkscape:snap-others="true">
    <inkscape:grid
       id="grid815"
       type="xygrid"
       units="px"
       spacingy="39.6875"
       spacingx="52.916667"
       empspacing="2" />
    <sodipodi:guide
       inkscape:locked="false"
       id="guide5335"
       orientation="0,1"
       position="162.52976,127.75595" />
    <sodipodi:guide
       inkscape:locked="false"
       id="guide5337"
       orientation="0,1"
       position="176.13691,31.75" />
  </sodipodi:namedview>
  <metadata
     id="metadata5">
    <rdf:RDF>
      <cc:Work
         rdf:about="">
        <dc:format>image/svg+xml</dc:format>
        <dc:type
           rdf:resource="http://purl.org/dc/dcmitype/StillImage" />
        <dc:title />
      </cc:Work>
    </rdf:RDF>
  </metadata>
  <g
     inkscape:label="Tile"
     inkscape:groupmode="layer"
     id="layer1"
     transform="translate(0,-138.25001)">
    <rect
       style="display:inline;opacity:0.95999995;fill:#594c2d;fill-opacity:1;stroke:none;stroke-width:0.26458335;stroke-opacity:1"
       width="211.66667"
       height="158.75"
       x="0"
       y="138.25002"
       id="rect817"
       inkscape:label="Background" />
    <path
       style="opacity:0.2020202;fill:#000000;fill-opacity:1;stroke-width:0.32207498"
       d="m 100.09292,160.13095 c -0.809647,0.0219 -1.544539,0.48954 -2.00086,1.37197 -0.55922,1.08143 -0.389848,2.30502 0.36847,3.06333 l 1.405461,1.40546 c -0.02542,1.24791 -0.336324,4.62652 -0.607666,6.87208 l -5.733185,-5.73318 c -0.590673,-0.59072 -1.584505,-0.70446 -2.38065,0.016 -0.800674,0.7246 -0.700508,1.86555 -0.05143,2.51464 l 2.441981,2.44198 c 0.05788,0.21894 0.114585,0.43126 0.182583,0.70202 0.326608,1.30053 0.545248,2.44183 0.529349,2.73166 l -9.750475,-9.75047 c -0.308798,-0.3088 -0.734693,-0.53723 -1.265339,-0.67041 -0.661555,-0.16604 -0.995874,-0.027 -1.588044,0.66145 -0.925457,1.07594 -0.951818,1.92232 -0.08681,2.78733 l 6.628641,6.62864 c 1.38068,2.69253 2.57338,5.6544 3.204395,8.10393 l 1.814503,1.8145 -1.237034,0.42697 4.238558,4.23856 c -0.773243,0.22724 -1.531116,0.43312 -2.188161,0.5869 -3.134218,0.73356 -4.361297,0.85075 -9.097988,0.86809 -3.011399,0.011 -6.122947,-0.0525 -6.914546,-0.14106 l -1.439429,-0.16135 -1.20967,2.89867 c -0.665352,1.59427 -1.527585,3.86498 -1.916408,5.04579 l -0.707211,2.14711 -2.951989,0.68221 c -1.958105,0.45248 -3.561299,1.06313 -4.761771,1.81403 -1.734922,1.08521 -1.848946,1.11188 -2.751004,0.64541 -0.517561,-0.26764 -2.227037,-0.72566 -3.798848,-1.01765 -12.016427,-2.23221 -17.121565,-3.57748 -21.911792,-5.7747 -2.744953,-1.25908 -5.5156,-3.02553 -7.520324,-4.76083 l -2.937361,-2.93736 0.686453,1.756 c 1.054788,2.69767 3.349901,5.8603 5.99786,8.50825 l 4.093717,4.09372 c -2.985065,-1.32413 -5.228013,-2.85978 -7.757162,-5.31046 -1.284282,-1.24442 -2.334886,-2.18391 -2.334886,-2.08767 0,0.70583 1.181077,3.21323 2.404711,5.10476 0.881659,1.36291 2.14816,2.86953 3.615794,4.33716 l 5.851604,5.85161 c -1.2711,-0.46385 -3.216963,-1.3554 -5.347733,-2.4736 -3.192166,-1.67519 -3.330933,-1.54278 -1.070962,1.02379 0.226063,0.25673 0.469287,0.51458 0.726556,0.77184 l 5.432655,5.43266 c -0.736918,-0.19232 -1.422196,-0.38713 -1.943301,-0.5619 -2.182668,-0.73207 -2.210029,-0.73296 -1.862152,-0.0826 0.232131,0.43398 0.702613,0.99701 1.299781,1.59417 l 5.835563,5.83557 -0.08917,-0.006 0.656731,0.69825 v 4.8e-4 c 0.02048,0.0217 0.04154,0.0434 0.06322,0.0651 l 8.44739,8.44739 c 0.02537,2.26653 0.183351,2.8309 0.839314,4.23053 0.476187,1.01606 1.613407,2.59473 2.526905,3.50823 l 1.660699,1.66117 -4.736295,4.74432 -4.736767,4.74431 -0.159937,4.1475 c -0.142579,3.69429 -0.08463,4.34561 0.52982,5.96578 0.510775,1.34684 1.693449,3.05881 2.719867,4.08523 l 1.748452,1.74845 c -0.04314,0.6435 -0.378007,1.78778 -1.059169,3.94227 -0.616043,1.94856 -1.122478,3.59452 -1.125217,3.65779 -2.41e-4,0.007 0.0019,0.0129 0.0066,0.0175 L 166.25384,392.33773 h 4.8e-4 4.8e-4 c 0.0382,0.0381 0.23504,0.003 0.47274,-0.0882 50.19575,1.17396 173.54397,-36.84264 133.24075,-95.20241 L 182.73298,179.81307 c -0.15201,-0.15201 -0.89681,0.55968 -2.30894,2.03058 -2.88742,3.00762 -6.32225,5.45048 -10.8804,7.73876 -3.79793,1.90664 -6.23985,2.8674 -13.60689,5.35245 -0.61209,0.20648 -1.11434,0.37649 -1.62389,0.54917 l -34.36421,-34.3642 c -0.31674,-0.31676 -0.77291,-0.53372 -1.33233,-0.58785 -1.51979,-0.14698 -2.38991,0.71563 -2.20892,2.19004 0.12072,0.9835 -0.11413,1.4756 -1.77346,3.71063 -0.31039,0.41808 -0.6567,0.90455 -1.00821,1.40829 l -3.02276,-3.02276 c -0.69341,-0.69341 -1.86157,-0.68532 -2.55049,0.36611 -0.49039,0.74843 -0.50589,0.91603 -0.0906,1.65032 l -5.81245,-5.81245 c -0.0409,-0.0409 -0.0836,-0.0803 -0.12786,-0.11841 -0.62429,-0.537 -1.29894,-0.78981 -1.92867,-0.7728 z"
       id="path842"
       inkscape:connector-curvature="0"
       sodipodi:nodetypes="sccccccsccccccsccccccccccccccccccccsccscscsccccccccccccccccccccccccccccccsssccccsccccccs"
       clip-path="url(#clipPath2678)"
       inkscape:transform-center-x="-61.18143"
       inkscape:transform-center-y="58.620838" />
    <path
       inkscape:label="Logo"
       inkscape:connector-curvature="0"
       id="path832"
       d="m 49.01316,275.08672 c 0.0027,-0.0633 0.509373,-1.70925 1.125416,-3.65781 1.299529,-4.11038 1.344912,-4.5565 0.491114,-4.82748 -1.053529,-0.33438 -3.168001,-3.01693 -3.900503,-4.94843 -0.614446,-1.62017 -0.672291,-2.27166 -0.529713,-5.96595 l 0.160062,-4.14717 4.736553,-4.74445 4.736552,-4.74447 -1.660899,-1.6609 c -0.913498,-0.9135 -2.050509,-2.49221 -2.526695,-3.50827 -0.807228,-1.72238 -0.864206,-2.13341 -0.842286,-6.07614 l 0.02356,-4.2288 -2.27803,-0.15076 c -2.485985,-0.16452 -5.18566,-1.15216 -6.253322,-2.28771 l -0.656881,-0.69863 1.576048,0.11056 c 1.455838,0.10213 4.097448,-0.46489 3.756089,-0.80626 -0.08162,-0.0816 -1.126164,-0.28685 -2.321222,-0.45608 -1.195066,-0.16925 -3.096761,-0.74866 -4.226003,-1.28761 -1.97496,-0.94256 -5.096308,-3.61064 -5.831037,-4.98428 -0.347878,-0.6504 -0.320498,-0.64918 1.862172,0.0829 2.164429,0.72593 7.090898,1.79945 7.299684,1.59066 0.05779,-0.0578 -0.511874,-0.28964 -1.265867,-0.51527 -3.322538,-0.99429 -7.785118,-3.91925 -10.249503,-6.71797 -2.259971,-2.56656 -2.121492,-2.69899 1.070675,-1.02379 3.365347,1.76608 6.282655,2.97458 6.780223,2.80873 0.184201,-0.0614 -0.831961,-0.93395 -2.258136,-1.939 -3.441525,-2.42531 -6.842853,-5.80435 -8.641684,-8.58507 -1.223633,-1.89154 -2.404804,-4.39879 -2.404804,-5.10462 0,-0.0962 1.050763,0.84319 2.335045,2.08761 2.555781,2.47649 4.818154,4.01901 7.850587,5.35264 2.162941,0.95124 3.099591,1.14408 1.570105,0.32325 -4.598229,-2.4677 -9.964347,-8.38715 -11.755189,-12.96732 l -0.686561,-1.75592 1.735324,1.80605 c 1.986482,2.06744 5.375722,4.35686 8.722409,5.89194 4.790226,2.19723 9.895408,3.5427 21.911833,5.77491 1.571812,0.29199 3.2813,0.74986 3.798862,1.01751 0.902058,0.46647 1.01596,0.43975 2.750883,-0.64546 1.200471,-0.7509 2.803854,-1.36177 4.761961,-1.81425 l 2.952097,-0.68217 0.706948,-2.14693 c 0.388824,-1.18082 1.251323,-3.45134 1.916676,-5.04561 l 1.209729,-2.89868 1.439267,0.16104 c 0.791598,0.0886 3.903141,0.15203 6.914539,0.14102 4.73669,-0.0173 5.963994,-0.13441 9.098214,-0.86797 1.992617,-0.46637 4.891292,-1.38885 6.441508,-2.04996 2.45961,-1.04895 3.06466,-1.1845 4.751,-1.06449 4.57654,0.32572 11.946,0.0817 14.65441,-0.48519 3.56172,-0.74553 7.48474,-1.98478 9.48787,-2.99711 l 1.59703,-0.8071 1.08589,1.24724 c 4.927,5.65912 9.34788,13.15888 11.45809,19.43794 0.44528,1.32498 0.94075,2.45275 1.10104,2.50618 0.40897,0.13633 3.33544,-1.15223 4.01652,-1.76852 0.53279,-0.4821 0.50946,-0.54486 -0.41061,-1.1044 -1.83334,-1.11492 -2.00748,-3.3393 -0.38016,-4.85634 1.19829,-1.11711 1.38741,-1.1979 8.11672,-3.46784 7.36704,-2.48505 9.80882,-3.44551 13.60674,-5.35214 4.55816,-2.28829 7.99314,-4.73152 10.88057,-7.73914 2.87495,-2.9946 2.98465,-2.84101 0.95502,1.33698 -1.25056,2.57427 -3.42894,5.74502 -6.06729,8.8312 -0.76934,0.89993 -1.29634,1.63624 -1.17107,1.63624 0.54794,0 5.33655,-3.22265 7.32043,-4.92652 2.4859,-2.13504 2.47629,-1.98493 -0.17138,2.672 -1.89298,3.32953 -4.78488,7.16335 -6.24139,8.27429 -0.59148,0.45114 -1.07542,0.94961 -1.07542,1.1077 0,0.5741 5.27019,-2.37997 6.80171,-3.81253 0.86472,-0.80885 1.57223,-1.3834 1.57223,-1.27679 0,0.69891 -1.2018,3.50215 -1.99698,4.65803 -1.28395,1.86636 -4.40567,4.38642 -8.28168,6.68555 -1.76466,1.04674 -3.15426,1.95738 -3.088,2.02363 0.22421,0.22421 6.42847,-1.65854 8.47315,-2.57126 l 2.03112,-0.90665 -0.6726,0.94454 c -1.99935,2.80784 -6.20365,5.7065 -11.60253,7.9994 l -0.80519,0.34196 0.83453,0.0218 c 0.45898,0.012 1.50974,-0.18143 2.33503,-0.4298 0.8253,-0.24838 1.50053,-0.33428 1.50053,-0.19089 0,0.14339 -0.74481,0.93036 -1.65513,1.74882 -0.91033,0.81845 -1.59876,1.53042 -1.52985,1.58215 0.0689,0.0517 1.51083,0.34774 3.2043,0.6578 l 3.07903,0.56376 -0.90503,1.79422 c -1.0446,2.07093 -1.1346,3.53148 -0.41632,6.75614 0.26879,1.2067 0.56159,2.52084 0.6507,2.9203 0.15415,0.69111 0.26703,0.71666 2.32946,0.52713 3.27212,-0.30069 4.70809,0.20807 6.89504,2.44289 1.93335,1.97569 2.84117,4.03477 2.84117,6.44426 0,2.72023 -3.83572,7.70199 -7.25574,9.42362 -2.37083,1.19346 -6.3623,2.45492 -9.64819,3.04919 -4.08908,0.73953 -14.45382,0.6501 -23.19441,-0.20012 l -6.76357,-0.65793 -0.80518,1.03479 c -5.15857,6.62956 -12.06143,12.55343 -19.05762,16.35482 l -2.9301,1.59206 -3.25795,-0.65975 c -6.68602,-1.35398 -14.0584,-3.87066 -18.762543,-6.40491 l -2.299512,-1.23881 -1.18716,2.5298 c -1.092248,2.32756 -2.065691,6.25039 -2.093418,8.43626 -0.01278,1.00936 -0.305351,1.08325 -1.612558,0.40727 -6.061571,-3.13457 -18.318112,-2.9402 -32.778234,0.51979 -2.168912,0.51898 -4.161757,1.02735 -4.428536,1.12973 -0.266778,0.10237 -0.482649,0.13438 -0.479728,0.0711 z m 9.972144,-5.75822 c 5.610957,-1.4166 8.059054,-1.72706 13.695041,-1.73674 5.261437,-0.009 7.295183,0.26245 11.051637,1.47535 1.11845,0.36113 2.070704,0.60547 2.116124,0.54297 0.04537,-0.0624 0.532379,-1.38434 1.082141,-2.93744 1.490649,-4.21119 3.09845,-6.84949 5.852401,-9.60345 4.648214,-4.64821 10.743392,-7.06395 21.445362,-8.49958 7.32174,-0.98218 14.31175,-0.98664 25.766,-0.0164 22.73703,1.92588 30.08458,1.6051 36.71654,-1.60294 6.7447,-3.26258 8.58606,-8.37072 4.38545,-12.16573 -1.92415,-1.73834 -4.65068,-1.98045 -8.0957,-0.71889 -2.6515,0.97099 -2.70443,0.97741 -2.44062,0.29594 0.13102,-0.33847 0.31978,-1.29698 0.41946,-2.13002 0.15805,-1.32102 0.005,-1.8852 -1.19671,-4.41413 -1.22211,-2.57165 -1.35668,-3.07883 -1.19009,-4.48542 l 0.18782,-1.5859 -1.67111,-0.21791 c -0.91911,-0.11986 -1.98803,-0.29569 -2.37535,-0.39074 -0.60684,-0.14891 -0.75626,0.0206 -1.08047,1.22579 -1.11173,4.13275 -3.75216,7.86296 -6.23773,8.8122 -1.66444,0.63566 -2.63687,0.30299 -2.96773,-1.01525 -0.24969,-0.99486 0.0215,-4.15902 0.55139,-6.43422 l 0.38344,-1.64626 1.40432,0.15828 c 1.05193,0.11857 1.40784,0.0468 1.41835,-0.28619 0.007,-0.24446 0.13344,-1.06181 0.27938,-1.81632 l 0.26535,-1.37183 -1.2456,-0.19919 c -0.68508,-0.10954 -1.24459,-0.28935 -1.24335,-0.39957 9.1e-4,-0.11021 0.29111,-1.40527 0.64415,-2.87791 0.35304,-1.47265 0.64189,-2.74082 0.64189,-2.81818 0,-0.0773 -1.2157,-0.14063 -2.70155,-0.14063 h -2.70156 l -0.61729,2.49608 c -0.55816,2.25698 -0.69207,2.49608 -1.39787,2.49608 -0.65762,0 -0.81681,0.20294 -1.0106,1.2883 -0.37625,2.10726 -0.31726,2.73764 0.25623,2.73764 0.41881,0 0.48142,0.2091 0.31342,1.04674 -0.11547,0.57571 -0.29886,2.29568 -0.40753,3.82216 -0.18477,2.59544 -0.25531,2.80951 -1.08779,3.30126 -0.96553,0.57036 -1.78636,0.67748 -2.04049,0.2663 -0.0882,-0.14276 0.27264,-1.99068 0.80193,-4.10646 1.23863,-4.95126 1.19312,-7.56449 -0.15188,-8.72141 -1.72897,-1.4872 -4.80413,-0.56873 -7.05599,2.10745 -1.04764,1.24506 -1.06418,1.1339 -0.23522,-1.58094 0.35158,-1.15142 0.64033,-2.17073 0.64169,-2.26513 0.005,-0.28997 -4.77611,0.47268 -5.11993,0.81685 -0.50391,0.50444 -1.90464,6.0803 -2.14808,8.55087 -0.20848,2.11576 -0.286,2.28159 -1.54718,3.30966 -2.6287,2.14282 -4.0618,2.39182 -5.41508,0.94089 -0.77118,-0.82683 -1.54895,-2.06626 -1.54895,-2.46836 0,-0.0966 0.61597,-0.48479 1.36883,-0.86262 3.71036,-1.86208 6.0389,-4.46777 6.0389,-6.7577 0,-2.12491 -2.14873,-4.48923 -4.07462,-4.48341 -1.37724,0.005 -3.0219,0.73175 -4.40402,1.94834 -1.73266,1.52514 -3.62524,5.0538 -3.92336,7.31497 -0.11054,0.83842 -0.25506,1.9592 -0.32115,2.49063 -0.15388,1.23737 -2.17692,3.05971 -3.39671,3.05971 -0.68297,0 -0.9096,-0.1809 -1.03257,-0.82417 -0.20504,-1.07263 0.41218,-4.15954 1.83158,-9.16015 0.6285,-2.21427 1.14428,-4.13464 1.14615,-4.2675 0.005,-0.31001 -1.65546,-0.30615 -2.12567,0.005 -0.1967,0.13014 -0.61238,0.74388 -0.92372,1.36388 -0.77133,1.536 -2.00733,3.14827 -2.69612,3.5169 -0.52062,0.27863 -0.55788,0.14383 -0.43392,-1.56995 0.11568,-1.59938 0.0332,-1.97709 -0.56112,-2.57148 -1.15663,-1.15662 -2.98385,-0.14319 -4.27202,2.3694 -0.79587,1.55235 -0.71662,4.92683 0.13573,5.77918 0.97021,0.97021 -0.16809,3.49225 -2.60498,5.77168 -1.67749,1.56909 -3.10127,1.99303 -3.46963,1.0331 -0.26601,-0.69321 0.36855,-3.78319 1.95422,-9.51608 0.75664,-2.73558 1.34005,-5.01936 1.29647,-5.07507 -0.0436,-0.0557 -0.57678,-0.008 -1.18488,0.10613 -0.9403,0.1764 -1.23116,0.46334 -1.94498,1.91879 -0.81867,1.66924 -2.644352,4.03476 -3.113973,4.03476 -0.129076,0 -0.170305,-0.77635 -0.09163,-1.72523 0.259055,-3.12382 -1.121673,-4.01856 -3.278707,-2.12467 -2.001555,1.7574 -2.992244,6.48006 -1.642484,7.82982 0.682599,0.6826 0.60191,1.60641 -0.293319,3.35799 -1.085519,2.12392 -2.82099,3.71999 -4.044888,3.71999 -0.536816,0 -1.066137,-0.0901 -1.176259,-0.20023 -0.110122,-0.11013 0.107675,-1.34136 0.48401,-2.73607 1.484788,-5.50269 1.503924,-9.59175 0.04857,-10.37065 -1.436601,-0.76885 -3.35169,-0.30652 -5.994386,1.44714 -2.355184,1.56287 -3.888853,3.40671 -5.327517,6.40496 -1.698952,3.54071 -2.424908,7.10973 -1.979252,9.73057 0.824018,4.84598 2.948276,6.45431 6.277817,4.75311 1.230709,-0.62881 3.289425,-2.84459 4.14977,-4.46636 0.718387,-1.35416 0.742563,-1.36746 2.416335,-1.32794 1.464995,0.0346 1.827306,-0.0891 2.714136,-0.92633 1.224775,-1.15628 3.753241,-4.82296 4.933672,-7.15459 0.93383,-1.84456 2.422215,-3.07077 2.013077,-1.6585 -1.533376,5.29295 -1.738648,6.91732 -1.144506,9.05674 0.429488,1.54652 1.450697,2.49399 2.688071,2.49399 0.778871,0 1.396367,-0.43508 3.085493,-2.17401 2.13139,-2.19423 6.06849,-7.71294 7.41013,-10.38691 0.86259,-1.71918 0.65783,-1.4839 1.52264,-1.74959 l 0.71358,-0.21923 -0.66169,1.87012 c -0.37497,1.05973 -0.72934,3.05641 -0.81781,4.60775 -0.13068,2.29173 -0.0551,2.92124 0.4638,3.86489 0.81345,1.47919 1.96061,2.05419 3.18217,1.595 1.10585,-0.4157 3.28501,-2.48153 4.84672,-4.59465 l 1.14577,-1.55032 0.62169,1.38928 c 0.87164,1.94786 1.75642,2.77994 3.50963,3.30059 2.7285,0.81028 5.08117,-0.0729 7.6333,-2.86527 l 1.63703,-1.79117 0.20205,1.5336 c 0.39573,3.00361 0.50885,3.33877 1.0747,3.18418 0.29439,-0.0804 1.29616,-0.33094 2.22614,-0.55669 l 1.6909,-0.41047 v -3.8265 c 0,-3.70129 0.0306,-3.87056 0.93651,-5.17283 1.19147,-1.71287 3.44925,-3.90403 3.65745,-3.54952 0.0875,0.1489 -0.20044,1.43021 -0.63975,2.84734 -0.57581,1.85747 -0.8121,3.40088 -0.84662,5.52992 -0.0547,3.37532 0.37996,4.32763 2.4442,5.35479 1.08094,0.53788 1.24838,0.54241 2.39477,0.0648 0.67792,-0.28245 1.7635,-1.03085 2.4124,-1.66313 l 1.17982,-1.1496 0.49938,0.96568 c 1.40139,2.70999 3.25901,3.75388 5.37035,3.01787 1.82442,-0.636 5.06664,-3.54903 7.12767,-6.40399 l 1.99996,-2.77037 1.38634,2.85335 c 1.48466,3.05573 1.70292,4.42861 0.85331,5.36742 -1.14742,1.26789 -2.42622,0.5216 -3.27981,-1.91405 l -0.59504,-1.69785 -1.52811,1.63367 c -1.62834,1.74083 -1.65829,1.99119 -0.42268,3.5338 2.0691,2.58317 6.47158,2.96315 10.70668,0.92409 1.9304,-0.92942 2.59462,-1.08548 4.6201,-1.08548 2.24191,0 2.40599,0.0505 3.13863,0.96622 2.15914,2.69866 -0.52335,5.43057 -6.00478,6.11542 -4.01034,0.50107 -13.88725,-0.94248 -24.04521,-3.5143 -7.83485,-1.98363 -18.38681,-3.44075 -22.97034,-3.17198 -2.03015,0.11905 -3.14753,0.0254 -4.27874,-0.35866 -2.01641,-0.68459 -5.15077,-0.69308 -5.71314,-0.0154 -1.48742,1.79223 -4.90139,1.98315 -6.66135,0.37254 -0.68283,-0.62488 -0.84217,-0.63771 -3.04109,-0.24474 -2.06968,0.36987 -2.4966,0.57962 -3.9495,1.94044 -2.0389,1.90968 -2.708386,2.25854 -4.334254,2.25854 -0.999728,0 -1.566645,-0.23565 -2.465389,-1.02474 l -1.167121,-1.02475 -1.937154,0.4001 c -4.097128,0.84625 -6.062786,1.70857 -7.279553,3.19348 -0.626379,0.76441 -1.730879,1.73096 -2.454443,2.14788 -1.48518,0.85578 -4.70217,1.60534 -5.628294,1.31139 -0.877171,-0.2784 -6.759787,3.30706 -6.788911,4.13785 -0.02228,0.63547 -4.303377,8.79266 -5.395296,10.28015 -1.391875,1.89611 -5.191074,4.99676 -7.433014,6.06633 -1.382891,0.65974 -1.732613,1.03569 -2.618987,2.81546 -0.838251,1.68312 -0.919322,2.01428 -0.448961,1.83377 0.315714,-0.12114 2.243848,-0.64184 4.284743,-1.1571 z m 21.255834,-33.02672 c -0.478295,-1.25802 -0.374938,-5.56855 0.185077,-7.71859 0.614208,-2.35809 1.622217,-4.42299 2.613984,-5.3547 0.947259,-0.8899 1.262671,-0.60707 0.651202,0.58392 -0.717028,1.39658 -1.280384,4.58263 -1.075103,6.08029 0.100956,0.73659 0.414606,2.01977 0.696988,2.8515 0.587851,1.73147 0.487872,2.2629 -0.658095,3.49802 -1.042473,1.12357 -2.000533,1.1472 -2.414053,0.0595 z m 43.810162,-14.254 c 0,-1.29707 0.89916,-3.76175 1.60559,-4.40105 0.96546,-0.87373 1.7607,-0.50699 1.875,0.86468 0.12724,1.52686 -0.60439,2.91923 -1.98094,3.76998 -1.40596,0.86892 -1.49965,0.85432 -1.49965,-0.23361 z m -67.039377,41.4619 c 1.967264,-0.8541 5.705102,-4.76894 7.506946,-7.86244 4.143671,-7.11408 6.961603,-16.96138 7.511511,-26.24911 0.36238,-6.12072 0.845349,-9.74587 1.625828,-12.20362 0.423224,-1.33274 0.73231,-2.46034 0.686853,-2.5058 -0.213525,-0.21352 -4.423318,1.26156 -5.003126,1.75307 -0.789809,0.66954 -2.352948,4.55339 -3.227763,8.01986 -0.349904,1.38651 -1.161369,5.92688 -1.803249,10.08969 -1.382517,8.96607 -2.457958,14.00186 -3.756756,17.59129 -2.049869,5.66507 -5.028638,8.35436 -5.843444,5.27554 -0.378243,-1.42923 -0.09301,-5.62114 0.57789,-8.49304 0.284344,-1.21718 0.473511,-2.40927 0.420377,-2.64908 -0.05313,-0.23982 -1.661046,1.26333 -3.57313,3.34032 l -3.476511,3.77636 0.109146,3.54282 c 0.08984,2.91708 0.237928,3.78886 0.838287,4.93585 1.335746,2.55192 3.963844,3.1332 7.407141,1.63829 z m 2.463353,-30.01166 c 1.06285,-1.81208 1.97675,-3.46258 2.030898,-3.66777 0.05414,-0.20519 -0.311067,-0.46301 -0.811574,-0.57294 -0.500508,-0.10993 -1.319997,-0.52677 -1.82108,-0.92632 -2.644139,-2.10837 -0.261082,-8.46626 4.126051,-11.00816 0.718762,-0.41645 4.009775,-1.64752 7.313378,-2.73571 3.303599,-1.08819 6.596357,-2.36098 7.317246,-2.82841 2.209018,-1.43234 3.198931,-3.84614 4.356456,-10.62266 0.172615,-1.01053 0.140972,-1.04673 -0.914821,-1.04673 -0.947525,0 -1.121317,0.12609 -1.300953,0.94396 -0.337305,1.53577 -0.268687,1.50733 -7.89572,3.27223 -6.074791,1.40571 -7.757291,2.4537 -11.033706,6.8726 -2.317068,3.12503 -4.754347,8.05984 -5.896872,11.93956 -0.655238,2.22501 -0.887981,3.83432 -1.001435,6.92461 -0.134572,3.66558 -0.08801,4.12063 0.520191,5.08381 0.645277,1.0219 1.591085,1.62397 2.596382,1.65278 0.279048,0.008 1.299354,-1.3778 2.415559,-3.28085 z m 28.081596,-17.67601 1.473595,-0.37106 -0.188209,-3.25229 -0.188217,-3.25228 1.406592,2.94595 1.406592,2.94597 1.557104,-0.32647 c 0.85641,-0.17955 1.60047,-0.36497 1.653459,-0.41203 0.05304,-0.047 -0.71333,-1.80214 -1.702942,-3.90017 l -1.799296,-3.8146 1.130647,-3.14786 c 1.246348,-3.47001 1.241126,-3.48332 -1.111164,-2.8298 -1.090651,0.303 -1.16104,0.41731 -1.932444,3.13843 l -0.800573,2.82397 -0.161038,-2.30927 c -0.08856,-1.27009 -0.265583,-2.41333 -0.393353,-2.54052 -0.127779,-0.12719 -0.884611,-0.0487 -1.681852,0.17459 l -1.44952,0.40584 0.158008,1.81261 c 0.304822,3.49684 0.790119,10.48535 0.790119,11.3782 0,1.03973 -0.08774,1.01431 1.832492,0.53079 z m 10.164798,-2.20115 0.885707,-0.005 v -2.85255 c 0,-2.70958 -0.605444,-11.36215 -0.810588,-11.58446 -0.05313,-0.0576 -0.781537,-0.002 -1.618693,0.12358 l -1.522082,0.22825 0.208622,2.45303 c 0.114742,1.34915 0.301563,4.60183 0.415145,7.22816 0.200889,4.64471 0.224964,4.77018 0.881352,4.59396 0.371158,-0.0996 1.073395,-0.18315 1.560537,-0.18557 z m 6.8969,-1.15206 c 0.38332,-0.0764 1.14369,-0.70304 1.68969,-1.39242 0.9373,-1.18345 0.98124,-1.36332 0.78701,-3.22158 -0.21949,-2.1 -0.42937,-2.26337 -2.27288,-1.76908 -0.6089,0.16326 -0.72316,0.44785 -0.80519,2.00544 -0.0733,1.39196 -0.22105,1.83904 -0.63371,1.91753 -0.58988,0.11219 -0.71079,-0.5889 -1.08586,-6.29603 -0.18557,-2.82376 -0.16239,-2.9792 0.44424,-2.9792 0.49569,0 0.6891,0.29051 0.85767,1.2883 0.19049,1.1275 0.32468,1.28775 1.07505,1.28391 1.9377,-0.01 2.15492,-0.21845 2.03358,-1.95198 -0.0968,-1.38371 -0.26243,-1.71652 -1.21568,-2.4436 -0.98685,-0.75272 -1.29808,-0.82164 -2.94331,-0.65183 -1.56734,0.16176 -1.97369,0.34715 -2.744171,1.25202 -0.850366,0.99868 -0.894499,1.19685 -0.738573,3.31667 0.09121,1.23999 0.259986,3.63352 0.375066,5.31895 0.20906,3.06204 0.210137,3.06511 1.378448,3.91884 1.15493,0.84396 1.44061,0.87435 3.79862,0.40406 z m 36.52065,-0.31167 c 1.12168,-0.82426 1.48498,-1.67773 1.55432,-3.65135 0.0489,-1.39318 -1.53081,-3.28517 -3.15101,-3.77383 -1.09601,-0.33056 -1.16429,-0.43252 -1.25818,-1.87916 -0.0863,-1.32941 -0.0231,-1.51518 0.48312,-1.41925 0.38644,0.0732 0.6155,0.45028 0.68078,1.1206 0.0907,0.93103 0.21292,1.02739 1.55938,1.22931 0.80354,0.12049 1.49687,0.17198 1.54074,0.1144 0.0439,-0.0576 0.0188,-0.68441 -0.0557,-1.39298 -0.094,-0.89369 -0.50133,-1.71734 -1.32995,-2.68905 -1.02457,-1.20151 -1.41272,-1.42536 -2.72862,-1.57368 -1.36526,-0.15389 -1.63859,-0.0729 -2.48319,0.73635 -0.87646,0.8397 -0.94907,1.08445 -0.94907,3.1992 0,2.23087 0.0319,2.32106 1.23539,3.49628 0.67947,0.66348 1.65777,1.31851 2.17401,1.45562 0.82698,0.21964 0.95054,0.4125 1.03886,1.62165 0.093,1.27285 0.0463,1.36472 -0.64414,1.26686 -0.59232,-0.0839 -0.72445,-0.27729 -0.64673,-0.94628 0.0869,-0.74775 -0.0379,-0.86318 -1.12726,-1.0432 -1.98359,-0.32779 -2.03013,-0.30405 -2.03013,1.03536 0,1.10442 0.18695,1.50459 1.51524,3.24333 0.0895,0.11706 1.90311,0.47416 3.17279,0.62469 0.18701,0.0222 0.83922,-0.32652 1.44934,-0.77487 z m -29.62537,-3.34883 0.0235,-3.08267 1.16755,3.00007 c 1.02433,2.6321 1.24861,2.97832 1.82846,2.82255 0.3635,-0.0976 1.05947,-0.1795 1.54661,-0.18192 0.48714,-0.003 0.88571,-0.1675 0.88571,-0.36685 0,-0.19936 -0.66743,-1.92577 -1.48317,-3.8365 l -1.48318,-3.47403 1.00006,-3.21897 c 0.55003,-1.77045 1.00006,-3.3122 1.00006,-3.42613 0,-0.11392 -0.7153,-0.17449 -1.58955,-0.1346 l -1.58956,0.0725 -0.53355,2.27844 c -0.86779,3.70578 -0.91247,3.73501 -1.2673,0.8291 l -0.33427,-2.73764 -1.44934,0.10995 c -0.79714,0.0604 -1.50142,0.16086 -1.56506,0.22308 -0.0636,0.0622 0.0451,1.75961 0.24156,3.772 0.19649,2.01238 0.35727,5.21641 0.35727,7.12005 v 3.46117 l 1.61037,-0.0735 1.61038,-0.0735 0.0235,-3.08266 z m 21.47503,1.89167 c 0.96475,-0.90421 1.04674,-1.13882 1.04674,-2.99504 0,-1.85986 -0.0822,-2.09364 -1.07406,-3.055 -0.64607,-0.62621 -1.54444,-1.11735 -2.25452,-1.23259 -1.14989,-0.1866 -1.18046,-0.22801 -1.18046,-1.59875 0,-1.19249 0.0983,-1.40721 0.64414,-1.40721 0.50101,0 0.64416,0.21472 0.64416,0.96623 0,0.55638 0.17077,0.96773 0.40259,0.96978 0.22142,0.002 0.93459,0.0915 1.58482,0.19902 l 1.18223,0.19549 -0.17501,-1.40681 c -0.25947,-2.08578 -1.90363,-3.70047 -4.07161,-3.99865 -1.57768,-0.21698 -1.67147,-0.18558 -2.53518,0.84902 -0.78157,0.93619 -0.89689,1.34703 -0.89689,3.19514 0,2.0298 0.0519,2.17057 1.20777,3.28064 0.66429,0.63791 1.67882,1.25857 2.25453,1.37926 0.98999,0.20752 1.04675,0.29661 1.04675,1.64317 0,1.20902 -0.0971,1.42374 -0.64416,1.42374 -0.50101,0 -0.64414,-0.21472 -0.64414,-0.96623 0,-0.55637 -0.17077,-0.96772 -0.4026,-0.96977 -0.22143,-0.002 -0.91692,-0.0887 -1.54554,-0.19265 -1.1352,-0.18783 -1.14344,-0.18072 -1.21517,1.05028 -0.0568,0.97426 0.14107,1.49779 0.92484,2.44719 0.93883,1.13724 1.10386,1.20769 2.82554,1.20629 1.59292,-9.2e-4 1.96333,-0.12788 2.87523,-0.98255 z m -12.06958,-0.62633 c -0.14524,-1.25743 -0.12494,-1.2883 0.84745,-1.2883 0.94758,0 0.99625,0.0629 0.99625,1.2883 v 1.2883 h 1.61935 1.61934 l -0.20011,-2.17401 c -0.20592,-2.23727 -1.95272,-11.54317 -2.26012,-12.04055 -0.0948,-0.15335 -1.17831,-0.27882 -2.40785,-0.27882 h -2.23551 l -0.003,2.81815 c -0.003,2.95717 -0.51724,9.61909 -0.84282,10.91631 -0.18097,0.72103 -0.11045,0.75892 1.41256,0.75892 h 1.60304 l -0.14881,-1.2883 z m 0.35058,-5.68127 c 0.11265,-0.82186 0.22209,-2.1625 0.24321,-2.97919 l 0.0384,-1.4849 0.42968,2.09348 c 0.64199,3.12786 0.59848,3.8649 -0.22817,3.8649 -0.6331,0 -0.6716,-0.11909 -0.48311,-1.49429 z M 91.389258,183.27761 c -1.043542,-4.05092 -3.619299,-9.50857 -6.050068,-12.81919 -0.92596,-1.26113 -1.197614,-1.43641 -2.091903,-1.34983 -0.704793,0.0682 -1.236141,-0.10888 -1.69089,-0.56363 -0.86501,-0.86501 -0.838635,-1.71149 0.08682,-2.78744 0.59217,-0.68844 0.926298,-0.82767 1.587853,-0.66162 1.185571,0.29756 1.849126,1.07031 1.849126,2.15344 0,0.63894 0.227804,1.0515 0.724669,1.3124 1.100784,0.578 3.698891,2.73605 6.110287,5.07536 1.190684,1.15509 2.23302,2.032 2.316319,1.94871 0.08326,-0.0833 -0.147928,-1.34351 -0.513818,-2.80046 -0.592343,-2.35867 -0.746626,-2.64901 -1.407597,-2.64901 -1.58106,0 -2.336331,-1.95028 -1.165596,-3.00979 1.326635,-1.20058 3.202283,-0.0844 2.846599,1.69405 -0.154757,0.77381 -0.02456,1.09976 0.682663,1.7084 0.480651,0.41367 1.573556,1.58156 2.428669,2.5953 0.855123,1.01374 1.666323,1.84317 1.802675,1.84317 0.231547,0 1.147484,-9.33403 0.929465,-9.47193 -0.05496,-0.0348 -0.4859,-0.30429 -0.957639,-0.59896 -1.099936,-0.68705 -1.435178,-2.1364 -0.784998,-3.39373 0.811236,-1.56875 2.502876,-1.82673 3.929826,-0.59931 1.00195,0.86184 1.14947,2.48519 0.31011,3.41267 -0.27705,0.30614 -0.50373,0.71955 -0.50373,0.91869 0,0.3937 2.76685,7.94383 3.18485,8.69076 0.17815,0.31832 0.74907,-0.55005 1.87165,-2.84675 1.55456,-3.18057 1.59648,-3.3376 1.11471,-4.17702 -0.45741,-0.79699 -0.45281,-0.94509 0.0533,-1.71755 1.02626,-1.56628 3.11564,-0.81719 3.11564,1.11701 0,0.70092 -0.21119,1.04635 -0.80518,1.31699 -0.74418,0.33908 -0.80348,0.52768 -0.78255,2.48919 0.0375,3.51641 0.29493,3.67454 1.81928,1.11747 0.72653,-1.21876 2.18178,-3.37539 3.23389,-4.79252 1.65932,-2.23503 1.89446,-2.7269 1.77374,-3.71039 -0.18099,-1.47441 0.6891,-2.33711 2.20889,-2.19013 1.51288,0.14631 2.26975,1.48556 1.55998,2.76029 -0.34726,0.62369 -0.79393,0.91513 -1.50988,0.98514 -0.93656,0.0916 -1.06851,0.25668 -1.67324,2.09349 -1.38823,4.21667 -2.00188,7.49936 -2.18521,11.68983 l -0.18465,4.22051 -5.67295,0.19478 c -5.86338,0.20132 -11.232557,1.05833 -15.193261,2.42511 l -1.790513,0.61787 z"
       style="opacity:1;fill:#f4f4f4;fill-opacity:1;stroke-width:0.32207495"
       inkscape:transform-center-x="-0.001607791"
       inkscape:transform-center-y="0.0039358762" />
  </g>
</svg>
