<?xml version="1.0" encoding="UTF-8" standalone="no"?>
<svg
   xmlns:dc="http://purl.org/dc/elements/1.1/"
   xmlns:cc="http://creativecommons.org/ns#"
   xmlns:rdf="http://www.w3.org/1999/02/22-rdf-syntax-ns#"
   xmlns:svg="http://www.w3.org/2000/svg"
   xmlns="http://www.w3.org/2000/svg"
   xmlns:sodipodi="http://sodipodi.sourceforge.net/DTD/sodipodi-0.dtd"
   xmlns:inkscape="http://www.inkscape.org/namespaces/inkscape"
   width="800"
   height="600"
   viewBox="0 0 211.66667 158.75"
   version="1.1"
   id="svg8"
   inkscape:version="1.0 (4035a4fb49, 2020-05-01)"
   sodipodi:docname="Kraken.svg">
  <defs
     id="defs2">
    <filter
       height="1.0054436"
       y="-0.0027218152"
       width="1.0042925"
       x="-0.0021462384"
       id="filter21"
       style="color-interpolation-filters:sRGB"
       inkscape:collect="always">
      <feGaussianBlur
         id="feGaussianBlur23"
         stdDeviation="0.11660077"
         inkscape:collect="always" />
    </filter>
    <clipPath
       id="clipPath1064"
       clipPathUnits="userSpaceOnUse">
      <rect
         style="display:inline;opacity:0.96;fill:#35bf5c;fill-opacity:1;stroke:none;stroke-width:0.999999;stroke-opacity:1"
         width="800"
         height="600"
         x="0"
         y="1.9875739e-05"
         id="rect1066"
         inkscape:label="Shadow mask" />
    </clipPath>
  </defs>
  <sodipodi:namedview
     inkscape:document-rotation="0"
     inkscape:guide-bbox="true"
     showguides="true"
     inkscape:snap-global="true"
     inkscape:snap-object-midpoints="true"
     inkscape:snap-nodes="true"
     inkscape:window-maximized="1"
     inkscape:window-y="670"
     inkscape:window-x="0"
     inkscape:window-height="712"
     inkscape:window-width="1366"
     inkscape:pagecheckerboard="true"
     units="px"
     showgrid="true"
     inkscape:current-layer="layer1"
     inkscape:document-units="px"
     inkscape:cy="507.98092"
     inkscape:cx="678.77302"
     inkscape:zoom="0.49497475"
     inkscape:pageshadow="2"
     inkscape:pageopacity="0.0"
     borderopacity="1.0"
     bordercolor="#666666"
     pagecolor="#ffffff"
     id="base">
    <inkscape:grid
       id="grid815"
       type="xygrid"
       units="px"
       spacingy="39.6875"
       spacingx="52.916667"
       empspacing="2" />
    <sodipodi:guide
       inkscape:locked="false"
       id="guide5335"
       orientation="0,1"
       position="162.52976,127.75595" />
    <sodipodi:guide
       inkscape:locked="false"
       id="guide5337"
       orientation="0,1"
       position="176.13691,31.75" />
  </sodipodi:namedview>
  <metadata
     id="metadata5">
    <rdf:RDF>
      <cc:Work
         rdf:about="">
        <dc:format>image/svg+xml</dc:format>
        <dc:type
           rdf:resource="http://purl.org/dc/dcmitype/StillImage" />
        <dc:title />
      </cc:Work>
    </rdf:RDF>
  </metadata>
  <g
     transform="translate(0,-138.25001)"
     id="layer1"
     inkscape:groupmode="layer"
     inkscape:label="Tile">
    <rect
       inkscape:label="Background"
       id="rect817"
       y="138.25002"
       x="0"
       height="158.75"
       width="211.66667"
       style="display:inline;opacity:1;fill:#5741d9;fill-opacity:1;stroke:none;stroke-width:0.264583;stroke-opacity:1" />
    <path
       clip-path="url(#clipPath1064)"
       transform="matrix(0.26458334,0,0,0.26458334,0,138.25001)"
       d="m 400.23242,105.70508 c -5.3656,0.001 -10.73022,0.18101 -16.08203,0.54101 -50.22841,2.88378 -99.22006,21.81895 -137.50781,53.9336 -25.93701,20.5833 -47.75579,46.52304 -63.40039,75.7539 -19.34967,35.81481 -29.64258,76.16136 -29.64258,116.50782 v 107.04297 c 0,9.11622 3.59922,17.95695 9.89062,24.24609 L 648.82422,969.0625 c 1.37953,1.37953 2.88665,2.63869 4.51562,3.74609 12.3515,9.4715 31.69915,8.64713 43.63868,-1.64453 7.82362,-6.58771 12.35156,-16.87839 12.35156,-27.17383 v -55.77734 l 80.48437,80.48438 c 6.68221,6.6822 16.12121,10.8238 25.73633,10.28711 14.40756,0.41196 27.99361,-9.46729 32.52149,-23.05469 2.88,-7.40788 2.06054,-15.64318 2.06054,-23.4668 v -43.74805 l 80.48047,80.48047 c 8.70803,8.70803 22.2014,12.25694 34.38281,8.96875 11.52756,-3.29575 20.99514,-12.35134 24.28711,-23.8789 2.05985,-5.76378 1.64844,-11.93949 1.64844,-18.11524 v -47.43359 l 80.79886,80.79883 c 4.7849,4.7811 10.889,8.21331 17.5976,9.44922 6.9997,1.2359 14.8187,0.82321 21.8184,-2.46876 9.8797,-4.52787 17.2918,-13.99936 19.7637,-24.29101 0.8201,-4.11591 0.8203,-8.64203 0.8203,-12.76172 V 836.125 c 0,-27.99496 -4.9405,-55.57687 -14.4082,-81.92773 -12.0114,-33.9137 -31.9709,-64.86149 -57.4903,-90.38086 L 574.5,178.48438 c -19.09039,-19.0904 -41.29177,-35.14195 -65.60547,-47.12305 -33.50079,-16.93229 -71.10291,-25.66659 -108.66211,-25.65625 z"
       style="opacity:0.303571;fill:#000000;fill-opacity:1;stroke-width:4.117;filter:url(#filter21)"
       id="path895" />
    <path
       inkscape:label="logo"
       style="opacity:1;fill:#f4f4f4;fill-opacity:1;stroke-width:1.08929;filter:url(#filter21)"
       id="_x23_0da8ffff_1_"
       class="st0"
       d="m 101.63958,166.3612 c 11.32852,-0.7625 22.87495,1.52501 33.00527,6.64463 15.03211,7.40714 27.01424,20.69637 32.56956,36.38206 2.50535,6.97144 3.81249,14.2696 3.81249,21.67675 v 27.341 c 0,1.08931 0,2.28752 -0.21779,3.37679 -0.65356,2.72321 -2.61428,5.22856 -5.22856,6.42676 -1.85177,0.87144 -3.92142,0.98038 -5.77319,0.65358 -4.13926,-0.76251 -7.4071,-4.68393 -7.4071,-8.93212 0,-8.49641 0,-16.99282 0,-25.48923 0.10909,-2.39641 0.10909,-5.01069 -1.19825,-7.08033 -2.0696,-3.92143 -7.29817,-5.7732 -11.32852,-4.1393 -3.48572,1.19821 -5.99107,4.79286 -6.10001,8.49641 0,8.60535 0,17.2107 0,25.81604 0,1.63391 0.1091,3.26785 -0.43569,4.79282 -0.87145,3.05002 -3.37679,5.44644 -6.42677,6.31788 -4.03036,1.08927 -8.60534,-0.65358 -10.56605,-4.35717 -1.41608,-2.17854 -1.30714,-4.90175 -1.19821,-7.4071 0,-8.60534 0,-17.10175 0,-25.7071 -0.1091,-4.35712 -3.70359,-8.27854 -7.95178,-8.82322 -2.83215,-0.4357 -5.77319,0.54468 -7.842837,2.50539 -1.851775,1.74284 -2.832151,4.24818 -2.832151,6.75353 v 24.9446 c 0,2.06964 0.217789,4.24822 -0.544635,6.20894 -1.198204,3.59461 -4.792861,6.20889 -8.605346,6.09996 -3.92142,0.21778 -7.733914,-2.50535 -8.932123,-6.09996 -0.65357,-1.85182 -0.544643,-3.70359 -0.544643,-5.66431 0,-8.60535 0,-17.21065 0,-25.816 0,-4.24822 -3.376777,-8.16964 -7.516056,-8.93215 -3.812494,-0.76246 -7.951768,1.08931 -9.912478,4.57499 -0.762501,1.41608 -1.198214,3.05003 -1.198214,4.68393 v 27.99458 c 0,2.72321 -1.198213,5.44643 -3.26785,7.18927 -3.158923,2.72321 -8.278553,2.94109 -11.546403,0.43574 -2.39641,-1.63395 -3.812461,-4.46605 -3.812461,-7.40714 v -28.32139 c 0,-10.67495 2.723191,-21.34994 7.842825,-30.82668 4.139278,-7.73395 9.912478,-14.59641 16.774964,-20.04285 10.130336,-8.49641 23.092815,-13.5071 36.382088,-14.2696 z" />
  </g>
</svg>
