<?xml version="1.0" encoding="UTF-8" standalone="no"?>
<!-- Created with Inkscape (http://www.inkscape.org/) -->

<svg
   xmlns:dc="http://purl.org/dc/elements/1.1/"
   xmlns:cc="http://creativecommons.org/ns#"
   xmlns:rdf="http://www.w3.org/1999/02/22-rdf-syntax-ns#"
   xmlns:svg="http://www.w3.org/2000/svg"
   xmlns="http://www.w3.org/2000/svg"
   xmlns:sodipodi="http://sodipodi.sourceforge.net/DTD/sodipodi-0.dtd"
   xmlns:inkscape="http://www.inkscape.org/namespaces/inkscape"
   width="800"
   height="600"
   viewBox="0 0 211.66667 158.75"
   version="1.1"
   id="svg8"
   inkscape:version="0.92.4 5da689c313, 2019-01-14"
   sodipodi:docname="mBank.svg">
  <defs
     id="defs2">
    <clipPath
       clipPathUnits="userSpaceOnUse"
       id="clipPath1341">
      <rect
         inkscape:label="Shadow mask"
         id="rect1343"
         y="1.9875739e-05"
         x="0"
         height="600"
         width="800"
         style="display:inline;opacity:0.95999995;fill:#35bf5c;fill-opacity:1;stroke:none;stroke-width:1;stroke-opacity:1" />
    </clipPath>
  </defs>
  <sodipodi:namedview
     id="base"
     pagecolor="#ffffff"
     bordercolor="#666666"
     borderopacity="1.0"
     inkscape:pageopacity="0.0"
     inkscape:pageshadow="2"
     inkscape:zoom="0.35"
     inkscape:cx="45.90902"
     inkscape:cy="463.95296"
     inkscape:document-units="px"
     inkscape:current-layer="layer1"
     showgrid="true"
     units="px"
     inkscape:pagecheckerboard="true"
     inkscape:window-width="1366"
     inkscape:window-height="712"
     inkscape:window-x="0"
     inkscape:window-y="26"
     inkscape:window-maximized="1"
     inkscape:snap-nodes="true"
     inkscape:snap-object-midpoints="true"
     inkscape:snap-global="true"
     showguides="true"
     inkscape:guide-bbox="true">
    <inkscape:grid
       id="grid815"
       type="xygrid"
       units="px"
       spacingy="39.6875"
       spacingx="52.916667"
       empspacing="2" />
    <sodipodi:guide
       inkscape:locked="false"
       id="guide5335"
       orientation="0,1"
       position="162.52976,127.75595" />
    <sodipodi:guide
       inkscape:locked="false"
       id="guide5337"
       orientation="0,1"
       position="176.13691,31.75" />
  </sodipodi:namedview>
  <metadata
     id="metadata5">
    <rdf:RDF>
      <cc:Work
         rdf:about="">
        <dc:format>image/svg+xml</dc:format>
        <dc:type
           rdf:resource="http://purl.org/dc/dcmitype/StillImage" />
        <dc:title />
      </cc:Work>
    </rdf:RDF>
  </metadata>
  <g
     inkscape:label="Tile"
     inkscape:groupmode="layer"
     id="layer1"
     transform="translate(0,-138.25001)">
    <rect
       style="display:inline;opacity:0.95999995;fill:#fef0ef;fill-opacity:1;stroke:none;stroke-width:0.26458335;stroke-opacity:1"
       width="211.66667"
       height="158.75"
       x="0"
       y="138.25002"
       id="rect817"
       inkscape:label="Background" />
    <g
       id="Page-1"
       style="display:inline;opacity:0.91414143;fill:none;fill-rule:evenodd;stroke:none;stroke-width:1"
       transform="matrix(0.15921708,0,0,0.20731954,191.71471,119.14739)">
      <g
         transform="matrix(10.24381,0,0,15.343482,-1451.3836,-353.60612)"
         id="mBank_website_v7_1366">
        <g
           id="navi">
          <g
             transform="translate(24,29)"
             id="navi-/-logo-mass">
            <g
               id="logo-mass">
              <g
                 id="mBank-mass-logo">
                <g
                   id="pasiak">
                  <polygon
                     points="129.917,0.051232394 98.19092,0.051232394 98.19092,49.956866 129.917,49.956866 "
                     id="Fill-3"
                     style="fill:#18a035" />
                  <polygon
                     points="98.19092,0.051232394 94.562809,0.051232394 94.562809,49.956866 98.19092,49.956866 "
                     id="Fill-8"
                     style="fill:#0077bd" />
                  <polygon
                     points="94.562809,0.051232394 73.198437,0.051232394 73.198437,49.956866 94.562809,49.956866 "
                     id="Fill-4"
                     style="fill:#cc0b0a" />
                  <polygon
                     points="73.198437,0.051232394 42.0943,0.051232394 42.0943,49.956866 73.198437,49.956866 "
                     id="Fill-5"
                     style="fill:#f39100" />
                  <polygon
                     points="42.0943,0.051232394 36.776979,0.051232394 36.776979,49.956866 42.0943,49.956866 "
                     id="Fill-7"
                     style="fill:#201c17" />
                  <polygon
                     points="36.776979,0.051232394 0.13893322,0.051232394 0.13893322,49.956866 36.776979,49.956866 "
                     id="Fill-6"
                     style="fill:#e41e0a" />
                </g>
              </g>
            </g>
          </g>
        </g>
      </g>
    </g>
    <path
       style="display:inline;opacity:0.19191918;fill:#000000;fill-rule:evenodd;stroke:none;stroke-width:6.13402557"
       d="m 600,216.19531 v 20.60352 l 11.96094,11.96094 v 46.15039 l -29.95703,-29.95704 c -6.26809,-6.26808 -15.78663,-9.57617 -27.57422,-9.57617 -11.26855,0 -21.09631,3.57965 -28.19922,10.15821 l -8.30664,-8.30664 h -29.28125 v 20.60156 l 11.96484,11.96484 v 12.98242 l -36.09375,-36.09375 c -0.21305,-0.21309 -0.42891,-0.42412 -0.65039,-0.63086 -7.60286,-7.18692 -19.13847,-10.67968 -35.26367,-10.67968 -12.84472,0 -25.09606,2.35967 -34.49219,6.65234 l -0.36523,0.16211 v 11.99805 l -36.93164,-36.93164 c -0.37771,-0.37773 -0.76725,-0.74686 -1.16797,-1.10743 -7.51547,-6.69985 -18.21186,-9.43359 -36.90235,-9.43359 h -59.59375 v 21.42383 l 12.57813,12.57812 v 40.1836 L 235.5957,264.76953 c -6.08617,-6.08621 -15.52685,-9.38476 -27.09765,-9.38476 -16.73752,0 -26.06964,8.0068 -30.17578,12.82617 l -3.55469,-3.55469 c -6.15817,-6.15814 -15.18402,-9.27148 -26.90625,-9.27148 -11.22869,0 -21.12081,3.61629 -27.89063,10.04492 l -8.19336,-8.19336 H 82.490234 v 20.60351 l 11.966797,11.9668 v 68.65234 L 579.78906,843.78906 h 28.64649 v -31.98242 l 31.98242,31.98242 h 28.64648 v -41.5625 l 37.375,37.375 c 3.62438,3.62438 9.1585,5.46094 16.48828,5.46094 l -21.82812,-21.82812 c -10e-5,-0.003 10e-5,-0.007 0,-0.01 l 21.82812,21.82812 c 7.96377,0 14.77178,-2.72124 18.48633,-5.26562 l 0.25,-0.16211 0.5625,-10.67383 14.83008,14.83008 v -48.45508 l 48.45508,48.45508 c 16.11545,0 26.82581,-1.79999 34.71289,-5.83789 9.82857,-4.91755 15.68739,-12.57776 17.78711,-23.25586 l 21.22266,21.22266 c 6.25474,6.2547 15.52539,9.73437 27.06054,9.73437 l -36.02344,-36.02344 c 2.6e-4,-0.005 0.002,-0.0103 0.002,-0.0156 l 36.02344,36.02344 c 10.65739,0 20.33104,-3.62099 26.05273,-9.70508 l 3.86328,3.86328 c 3.36609,3.36608 8.52855,5.22461 14.83008,5.22461 6.89458,0 14.06562,-2.01908 18.70703,-5.26758 l 0.23242,-0.16211 0.72656,-11.0293 15.22852,15.22852 h 28.64836 v -33.22266 l 33.2227,33.22266 v -28.64063 l 28.6406,28.64063 v -20.8457 l 20.8438,20.84375 h 28.6425 v -38.78321 l 33.1856,33.18555 c 4.8206,4.82056 10.3817,6.83399 17.9668,6.83398 l -37.4492,-37.44921 -0.01,-0.01 37.4492,37.44922 c 6.3869,0 12.6939,-1.78408 16.4571,-4.66211 l 0.2324,-0.16211 0.9043,-17.84375 -35.5352,-35.53516 25.8125,-44.24414 -485.33001,-485.33007 h -17.98633 l -41.0332,-41.03321 z"
       id="path870"
       inkscape:connector-curvature="0"
       transform="matrix(0.26458334,0,0,0.26458334,0,138.25001)"
       clip-path="url(#clipPath1341)" />
    <path
       style="display:inline;fill:#fffffe;fill-rule:evenodd;stroke:none;stroke-width:1.62296093"
       inkscape:connector-curvature="0"
       d="m 79.799761,212.80076 h 3.439961 c 2.305105,0 3.600857,-0.33554 4.473115,-1.15633 0.757307,-0.70719 1.095108,-1.76531 1.095108,-3.42966 0,-0.97978 -0.207944,-2.33074 -1.199754,-3.20594 -0.83619,-0.78436 -2.165372,-1.10578 -4.587085,-1.10578 h -3.221345 z m 0,14.56696 h 4.205856 c 4.733136,0 6.495564,-1.33268 6.495564,-4.91379 0,-1.67581 -0.411593,-2.84987 -1.254285,-3.58767 -1.075663,-0.91403 -2.528323,-1.2706 -5.188097,-1.2706 h -4.259038 z m -7.90593,5.72206 v -29.18673 h -3.327948 v -5.66833 h 15.767229 c 4.94519,0 7.775613,0.72289 9.76408,2.49556 1.748136,1.5735 2.671552,3.76623 2.671552,6.33982 0,3.14848 -1.472105,5.74323 -4.039317,7.11848 l -0.173593,0.0932 0.189542,0.0552 c 3.988956,1.18436 6.097159,4.12256 6.097159,8.49882 0,4.19745 -1.61607,7.04474 -4.943779,8.7097 -2.086795,1.06836 -4.920347,1.54442 -9.18423,1.54442 z m 76.928369,0 v -16.30964 c 0,-1.65379 -0.13924,-2.80417 -0.84281,-3.77794 -0.70216,-0.92066 -1.84702,-1.40611 -3.30624,-1.40611 -1.51695,0 -2.75553,0.56188 -3.58485,1.6281 -0.87594,1.15123 -1.05628,2.64732 -1.05628,4.53801 v 15.32758 h -7.57981 v -21.33052 h -3.16534 v -5.45094 h 7.74733 l 1.24772,3.21822 0.0859,-0.10674 c 1.90069,-2.32301 4.85655,-3.60134 8.32516,-3.60134 3.16761,0 5.71562,0.90317 7.37261,2.61242 1.61355,1.71985 2.33455,3.94141 2.33455,7.20361 v 17.45541 z m 34.20511,0.32694 c -2.89385,0 -4.67401,-1.1086 -6.35927,-3.95276 l -4.86171,-8.15856 h -2.31314 v 11.7842 h -7.5784 V 200.90296 H 158.75 v -5.45119 h 10.74319 v 20.1864 h 2.63837 l 5.40211,-9.33003 h 7.57473 l -6.96795,11.94362 5.18779,8.59229 c 0.66045,1.09775 1.15712,1.45009 2.04595,1.45009 0.68014,0 1.45689,-0.26008 2.03275,-0.67892 l 0.27358,-0.19874 -0.23923,4.72118 -0.0613,0.0429 c -0.99568,0.76148 -2.66438,1.2335 -4.35424,1.2335 z m -120.163378,0.0123 c -2.237968,0 -3.843218,-0.6472 -4.769437,-1.92154 -0.675596,-0.93581 -1.017396,-2.39988 -1.017396,-4.35056 V 216.7825 c 0,-1.68526 -0.05459,-2.78104 -0.788185,-3.77794 -0.685594,-0.89465 -1.850452,-1.4061 -3.200207,-1.4061 -1.392909,0 -2.639207,0.57353 -3.418253,1.57356 -0.752467,1.0015 -1.05769,2.30044 -1.05769,4.48311 v 15.43701 H 41.033219 V 216.7825 c 0,-1.68636 -0.05337,-2.78214 -0.787333,-3.77794 -0.685023,-0.89465 -1.849593,-1.4061 -3.19706,-1.4061 -1.396625,0 -2.642354,0.57353 -3.4194,1.57356 -0.751326,1.0015 -1.057972,2.29983 -1.057972,4.48311 v 15.43701 h -7.579551 v -21.33052 h -3.166482 v -5.45094 h 7.749022 l 1.240582,3.20454 0.08858,-0.11287 c 1.750136,-2.27726 4.744577,-3.5819 8.218275,-3.5819 3.655456,0 6.319819,1.14461 7.919063,3.40334 l 0.05889,0.0847 0.06803,-0.0791 c 1.079975,-1.27348 3.551717,-3.40904 7.997082,-3.40904 3.597729,0 6.417264,1.20576 7.932491,3.39677 1.091409,1.54952 1.555803,3.48621 1.555803,6.47471 v 11.13786 c 0,1.3006 0.585002,1.47523 1.156565,1.47523 0.60414,0 1.560097,-0.36375 1.976769,-0.67578 l 0.275479,-0.20733 -0.240638,4.56862 -0.06631,0.0429 c -0.982805,0.6732 -2.784099,1.39297 -4.891179,1.39297 z m 51.080388,-13.43057 c -2.84557,0 -4.47655,1.5727 -4.47655,4.31173 0,2.70731 1.45211,4.25996 3.98442,4.25996 1.22656,0 2.33829,-0.4392 3.04701,-1.2038 0.6853,-0.7383 1.04886,-1.85181 1.04886,-3.21847 v -3.5451 l -0.0552,-0.0184 c -0.78533,-0.28278 -2.23082,-0.58518 -3.55055,-0.58518 z m -2.56433,13.58429 c -5.8886,0 -9.54663,-3.42708 -9.54663,-8.9431 0,-5.70465 3.93725,-9.10891 10.52943,-9.10891 1.65808,0 3.60484,0.29628 5.07866,0.77381 l 0.10673,0.0307 v -0.48275 c 0,-1.86701 -0.26008,-2.82361 -0.99714,-3.65765 -0.79816,-0.90465 -2.24426,-1.3644 -4.29732,-1.3644 -2.59806,0 -5.38156,0.69149 -7.83848,1.94725 l -0.23739,0.119 v -5.27606 l 0.0963,-0.0429 c 2.48606,-1.13577 5.72771,-1.76009 9.12621,-1.76009 4.26646,0 7.31838,0.92409 9.32997,2.82563 1.63613,1.52578 2.39663,3.71219 2.39663,6.88214 v 11.29243 c 0,1.04837 0.31712,1.47578 1.09308,1.47578 0.60727,0 1.62699,-0.37233 2.03251,-0.67713 l 0.2791,-0.20978 -0.30118,4.57199 -0.0613,0.0429 c -1.22804,0.8595 -3.1256,1.39377 -4.94979,1.39377 -2.27199,0 -3.98381,-0.91317 -4.69683,-2.5044 l -0.0491,-0.11225 -0.084,0.0908 c -1.49725,1.6841 -4.11814,2.68904 -7.00916,2.68904 z"
       id="name" />
  </g>
</svg>
