<?xml version="1.0" encoding="UTF-8" standalone="no"?>
<!-- Created with Inkscape (http://www.inkscape.org/) -->

<svg
   xmlns:dc="http://purl.org/dc/elements/1.1/"
   xmlns:cc="http://creativecommons.org/ns#"
   xmlns:rdf="http://www.w3.org/1999/02/22-rdf-syntax-ns#"
   xmlns:svg="http://www.w3.org/2000/svg"
   xmlns="http://www.w3.org/2000/svg"
   xmlns:sodipodi="http://sodipodi.sourceforge.net/DTD/sodipodi-0.dtd"
   xmlns:inkscape="http://www.inkscape.org/namespaces/inkscape"
   sodipodi:docname="Mega.svg"
   inkscape:version="0.92.4 5da689c313, 2019-01-14"
   id="svg8"
   version="1.1"
   viewBox="0 0 211.66667 158.75"
   height="600"
   width="800">
  <defs
     id="defs2" />
  <sodipodi:namedview
     id="base"
     pagecolor="#ffffff"
     bordercolor="#666666"
     borderopacity="1.0"
     inkscape:pageopacity="0.0"
     inkscape:pageshadow="2"
     inkscape:zoom="0.70710678"
     inkscape:cx="369.50201"
     inkscape:cy="317.37074"
     inkscape:document-units="px"
     inkscape:current-layer="layer1"
     showgrid="true"
     units="px"
     inkscape:pagecheckerboard="true"
     inkscape:window-width="1366"
     inkscape:window-height="712"
     inkscape:window-x="0"
     inkscape:window-y="26"
     inkscape:window-maximized="1"
     inkscape:snap-nodes="true"
     inkscape:snap-object-midpoints="true"
     inkscape:snap-global="false"
     showguides="true"
     inkscape:guide-bbox="true">
    <inkscape:grid
       id="grid815"
       type="xygrid"
       units="px"
       spacingy="39.6875"
       spacingx="52.916667"
       empspacing="2" />
    <sodipodi:guide
       inkscape:locked="false"
       id="guide5335"
       orientation="0,1"
       position="162.52976,127.75595" />
    <sodipodi:guide
       inkscape:locked="false"
       id="guide5337"
       orientation="0,1"
       position="176.13691,31.75" />
  </sodipodi:namedview>
  <metadata
     id="metadata5">
    <rdf:RDF>
      <cc:Work
         rdf:about="">
        <dc:format>image/svg+xml</dc:format>
        <dc:type
           rdf:resource="http://purl.org/dc/dcmitype/StillImage" />
        <dc:title />
      </cc:Work>
    </rdf:RDF>
  </metadata>
  <g
     inkscape:label="Tile"
     inkscape:groupmode="layer"
     id="layer1"
     transform="translate(0,-138.25001)"
     style="display:inline">
    <rect
       style="opacity:0.95999995;fill:#da262e;fill-opacity:1;stroke:none;stroke-width:0.26458335;stroke-opacity:1"
       width="211.66667"
       height="158.75"
       x="0"
       y="138.25002"
       id="rect817"
       inkscape:label="Background" />
    <rect
       inkscape:label="Shadow mask"
       id="rect1009"
       y="138.25002"
       x="0"
       height="158.75"
       width="211.66667"
       style="display:none;opacity:0.95999995;fill:#35bf5c;fill-opacity:1;stroke:none;stroke-width:0.26458335;stroke-opacity:1" />
    <g
       id="g1929"
       inkscape:label="M MEGA"
       style="display:none">
      <path
         inkscape:label="M MEGA shadow"
         transform="matrix(0.26458334,0,0,0.26458334,0,138.25001)"
         inkscape:connector-curvature="0"
         id="path992"
         d="m 163.13086,185.59375 c -5.56811,0 -11.13711,0.26228 -14.76953,0.78516 -21.74221,3.12979 -40.46691,11.12468 -57.089846,24.37695 -4.809222,3.83407 -13.505781,12.53058 -17.339843,17.33984 -13.252332,16.62293 -21.249152,35.34958 -24.378907,57.0918 -1.045753,7.26482 -1.045753,22.27225 0,29.53711 3.770741,26.19522 14.553128,48.0258 32.667969,66.14062 L 567.55273,866.19727 c 13.16965,13.16961 28.35839,22.47178 45.91993,28.12304 8.09779,2.60587 19.23887,4.7409 27.71484,5.31055 h 0.002 c 4.87181,0.32731 17.18544,-0.13476 22.28516,-0.83594 31.33969,-4.3079 58.98002,-20.68817 77.3418,-45.83594 11.53081,-15.79222 18.31153,-32.69544 21.22461,-52.90234 1.01419,-7.03862 1.02728,-21.45483 0.0586,-28.93945 l 57.19922,57.19922 c 1.05229,1.05229 1.16975,1.05664 9.91406,1.05664 8.81609,0 8.86236,-0.004 9.93945,-1.08203 l 1.08204,-1.08204 v -23.82617 c 0,-13.10441 0.14217,-23.82617 0.3164,-23.82617 0.17462,0 7.66393,7.32765 16.64258,16.2832 8.97861,8.95563 16.88382,16.49344 17.56641,16.75196 1.52167,0.57581 4.30027,0.60786 5.67382,0.0664 0.40673,-0.16046 4.66734,-4.21964 10.36329,-9.83203 l 25.49023,25.49024 c 1.05335,1.05335 1.16665,1.05664 9.91406,1.05664 8.81617,0 8.86233,-0.004 9.93945,-1.08203 l 1.08204,-1.08204 v -17.54296 l 19.14843,19.14843 c 0.13078,0.13077 0.25248,0.22475 0.34961,0.26367 v 0.002 c 0.30803,0.12434 16.39028,0.24087 35.73828,0.25976 l 35.17776,0.0352 1.0821,-1.08203 c 1.0631,-1.06371 1.082,-1.21005 1.082,-8.54883 0,-6.69316 -0.087,-7.57284 -0.8418,-8.50586 l -0.8418,-1.04101 -16.1719,-16.17188 16.1719,-0.14062 0.8418,-1.04102 c 0.3948,-0.48767 0.6018,-1.02055 0.7148,-2.21875 l 27.6719,27.67188 c 0.3432,0.34318 0.6846,0.66776 1.0215,0.97265 6.6571,6.02479 15.958,10.51235 24.5566,11.84766 v 0 c 1.4548,0.22564 5.2229,0.33888 8.375,0.25195 11.9787,-0.33109 21.8943,-4.49498 30.6738,-12.88281 0.9157,-0.87488 1.786,-1.80389 2.627,-2.76367 l 12.7695,12.76757 c 0.8231,0.82311 1.4695,0.88282 9.7207,0.88282 7.1977,0 9.0894,-0.12958 10.1875,-0.69727 1.1254,-0.58197 2.0382,-2.13099 5.5254,-9.36523 2.2981,-4.76761 4.4091,-8.81695 4.6914,-8.9961 0.6008,-0.3823 18.5937,-0.42723 29.7402,-0.23633 l 17.9727,17.97266 0.078,0.0781 c 1.0165,1.0165 1.298,1.02656 10.082,1.1582 9.8649,0.14778 11.1934,-0.11983 11.1934,-2.25391 0,-0.91789 -39.1671,-82.23465 -40.2422,-83.54882 -0.023,-0.0265 -0.047,-0.0526 -0.076,-0.082 L 710.91211,258.07031 c -0.33978,-0.33978 -1.22327,-0.91946 -2.06641,-1.34961 -1.39271,-0.7104 -2.60774,-0.84961 -7.42773,-0.84961 -6.21789,0 -7.84654,0.38918 -9.60742,2.30079 -0.55852,0.60632 -11.03542,21.85489 -21.21875,42.76757 L 634.18555,264.5332 c -0.49557,-0.49557 -1.128,-1.02643 -1.90821,-1.61914 -4.11288,-3.12442 -10.95019,-6.39181 -16.17773,-7.72851 -20.61786,-5.27193 -41.73365,4.02702 -52.00195,22.47656 l -20.70899,-20.70899 -1.08203,-1.08203 h -35.0332 c -19.26754,0 -35.35164,0.12264 -35.74414,0.27344 -1.54002,0.59066 -1.89417,0.64286 -1.97657,19.55078 l -17.66211,-17.66015 -1.09179,-1.0918 c -1.04515,-1.04496 -1.26511,-1.07163 -7.59571,-1.05274 -4.07489,0.0124 -6.97921,0.21894 -7.74218,0.55079 -0.6717,0.29215 -10.39635,9.70564 -21.60938,20.91992 -15.83954,15.84113 -20.63008,20.39062 -21.47265,20.39062 -0.84212,0 -5.66672,-4.57702 -21.59375,-20.47851 -11.2809,-11.26281 -21.06938,-20.68509 -21.75196,-20.93946 -0.68261,-0.25492 -4.11394,-0.46289 -7.625,-0.46289 -6.18998,0 -6.41755,0.0328 -7.46679,1.08203 l -1.08203,1.08204 v 41.91992 7.93945 l -88.83399,-88.83398 c -3.25462,-3.25463 -6.63058,-6.38768 -9.03516,-8.30469 -16.62292,-13.25227 -35.34958,-21.24716 -57.09179,-24.37695 -3.63244,-0.52288 -9.19948,-0.78516 -14.76758,-0.78516 z"
         style="display:inline;opacity:0.29292932;fill:#000000;fill-opacity:0.95686275;stroke-width:0.44085506" />
      <path
         inkscape:label="M MEGA"
         style="display:inline;fill:#f4f4f4;fill-opacity:0.95686275;stroke-width:0.1166429"
         d="m 41.23705,247.86656 c -2.242599,-0.15072 -5.190319,-0.71547 -7.332853,-1.40494 -4.646511,-1.49523 -8.665364,-3.95651 -12.149839,-7.441 -4.792901,-4.79289 -7.645798,-10.56893 -8.643475,-17.49976 -0.276689,-1.92216 -0.276689,-5.89292 0,-7.81507 0.828081,-5.75263 2.94366,-10.70711 6.450006,-15.10526 1.014429,-1.27245 3.315534,-3.57356 4.587974,-4.58799 4.398152,-3.50633 9.352635,-5.62191 15.105261,-6.45 1.922159,-0.27669 5.892909,-0.27669 7.815073,0 5.752626,0.82809 10.707109,2.94367 15.105258,6.45 1.272444,1.01443 3.573545,3.31554 4.587979,4.58799 3.507125,4.39913 5.629261,9.37015 6.448439,15.10526 0.276085,1.93282 0.277034,5.90633 0.002,7.81507 -0.770745,5.34641 -2.565185,9.81879 -5.616044,13.99715 -4.858227,6.65368 -12.171385,10.98783 -20.463348,12.12763 -1.349299,0.18547 -4.607285,0.30755 -5.896287,0.22092 z m -8.276344,-18.87526 0.286303,-0.2863 v -6.30401 c 0,-3.46722 0.03844,-6.30403 0.08546,-6.30403 0.047,0 2.054715,1.96418 4.461589,4.36484 3.833928,3.82403 4.437559,4.38099 4.871873,4.49524 1.07811,0.28363 1.042106,0.31124 5.864739,-4.49627 2.407646,-2.40008 4.415362,-4.36381 4.46159,-4.36381 0.04623,0 0.08405,2.83681 0.08405,6.30403 v 6.30401 l 0.286304,0.2863 c 0.284978,0.28499 0.297172,0.28631 2.629767,0.28631 2.3326,0 2.34479,-0.001 2.629767,-0.28631 l 0.286309,-0.2863 v -11.09167 -11.09169 l -0.286309,-0.28631 c -0.278492,-0.27849 -0.333965,-0.2863 -2.033656,-0.2863 -0.961042,0 -1.895117,0.0552 -2.075713,0.12291 -0.1806,0.0675 -2.769857,2.56084 -5.753908,5.54055 -2.984051,2.97969 -5.502797,5.41763 -5.597207,5.41763 -0.09442,0 -2.613155,-2.43794 -5.597206,-5.41763 -2.984052,-2.97971 -5.573312,-5.47294 -5.753913,-5.54055 -0.180596,-0.0675 -1.114667,-0.12291 -2.075713,-0.12291 -1.699691,0 -1.75516,0.008 -2.033657,0.2863 l -0.286304,0.28631 v 11.09169 11.09167 l 0.286304,0.2863 c 0.284979,0.28499 0.297172,0.28631 2.629768,0.28631 2.332595,0 2.344789,-0.001 2.629767,-0.28631 z m 125.152534,0.74791 c -2.27506,-0.3533 -4.7364,-1.54076 -6.49777,-3.13482 -0.95224,-0.86179 -2.02196,-2.33357 -2.67747,-3.68382 -1.60618,-3.30845 -1.64093,-7.1165 -0.095,-10.41536 2.53233,-5.40388 8.42365,-8.20557 14.16654,-6.73713 1.38312,0.35367 3.19252,1.21787 4.28072,2.04454 0.82427,0.62617 1.02005,0.99454 0.81201,1.52795 -0.0607,0.1555 -0.73691,0.89947 -1.50283,1.65327 -1.23726,1.21772 -1.4376,1.37055 -1.7965,1.37055 -0.25485,0 -0.5522,-0.11226 -0.80569,-0.30418 -2.61965,-1.98347 -6.54219,-1.66821 -8.92793,0.71755 -1.56093,1.56093 -2.31063,4.01592 -1.86845,6.11864 1.14226,5.43211 7.6923,7.45186 11.56117,3.56497 0.81605,-0.81987 1.78612,-2.3839 1.63261,-2.63228 -0.0445,-0.0719 -1.1522,-0.1162 -2.91314,-0.1162 -1.56273,0 -2.92629,-0.0326 -3.03014,-0.0724 -0.39044,-0.14982 -0.53012,-0.68395 -0.53012,-2.02711 0,-1.34317 0.13968,-1.87729 0.53012,-2.02712 0.10385,-0.0399 2.4022,-0.0712 5.10745,-0.0699 4.53249,0.002 4.95524,0.0195 5.38518,0.2179 0.91178,0.42082 1.22475,0.98845 1.22475,2.22136 0,2.99983 -1.43657,6.25644 -3.72382,8.44168 -2.32291,2.21928 -4.94608,3.3211 -8.11544,3.40873 -0.83398,0.023 -1.83129,-0.007 -2.21621,-0.0667 z M 88.355492,228.9913 88.069183,228.705 v -11.09167 -11.09169 l 0.286309,-0.28631 c 0.277612,-0.27761 0.337559,-0.2863 1.975326,-0.2863 0.928966,0 1.836793,0.055 2.017402,0.12245 0.180598,0.0673 2.770407,2.5606 5.755143,5.54055 4.214027,4.20727 5.490917,5.41809 5.713727,5.41809 0.22293,0 1.49022,-1.20344 5.6811,-5.39474 2.96678,-2.96711 5.53955,-5.45798 5.71727,-5.53528 0.20187,-0.0878 0.97076,-0.14252 2.04891,-0.14581 1.68012,-0.005 1.73336,0.002 2.0121,0.28104 l 0.28629,0.28631 v 11.09169 11.09167 l -0.28629,0.2863 c -0.28499,0.28499 -0.29717,0.28631 -2.62978,0.28631 -2.33261,0 -2.34479,-0.001 -2.62978,-0.28631 l -0.28629,-0.2863 v -6.30401 c 0,-5.01075 -0.0303,-6.30403 -0.1478,-6.30403 -0.0813,0 -2.089,1.94669 -4.4616,4.32598 -2.37258,2.37929 -4.4353,4.37388 -4.58383,4.43244 -0.36342,0.14326 -1.09856,0.13455 -1.50117,-0.0178 -0.1806,-0.0684 -2.27203,-2.06293 -4.647617,-4.43244 -2.3756,-2.36949 -4.357063,-4.30818 -4.403267,-4.30818 -0.04618,0 -0.08405,2.83681 -0.08405,6.30402 v 6.30402 l -0.286309,0.28629 c -0.284979,0.28499 -0.297172,0.28632 -2.629767,0.28632 -2.332594,0 -2.344787,-0.001 -2.629766,-0.28632 z m 36.366268,0.20825 c -0.0816,-0.0328 -0.22589,-0.20978 -0.32076,-0.39325 -0.14863,-0.28742 -0.17253,-1.837 -0.17253,-11.19297 0,-11.53241 -0.007,-11.38584 0.53013,-11.59185 0.10385,-0.0399 4.35981,-0.0725 9.45768,-0.0725 h 9.26889 l 0.28631,0.2863 c 0.28142,0.28145 0.28629,0.3199 0.28629,2.26162 0,1.77091 -0.0231,2.00381 -0.22292,2.25068 l -0.22294,0.27536 -6.74649,0.0584 -6.74648,0.0584 v 2.04125 2.04124 l 6.74648,0.0584 6.74649,0.0584 0.22294,0.27536 c 0.197,0.24334 0.22292,0.47588 0.22292,1.99917 0,1.52329 -0.0259,1.75583 -0.22292,1.99916 l -0.22294,0.27538 -6.74649,0.0583 -6.74648,0.0584 v 2.04125 2.04125 l 6.74648,0.0583 6.74649,0.0584 0.22294,0.27538 c 0.19985,0.24686 0.22292,0.47977 0.22292,2.25067 0,1.94172 -0.005,1.98018 -0.28629,2.26162 l -0.28631,0.28629 -9.30758,-0.009 c -5.11916,-0.005 -9.37429,-0.036 -9.45583,-0.0689 z m 47.79688,-0.15522 c -0.12831,-0.1283 -0.23328,-0.31104 -0.23328,-0.40605 0,-0.28123 10.46566,-21.7646 10.75644,-22.08027 0.4659,-0.50578 0.89659,-0.60898 2.54174,-0.60898 1.27529,0 1.59683,0.0368 1.96532,0.22476 0.24231,0.12362 0.49739,0.29421 0.56682,0.37909 0.28446,0.34771 10.64761,21.86313 10.64761,22.10599 0,0.5646 -0.35176,0.63542 -2.96183,0.59634 -2.3823,-0.0357 -2.40095,-0.038 -2.68818,-0.32752 -0.15908,-0.1604 -0.75764,-1.2446 -1.33013,-2.40938 -0.57249,-1.16477 -1.07638,-2.17519 -1.11977,-2.24536 -0.0907,-0.14682 -9.94489,-0.18332 -10.17377,-0.0377 -0.0747,0.0474 -0.63322,1.11843 -1.24126,2.37986 -0.92264,1.91406 -1.16458,2.32403 -1.46234,2.47801 -0.29053,0.15024 -0.79105,0.1845 -2.69543,0.1845 -2.18313,0 -2.35416,-0.0155 -2.57194,-0.23328 z m 15.91367,-9.20171 c 0.0351,-0.057 -0.5649,-1.39936 -1.33355,-2.98312 -1.01665,-2.09481 -1.44617,-2.86926 -1.57603,-2.84168 -0.19018,0.0404 -2.84797,5.37266 -2.85315,5.72424 -0.003,0.18892 0.20937,0.20412 2.84786,0.20412 1.56797,0 2.87967,-0.0465 2.91487,-0.10356 z"
         id="path833"
         inkscape:connector-curvature="0" />
    </g>
    <g
       id="g1925"
       inkscape:label="MEGA"
       style="display:inline">
      <path
         inkscape:label="MEGA shadow"
         transform="matrix(0.26458334,0,0,0.26458334,0,138.25001)"
         inkscape:connector-curvature="0"
         id="path1541"
         d="m 487.17578,234.94922 c -23.04039,0.3013 -44.49353,12.86182 -56.10547,33.72461 l -29.14453,-29.14258 -1.55859,-1.55859 h -49.35938 c -27.14701,0 -49.81026,0.17235 -50.36328,0.38476 -2.16963,0.83221 -2.66901,0.9062 -2.78515,27.54688 l -24.88282,-24.88282 -1.56054,-1.56054 c -1.45361,-1.45308 -1.80537,-1.4874 -10.67969,-1.46094 -5.74133,0.0175 -9.83516,0.30978 -10.91016,0.77734 -0.94638,0.41163 -14.6467,13.67426 -30.44531,29.47461 -22.31715,22.3194 -29.06676,28.72852 -30.25391,28.72852 -1.1865,0 -7.98536,-6.44717 -30.42578,-28.85156 -15.89422,-15.86877 -29.68477,-29.14523 -30.64648,-29.50391 -0.96178,-0.35879 -5.79724,-0.65234 -10.74414,-0.65234 -8.7214,0 -9.03925,0.0451 -10.51758,1.52343 l -1.52539,1.52539 v 59.06446 59.0664 l 485.33203,485.33008 1.57812,1.58008 c 1.46646,1.46646 1.67812,1.4707 13.94922,1.4707 12.42146,0 12.48635,-0.008 14.00391,-1.52539 l 1.52539,-1.52539 v -33.56836 c 0,-18.46348 0.20152,-33.57031 0.44727,-33.57031 0.24604,0 10.79677,10.32345 23.44726,22.94141 12.65038,12.61802 23.78826,23.23917 24.75,23.60351 2.14398,0.81101 6.05887,0.85669 7.99414,0.0937 0.57305,-0.22591 6.57616,-5.94577 14.60156,-13.85351 l 35.93164,35.93164 c 1.46714,1.46713 1.67811,1.4707 13.95118,1.4707 12.42157,0 12.48631,-0.006 14.0039,-1.52344 l 1.52344,-1.52539 v -24.71875 l 26.98242,26.98242 c 0.18444,0.18444 0.35342,0.31592 0.49024,0.3711 0.43423,0.17537 23.09509,0.34073 50.35547,0.36719 l 49.56445,0.0488 1.52344,-1.52539 c 1.49809,-1.49873 1.52539,-1.70301 1.52539,-12.04297 0,-9.43033 -0.12323,-10.66978 -1.1875,-11.98437 l -1.1875,-1.4668 -22.78516,-22.78515 22.78516,-0.19727 1.1875,-1.4668 c 0.56039,-0.69212 0.85538,-1.40358 1.01367,-3.11914 l 38.98047,38.98047 c 0.48332,0.48333 0.96474,0.94148 1.43945,1.3711 9.37965,8.48866 22.48648,14.81202 34.60156,16.69335 2.04979,0.32126 7.35965,0.47793 11.80078,0.35547 16.87741,-0.46662 30.84682,-6.33429 43.21682,-18.15234 1.29,-1.2325 2.5184,-2.54048 3.7031,-3.89258 l 17.9902,17.98828 v 0.002 c 1.1596,1.15952 2.0711,1.24218 13.6954,1.24218 10.1411,0 12.8063,-0.18244 14.3535,-0.98242 1.5856,-0.81993 2.8738,-3.0046 7.7871,-13.19726 3.2379,-6.7174 6.2135,-12.41941 6.6113,-12.67188 0.8466,-0.53894 26.1976,-0.60299 41.9023,-0.33398 l 25.3204,25.32031 0.1074,0.10742 c 1.4348,1.43478 1.8216,1.45111 14.207,1.63672 13.8991,0.20825 15.7735,-0.16909 15.7735,-3.17578 0,-1.29324 -55.1864,-115.86509 -56.7012,-117.7168 -0.03,-0.034 -0.064,-0.0756 -0.1055,-0.11719 L 637.92578,241.07227 c -0.47868,-0.47868 -1.72416,-1.29818 -2.91211,-1.9043 -1.96222,-1.00067 -3.67364,-1.19531 -10.46484,-1.19531 -8.76068,0 -11.05413,0.54885 -13.53516,3.24218 -0.7869,0.8543 -15.55049,30.7926 -29.89844,60.25782 l -51.29492,-51.29493 c -0.69827,-0.69826 -1.58815,-1.44612 -2.6875,-2.28125 -5.79477,-4.4022 -15.42957,-9.00533 -22.79492,-10.88867 -5.73409,-1.4662 -11.49556,-2.13269 -17.16211,-2.05859 z"
         style="display:inline;opacity:0.28787878;fill:#000000;fill-opacity:0.95686275;stroke-width:0.62114334" />
      <path
         style="display:inline;fill:#f4f4f4;fill-opacity:0.95686275;stroke-width:0.16434418"
         d="m 126.5407,234.73265 c -3.20545,-0.49777 -6.67335,-2.17085 -9.15505,-4.41681 -1.34166,-1.21421 -2.84884,-3.28787 -3.77242,-5.19031 -2.26302,-4.66145 -2.31199,-10.02681 -0.13385,-14.67474 3.56793,-7.61381 11.86852,-11.56125 19.95996,-9.49228 1.94875,0.4983 4.49812,1.71591 6.03132,2.88066 1.16137,0.88223 1.43722,1.40124 1.14409,2.1528 -0.0856,0.21909 -1.03827,1.26731 -2.11742,2.32937 -1.74323,1.71572 -2.02551,1.93104 -2.53117,1.93104 -0.35906,0 -0.77802,-0.15817 -1.13518,-0.42858 -3.69095,-2.79461 -9.21762,-2.35042 -12.57901,1.011 -2.19928,2.19927 -3.25557,5.65824 -2.63256,8.62087 1.60939,7.65357 10.83808,10.4993 16.28913,5.02288 1.14977,-1.15517 2.51654,-3.35881 2.30026,-3.70877 -0.0627,-0.10128 -1.62339,-0.16372 -4.10446,-0.16372 -2.20182,0 -4.12301,-0.0459 -4.26932,-0.10198 -0.55012,-0.21109 -0.74693,-0.96365 -0.74693,-2.8561 0,-1.89247 0.19681,-2.64501 0.74693,-2.85611 0.14631,-0.0562 3.38457,-0.10039 7.19615,-0.0985 6.38606,0.002 6.98168,0.0274 7.58744,0.30701 1.28466,0.59291 1.72561,1.39268 1.72561,3.12978 0,4.22662 -2.02406,8.81504 -5.24666,11.89393 -3.27289,3.12686 -6.96879,4.67927 -11.43427,4.80273 -1.17505,0.0324 -2.58019,-0.009 -3.12253,-0.094 z m -98.285275,-1.05376 -0.403395,-0.40338 v -15.62762 -15.62766 l 0.403395,-0.40339 c 0.391142,-0.39115 0.475604,-0.40338 2.783139,-0.40338 1.308868,0 2.587951,0.0776 2.842421,0.17253 0.254453,0.0949 3.903369,3.60776 8.108716,7.80637 5.93736,5.92783 7.736435,7.6338 8.050363,7.6338 0.314099,0 2.099648,-1.69558 8.004394,-7.60092 4.180049,-4.18051 7.804957,-7.69002 8.055355,-7.79893 0.284426,-0.12371 1.367755,-0.20081 2.886815,-0.20544 2.367207,-0.007 2.44222,0.002 2.834951,0.39597 l 0.403369,0.40339 v 15.62766 15.62762 l -0.403369,0.40338 c -0.401536,0.40155 -0.418697,0.40341 -3.705232,0.40341 -3.286534,0 -3.303695,-0.001 -3.705233,-0.40341 l -0.403368,-0.40338 v -8.88204 c 0,-7.05991 -0.04269,-8.88208 -0.208244,-8.88208 -0.114548,0 -2.943299,2.74279 -6.286177,6.09509 -3.342849,3.35232 -6.249122,6.1626 -6.458393,6.2451 -0.512041,0.20186 -1.547818,0.18958 -2.115076,-0.025 -0.254457,-0.0964 -3.201179,-2.90658 -6.548266,-6.2451 -3.347105,-3.3385 -6.13889,-6.07002 -6.203989,-6.07002 -0.06505,0 -0.118421,3.99694 -0.118421,8.88207 v 8.88205 l -0.403395,0.40337 c -0.401521,0.40154 -0.418701,0.40341 -3.705214,0.40341 -3.286511,0 -3.303691,-0.001 -3.705211,-0.40341 z m 51.238303,0.29341 c -0.11497,-0.0462 -0.318269,-0.29557 -0.451935,-0.55407 -0.209414,-0.40495 -0.243087,-2.58823 -0.243087,-15.77034 0,-16.24861 -0.0098,-16.0421 0.746927,-16.33236 0.14632,-0.0562 6.142761,-0.10209 13.325407,-0.10209 h 13.05943 l 0.40339,0.40338 c 0.3965,0.39655 0.40337,0.45071 0.40337,3.18651 0,2.49513 -0.0325,2.82326 -0.31409,3.17109 l -0.31412,0.38797 -9.50547,0.0822 -9.505462,0.0822 v 2.87602 2.87601 l 9.505462,0.0822 9.50547,0.0824 0.31412,0.38797 c 0.27757,0.34285 0.31409,0.67049 0.31409,2.81673 0,2.14625 -0.0365,2.47388 -0.31409,2.81672 l -0.31412,0.38801 -9.50547,0.0821 -9.505462,0.0822 v 2.87602 2.87602 l 9.505462,0.0821 9.50547,0.0822 0.31412,0.38801 c 0.28157,0.34782 0.31409,0.67597 0.31409,3.17108 0,2.73578 -0.007,2.78997 -0.40337,3.18651 l -0.40339,0.40337 -13.113941,-0.0128 c -7.212645,-0.007 -13.207916,-0.0507 -13.322801,-0.0971 z m 67.343482,-0.21869 c -0.18078,-0.18078 -0.32868,-0.43824 -0.32868,-0.57212 0,-0.39623 14.74561,-30.66525 15.15529,-31.11002 0.65644,-0.71261 1.26326,-0.85801 3.58119,-0.85801 1.79684,0 2.24987,0.0519 2.76904,0.31666 0.34141,0.17419 0.70081,0.41453 0.79862,0.53411 0.4008,0.48993 15.00197,30.80411 15.00197,31.14628 0,0.7955 -0.49561,0.89529 -4.17307,0.84022 -3.35655,-0.0503 -3.38282,-0.0537 -3.78752,-0.46146 -0.22414,-0.22599 -1.06747,-1.75358 -1.87409,-3.3947 -0.8066,-1.6411 -1.51657,-3.06473 -1.5777,-3.16361 -0.12779,-0.20686 -14.01186,-0.25828 -14.33434,-0.053 -0.10525,0.0668 -0.89218,1.5758 -1.74888,3.35311 -1.29996,2.69681 -1.64084,3.27444 -2.06037,3.49138 -0.40935,0.21169 -1.11455,0.25996 -3.79772,0.25996 -3.07593,0 -3.3169,-0.0218 -3.62374,-0.32869 z m 22.42158,-12.96477 c 0.0495,-0.0803 -0.7959,-1.97162 -1.8789,-4.20306 -1.4324,-2.95149 -2.03759,-4.04264 -2.22056,-4.00379 -0.26795,0.0569 -4.01263,7.56981 -4.01994,8.06517 -0.005,0.26618 0.29499,0.2876 4.01249,0.2876 2.2092,0 4.05732,-0.0655 4.10691,-0.14592 z"
         id="path1527"
         inkscape:connector-curvature="0"
         inkscape:label="MEGA"
         sodipodi:nodetypes="cccccsccscccccscscccscccccccccscssccccccccsccssccccssccsccccscsccscccccccccscccccccccsccccccsssccscccccccsccccccsc" />
    </g>
    <g
       id="g1933"
       style="display:none"
       inkscape:label="M">
      <path
         inkscape:label="M shadow"
         transform="matrix(0.26458334,0,0,0.26458334,0,138.25001)"
         inkscape:connector-curvature="0"
         id="path861"
         d="m 202.91602,129.52734 c -23.93571,0 -24.81188,0.12838 -28.86914,4.18555 l -4.1836,4.18359 V 300 462.10352 l 4.27734,4.27734 481.05469,481.05273 4.27735,4.2793 c 4.07591,4.07592 4.50664,4.08984 38.33984,4.08984 34.09047,0 34.26867,-0.018 38.43359,-4.18359 l 4.1836,-4.18555 v -92.13086 c 0,-50.6728 0.55368,-92.13281 1.22851,-92.13281 0.67529,0 29.63448,28.33312 64.35352,62.96289 34.7187,34.62996 65.28451,63.78029 67.92383,64.7793 5.88415,2.22686 16.62819,2.35543 21.93945,0.26172 1.57598,-0.62129 17.98131,-16.24839 40.07617,-38.02149 l 98.55473,98.55664 c 4.08,4.07997 4.4985,4.09375 38.3437,4.09375 34.0907,0 34.2686,-0.0182 38.4336,-4.18359 l 4.1856,-4.18555 V 785.33203 623.22852 l -4.2149,-4.21485 -485.33202,-485.33203 c -4.04754,-4.047 -4.88087,-4.15063 -29.375,-4.07617 -15.75697,0.048 -26.99509,0.84737 -29.94532,2.13086 -2.5974,1.1297 -40.19756,37.5326 -83.55664,80.89648 -61.24902,61.2553 -79.77127,78.84375 -83.0293,78.84375 -3.25636,0 -21.91652,-17.6951 -83.5039,-79.18359 -43.62145,-43.5515 -81.47192,-79.99065 -84.11133,-80.97461 -2.63956,-0.98532 -15.90769,-1.79102 -29.48437,-1.79102 z"
         style="display:inline;opacity:0.29292932;fill:#000000;fill-opacity:0.95686275;stroke-width:1.7047174" />
      <path
         inkscape:label="M"
         inkscape:connector-curvature="0"
         id="path850"
         d="m 46.050062,261.62189 -1.107112,-1.1071 v -42.88976 -42.88982 l 1.107112,-1.10711 c 1.073484,-1.07346 1.305286,-1.10706 7.638276,-1.10706 3.592165,0 7.102593,0.21279 7.800977,0.47349 0.698344,0.26034 10.712732,9.90144 22.25424,21.42444 16.294995,16.26883 21.232515,20.95088 22.094095,20.95088 0.86202,0 5.76245,-4.65348 21.96792,-20.86061 11.47209,-11.47336 21.42057,-21.10514 22.1078,-21.40404 0.78058,-0.33959 3.75378,-0.55112 7.92281,-0.56383 6.49675,-0.0198 6.70266,0.008 7.78047,1.08673 l 1.10707,1.10711 v 42.88982 42.88976 l -1.10707,1.1071 c -1.10199,1.10198 -1.14911,1.1071 -10.16895,1.1071 -9.01982,0 -9.06693,-0.004 -10.16893,-1.1071 l -1.10705,-1.1071 v -24.37661 c 0,-19.3758 -0.11729,-24.37668 -0.57153,-24.37668 -0.31423,0 -8.07783,7.52754 -17.25229,16.72789 -9.17439,9.20033 -17.15062,16.91309 -17.72496,17.13951 -1.40527,0.55396 -4.24795,0.52029 -5.8048,-0.0689 -0.69832,-0.26432 -8.78562,-7.97702 -17.971608,-17.13953 -9.186074,-9.16246 -16.848079,-16.65905 -17.026744,-16.65905 -0.178553,0 -0.32501,10.96947 -0.32501,24.37665 v 24.37664 l -1.107111,1.10705 c -1.101968,1.102 -1.149119,1.10715 -10.168896,1.10715 -9.019777,0 -9.066924,-0.004 -10.168896,-1.10715 z"
         style="display:inline;fill:#f4f4f4;fill-opacity:0.95686275;stroke-width:0.45103982"
         sodipodi:nodetypes="cccccsccsccccccccsccssccccssccscc" />
    </g>
  </g>
</svg>
