<?xml version="1.0" encoding="UTF-8" standalone="no"?>
<!-- Created with Inkscape (http://www.inkscape.org/) -->

<svg
   xmlns:dc="http://purl.org/dc/elements/1.1/"
   xmlns:cc="http://creativecommons.org/ns#"
   xmlns:rdf="http://www.w3.org/1999/02/22-rdf-syntax-ns#"
   xmlns:svg="http://www.w3.org/2000/svg"
   xmlns="http://www.w3.org/2000/svg"
   xmlns:sodipodi="http://sodipodi.sourceforge.net/DTD/sodipodi-0.dtd"
   xmlns:inkscape="http://www.inkscape.org/namespaces/inkscape"
   sodipodi:docname="MilleniumBank.svg"
   inkscape:version="0.92.4 5da689c313, 2019-01-14"
   id="svg8"
   version="1.1"
   viewBox="0 0 211.66667 158.75"
   height="600"
   width="800">
  <defs
     id="defs2">
    <clipPath
       clipPathUnits="userSpaceOnUse"
       id="clipPath1699">
      <rect
         style="display:inline;opacity:0.95999995;fill:#35bf5c;fill-opacity:1;stroke:none;stroke-width:1;stroke-opacity:1"
         width="800"
         height="600"
         x="0"
         y="1.9875739e-05"
         id="rect1701"
         inkscape:label="Shadow mask" />
    </clipPath>
  </defs>
  <sodipodi:namedview
     id="base"
     pagecolor="#ffffff"
     bordercolor="#666666"
     borderopacity="1.0"
     inkscape:pageopacity="0.0"
     inkscape:pageshadow="2"
     inkscape:zoom="0.7"
     inkscape:cx="360.59332"
     inkscape:cy="288.30854"
     inkscape:document-units="px"
     inkscape:current-layer="layer1"
     showgrid="true"
     units="px"
     inkscape:pagecheckerboard="true"
     inkscape:window-width="1366"
     inkscape:window-height="712"
     inkscape:window-x="0"
     inkscape:window-y="26"
     inkscape:window-maximized="1"
     inkscape:snap-nodes="true"
     inkscape:snap-object-midpoints="true"
     inkscape:snap-global="true"
     showguides="true"
     inkscape:guide-bbox="true">
    <inkscape:grid
       empspacing="2"
       spacingx="52.916667"
       spacingy="39.6875"
       units="px"
       type="xygrid"
       id="grid815" />
    <sodipodi:guide
       position="162.52976,127.75595"
       orientation="0,1"
       id="guide5335"
       inkscape:locked="false" />
    <sodipodi:guide
       position="176.13691,31.75"
       orientation="0,1"
       id="guide5337"
       inkscape:locked="false" />
  </sodipodi:namedview>
  <metadata
     id="metadata5">
    <rdf:RDF>
      <cc:Work
         rdf:about="">
        <dc:format>image/svg+xml</dc:format>
        <dc:type
           rdf:resource="http://purl.org/dc/dcmitype/StillImage" />
        <dc:title />
      </cc:Work>
    </rdf:RDF>
  </metadata>
  <g
     inkscape:label="Tile"
     inkscape:groupmode="layer"
     id="layer1"
     transform="translate(0,-138.25001)">
    <rect
       style="display:inline;opacity:0.95999995;fill:#bc004f;fill-opacity:1;stroke:none;stroke-width:0.26458335;stroke-opacity:1"
       width="211.66667"
       height="158.75"
       x="0"
       y="138.25002"
       id="rect817"
       inkscape:label="Background" />
    <path
       style="opacity:0.19696972;fill:#1a1a1a;stroke-width:0.92394936"
       d="m 94.40625,214.75391 c -5.870128,-0.008 -17.590423,0.0758 -17.654297,0.0762 -0.01172,-3.8e-4 -0.02501,-0.002 -0.03711,-0.002 l 25.505857,25.50586 c -0.12285,4.54536 -0.79649,9.04094 -1.26953,12.93555 -1.782575,14.67538 -4.181132,31.42981 -6.232421,46.20508 -0.586609,4.22585 -3.490435,20.63471 -3.580078,22.56836 l 16.554689,16.55469 H 54.421875 l -3.402344,-3.40235 v 3.40235 L 489.31445,776.89258 h 432.17383 l 43.16211,43.16211 c 1.62146,0.83399 2.63777,0.83351 4.79297,1.02929 1.66783,0.15156 3.72977,0.35175 5.38086,0.29883 9.96857,-0.3207 15.58124,-4.94553 17.78906,-10.55469 l 6.57813,6.57813 c 2.27969,2.27962 5.42389,3.32446 9.29879,2.95898 2.3572,-0.22261 2.3104,-0.27716 3.4219,-1.79101 l 2.4414,-3.11524 -8.7441,-8.74414 c 0.2216,-0.11958 0.4531,-0.23506 0.7031,-0.34375 l 10.5762,10.57618 c 2.0606,2.06059 5.0214,2.95342 7.4316,3.40625 l 2.6406,-4.11524 -5.4004,-5.40039 c -0.01,-0.16797 -0.01,-0.36661 -0.016,-0.54687 l 9.2774,9.27734 5.832,0.008 c -8e-4,-4.92361 0,-9.84789 0,-14.77148 l 14.7676,14.76758 5.832,0.004 c 0.011,-2.85257 0,-5.70696 0,-8.56055 l 8.5605,8.56055 5.8281,-0.006 v -13.47851 l 13.4825,13.48242 7.6328,-0.0566 c -0.5249,-0.72835 -0.9482,-1.19428 -1.5391,-1.97656 l -11.7539,-15.14258 c 0.4364,-1.07252 6.0986,-7.40391 6.6973,-7.99219 l 3.8261,-4.52148 -12.9921,-12.99219 h 109.2929 v -3.40235 l -38.539,-38.53906 c -0.01,-1.08872 -0.024,-3.28888 -0.024,-3.91601 0,-8.95325 -0.1152,-18.68104 -4.6172,-25.07422 -0.5046,-0.71656 -1.0637,-1.38017 -1.6757,-1.99219 L 703.14453,265.67383 c -4.30473,-4.30473 -11.19399,-6.04749 -19.66406,-5.55078 -4.37416,0.25663 -8.06622,1.90082 -11.0957,3.76367 -2.8307,1.74082 -5.8511,5.64487 -7.06641,6.93555 l -4.88281,-4.88282 c -2.78174,-2.65995 -7.17522,-5.40051 -14.3711,-5.875 -0.60559,-0.0397 -1.19619,-0.063 -1.77343,-0.0664 l -0.002,-0.002 c -4.0408,-0.0227 -7.42426,0.84085 -10.66211,2.55079 -1.7557,0.92711 -2.99257,1.99773 -3.99414,3.07421 l -3.89843,-3.89843 -11.96094,0.0156 0.0273,16.9668 -17.08789,-17.08789 -11.67578,0.0762 c -0.3811,1.98969 -0.12956,22.67709 -0.0742,30.05859 l -30.13477,-30.13476 -6.68164,0.043 -21.71875,-21.71875 c -1.20789,-1.20787 -2.83464,-2.00457 -4.81054,-2.05469 -0.56104,-0.0151 -1.14799,0.0305 -1.76367,0.14648 -7.31864,1.34892 -8.01156,9.49825 -4.10157,13.40821 l 10.47266,10.47265 -10.43555,0.043 c -0.24809,1.12902 -0.3192,13.99322 -0.32226,27.4082 l -22.8086,-22.80859 c -1.47371,-1.47371 -3.3345,-2.77529 -5.68359,-3.87109 -3.85081,-1.79622 -8.16626,-2.69974 -12.40039,-2.58008 -5.36526,0.15123 -10.5994,1.95193 -14.5957,5.66601 l -3.85743,-3.85742 -11.84375,-0.0742 0.0156,24.77149 -19.91602,-19.91602 c -4.33154,-4.33154 -11.40493,-6.84555 -18.41797,-6.58593 l -0.002,-0.002 c -3.7093,0.13833 -7.40189,1.05279 -10.66211,2.88477 -1.34853,0.75775 -2.49268,1.77793 -3.50976,2.82812 l -3.99805,-3.99804 -11.87891,0.0664 0.01,25.13281 -19.3418,-19.34179 c -4.27159,-4.27159 -11.53771,-7.91827 -20.14648,-8.16016 -0.55528,-0.0151 -1.10688,-0.0232 -1.6543,-0.0156 -6.65449,0.0717 -12.69967,1.71538 -17.49609,4.52539 l -28.30078,-28.30078 -12.06055,0.0273 0.0254,17.83984 -17.88867,-17.88867 -1.67578,0.0215 h -10.39844 v 21.18554 l 0.004,3.10156 -19.67188,-19.67187 c -0.3202,-0.32013 -0.66701,-0.6068 -1.03125,-0.86914 -1.32198,-0.95184 -2.59525,-1.49086 -4.18555,-1.52344 -0.53011,-0.0113 -1.0952,0.034 -1.70898,0.14063 -7.49084,1.28511 -7.8946,9.52339 -3.98242,13.43554 l 11.86132,11.86133 -0.0117,9.93555 -11.53321,-11.5332 0.004,2.83203 -28.41797,-28.41797 -17.77148,0.008 -5.29102,16.61328 c -1.99158,5.29315 -4.26383,10.40591 -6.14453,15.64063 -0.37468,1.04282 -0.77089,2.09357 -1.16797,3.14453 L 110.60771,224.2873 c -1.09767,-1.09769 -2.26165,-2.12537 -3.50195,-3.06836 -1.88939,-1.43656 -4.25358,-2.97122 -6.49414,-4.10742 l 17.91211,17.91211 c 1.4118,2.49481 2.66948,5.08599 3.84375,7.6914 z"
       transform="matrix(0.26458334,0,0,0.26458334,0,138.25001)"
       id="path876"
       inkscape:connector-curvature="0"
       inkscape:label="Shadow"
       clip-path="url(#clipPath1699)" />
    <path
       sodipodi:nodetypes="ccccccccccccccccccccccccccccccccccccccccccccccccccccccccccccccccccccccccccccccccccccccccccccccccccccccccccccccccscccccccccccccccsccccccscccccccccccccscccccsccccccccccccccccccccccccccccccccccccccccccccccccccccccccccccccccccccsccccccccccccccccccccccccccccccccccccccccc"
       inkscape:label="Logo"
       inkscape:connector-curvature="0"
       id="path865"
       d="m 24.978357,195.07019 c -1.553138,-0.002 -4.654132,0.0204 -4.671032,0.0205 1.710444,0.052 3.61532,0.28703 4.700635,1.22421 0.166532,0.14379 0.287155,0.29291 0.419216,0.4259 2.271188,2.28823 1.599692,5.91203 1.282944,8.51987 -0.47164,3.88286 -1.106424,8.31618 -1.649161,12.22547 -0.155207,1.11809 -0.923571,5.45955 -0.947289,5.97116 l 2.885794,0.004 c 0.163475,-1.56116 0.332444,-3.36849 0.537624,-4.88685 0.215023,-1.59132 0.40452,-3.22233 0.632162,-4.78037 0.168797,-1.15553 1.126149,-9.22464 1.320669,-9.51203 0.658008,1.43049 1.995953,4.47476 2.490452,5.77683 l 1.878343,4.51204 c 0.770296,1.67635 1.460226,3.4013 2.172462,5.1251 0.768218,1.85935 1.446113,3.07368 3.036194,4.18783 l 1.934683,-4.94032 c 1.349042,-3.31583 2.541597,-6.56907 3.852182,-9.83958 0.123133,-0.30731 1.706971,-4.61532 1.991502,-4.86153 0.372943,3.12422 0.807901,6.45808 1.137797,9.55548 0.333886,3.1342 0.917866,6.48356 1.020339,9.62711 l 3.805866,0.0392 -0.808823,-5.6484 c -0.277248,-1.87661 -0.467892,-3.76612 -0.756303,-5.63026 -0.580229,-3.74997 -1.085385,-7.68223 -1.421889,-11.43956 l -4.702065,0.002 -1.399924,4.39553 c -0.526939,1.40048 -1.128163,2.75317 -1.625764,4.13819 -0.498307,1.3869 -1.087192,2.81541 -1.608578,4.14057 -0.214273,0.54461 -1.476516,3.82394 -1.638179,4.07611 -0.94411,-2.12752 -1.883877,-4.21337 -2.761176,-6.3603 -0.451662,-1.10527 -0.94965,-2.11174 -1.368411,-3.19567 -0.414465,-1.07291 -0.936212,-2.10105 -1.355999,-3.13981 -1.153106,-2.85326 -2.496909,-6.10022 -5.024354,-8.02186 -0.499902,-0.38009 -1.125579,-0.7861 -1.718395,-1.08672 z m -4.671032,0.0205 c -0.0031,-1e-4 -0.0064,-4e-4 -0.0096,-4.9e-4 v 4.9e-4 z m 48.234379,5.5233 -0.443563,0.006 h -2.751149 v 5.60495 l 0.0229,17.26033 0.273587,0.0105 2.595019,0.003 0.265946,-0.0191 z m 7.91731,0.006 -3.191371,0.007 0.0339,22.84904 0.271677,0.021 2.597404,0.002 0.287913,-0.0134 z m 61.552326,0.57104 c -0.14844,-0.004 -0.30405,0.008 -0.46695,0.0387 -2.70323,0.49824 -1.98937,4.50302 0.68372,4.06751 2.56261,-0.41754 2.00994,-4.0497 -0.21677,-4.10619 z m -79.248576,0.0167 c -0.140258,-0.003 -0.289764,0.009 -0.452159,0.0372 -2.808862,0.48188 -1.85178,4.65927 0.784951,4.03601 0.938048,-0.22175 1.863775,-1.21641 1.570856,-2.46133 -0.139712,-0.59392 -0.431369,-0.94589 -0.795932,-1.20846 -0.349773,-0.25184 -0.686949,-0.39483 -1.107716,-0.40345 z m 29.813331,5.70282 c -2.172517,0.0234 -4.10012,0.6795 -5.463618,1.76805 -0.261306,0.20865 -0.251317,0.11057 -0.501817,0.41158 l -0.481761,0.4956 c -0.965036,0.87579 -1.695565,2.57155 -1.950441,3.85935 -0.876735,4.43018 1.774063,8.37598 5.55625,9.60467 2.271464,0.73793 4.286397,0.95496 6.811976,0.5042 0.470669,-0.084 1.030009,-0.21993 1.500669,-0.37959 1.248782,-0.4236 0.658795,-0.37718 1.739409,-2.16578 0.232632,-0.38502 0.502102,-0.92778 0.688019,-1.33737 -0.305948,0.11821 -0.04832,0.0142 -0.213423,0.11841 -0.584916,0.36906 -0.614334,0.49191 -1.463906,0.85848 -2.079514,0.89702 -4.54479,1.20958 -6.734629,0.43927 -1.480997,-0.52089 -2.367608,-1.25786 -3.061979,-2.21448 -1.06035,-1.24796 -1.480405,-2.54208 -1.250001,-4.09951 L 96.502,214.75813 c 0.221406,-1.9021 -0.772791,-4.23734 -2.069813,-5.59445 -1.116768,-1.16848 -3.080327,-2.18364 -5.418257,-2.24933 -0.146916,-0.004 -0.292996,-0.006 -0.437835,-0.004 z m 81.891825,0.13035 c -1.06913,-0.006 -1.96418,0.22224 -2.82086,0.67466 -1.05267,0.55587 -1.4198,1.30646 -1.88646,1.82916 -0.0236,0.0264 -0.0142,0.0177 -0.0296,0.0353 0.12691,-0.1113 -0.18704,0.21448 0,0 -0.0177,0.0156 -0.0111,0.006 -0.0515,0.0449 l -0.10457,0.0784 -0.0163,-2.20589 -3.16463,0.004 0.0262,15.96114 3.1398,-0.01 c 0.10251,-1.37644 0.0125,-7.10422 0.011,-8.94242 -0.002,-1.83631 0.26222,-3.9569 1.99198,-4.78181 1.42438,-0.67932 3.29236,-0.57253 4.3941,0.60065 0.34379,0.36603 0.0966,0.005 0.52807,0.60161 1.36507,1.88999 1.01034,5.48822 1.01318,8.0023 l 0.0101,4.52875 3.10256,0.002 c 0.28959,-2.94757 -0.66994,-10.5853 0.85657,-12.73777 0.3435,-0.48438 0.61432,-0.75889 1.21944,-1.03802 0.59391,-0.27394 1.22934,-0.35354 1.93755,-0.35332 2.9303,9.2e-4 3.77411,2.27217 3.91473,5.11507 0.0744,1.50407 4.9e-4,3.04432 4.9e-4,4.55358 l 4.8e-4,4.4576 3.1589,0.003 c 0.0761,-0.78949 0.006,-6.45532 0.006,-7.75974 0,-2.36888 -0.0302,-4.94236 -1.22135,-6.63389 -1.07262,-1.52304 -3.08683,-2.1459 -5.6465,-1.9958 -1.15733,0.0679 -2.13389,0.50263 -2.93544,0.99551 -0.86014,0.52897 -1.78785,1.81461 -1.98052,1.93851 -0.42757,-0.31136 -1.36797,-2.7114 -4.98329,-2.94978 -0.16023,-0.0105 -0.31662,-0.0163 -0.46935,-0.0172 z m -44.90359,0.0286 c -1.44035,0.0406 -2.84549,0.52956 -3.90852,1.54173 -0.21121,0.20109 -0.23923,0.26944 -0.40823,0.50324 -0.14789,0.20471 -0.31035,0.4261 -0.53714,0.52666 l -0.0282,-2.09321 -3.13408,-0.0196 0.01,15.94252 3.13694,-0.0262 c 0.078,-1.40318 0.008,-3.01587 0.008,-4.44233 0,-1.52096 8e-5,-3.04166 0,-4.56264 -2.4e-4,-3.23674 0.46411,-5.18731 3.9768,-5.10361 0.65423,0.0157 1.29319,0.1341 1.82726,0.3853 1.788,0.84083 2.01749,2.84301 2.13522,4.71831 0.11523,1.83552 0.0116,6.86608 0.005,9.03171 l 3.12786,-0.0339 c 0.11544,-2.37545 0.006,-5.0453 0.006,-7.45369 0,-3.40154 0.47905,-6.6385 -2.93593,-8.23148 -1.01886,-0.47525 -2.16037,-0.71443 -3.28065,-0.68277 z m -18.1551,4.9e-4 c -0.98142,0.0366 -1.95828,0.27876 -2.82088,0.76347 -0.87354,0.49085 -1.4312,1.39767 -1.93278,1.81913 v 9.3e-4 h -9.2e-4 c 2.5e-4,-2.5e-4 7.4e-4,-7.4e-4 9.2e-4,-9.3e-4 l -0.0535,-2.12854 -3.143154,0.0172 0.006,15.92725 3.154614,0.004 c 0.10436,-1.33774 0.0134,-7.14195 0.0134,-8.96248 0,-1.333 -0.0707,-2.8576 0.64123,-3.84645 0.66358,-0.92193 1.67573,-1.40338 3.29071,-1.3474 3.01368,0.10451 3.93295,2.14961 3.98016,5.12415 0.0458,2.89248 0.004,6.09647 0.008,9.03027 l 3.11736,-0.0301 c 0.0883,-1.49864 0.008,-5.66809 0.008,-7.45608 0,-2.26583 0.27598,-4.86564 -0.89525,-6.57277 -1.03491,-1.5084 -3.2162,-2.42156 -5.3753,-2.341 z m 39.38889,0.39963 -3.09827,0.02 c -0.0893,0.53623 -9.3e-4,6.36308 -0.002,7.44128 -7.3e-4,2.31906 -0.0831,4.63553 1.01986,6.49828 0.20192,0.34108 0.54235,0.83297 0.77254,1.04709 1.81696,1.68979 5.50624,1.78533 7.29899,0.6971 1.1468,-0.69613 1.46967,-1.43972 1.76805,-1.73845 0.18765,-0.18792 0.008,-0.0334 0.20579,-0.159 h 4.8e-4 l 0.0296,2.14907 h 3.10447 l -0.0176,-15.95542 -3.0892,0.02 c -0.11066,0.57774 -0.0152,7.55967 -0.0134,8.77484 0.002,1.34332 -0.26772,2.66116 -0.95493,3.52225 -0.74638,0.93529 -1.77369,1.47102 -3.03094,1.48205 -4.77778,0.0417 -3.94107,-5.25036 -3.9577,-9.35639 z m -89.457246,0.0458 0.01768,15.9984 c 0.402139,-0.11414 2.615275,-0.1135 3.019005,0 l 0.01814,-15.9984 z m 82.089966,0.0315 -2.96171,0.0124 c -0.14085,0.64097 -0.0767,15.3107 -0.0468,15.91961 l 3.03381,-0.004 z m -51.102069,1.61525 c 2.100426,-0.0522 4.309596,1.03486 4.530651,3.58146 l -8.965816,0.0353 c 0.144697,-1.26445 0.883933,-2.11708 1.525497,-2.64324 0.739245,-0.60635 1.809444,-0.94622 2.909668,-0.97355 z m -74.829739,17.77519 v 0.90002 H 139.21599 l 0.0487,11.41999 c 0.42901,0.22069 0.69792,0.22033 1.26815,0.27216 0.44128,0.0401 0.98694,0.0933 1.42379,0.0793 7.29323,-0.23463 5.79704,-9.17238 0.70522,-8.26633 -0.65117,0.11584 -0.53381,0.18413 -0.82506,0.62929 -0.19376,0.29616 -0.44531,0.59903 -0.56914,0.89334 2.15442,-0.44724 3.89296,0.92103 3.96677,2.74351 -0.10057,2.40597 -2.03901,3.17719 -4.40747,2.61459 -0.008,-3.47152 0.0152,-6.92235 0.0286,-10.3858 h 25.12798 l 0.0482,11.29346 1.54221,-0.002 0.002,-11.24524 v -0.0463 h 30.33248 v -0.90001 z m 147.328408,4.09855 c -0.80769,-0.006 -1.62237,0.27247 -2.18679,0.93154 -0.15331,0.17904 -0.1368,0.18318 -0.33899,0.28695 v 0.002 l -4.9e-4,-9.3e-4 4.9e-4,-4.9e-4 -4.9e-4,-0.98596 -1.48921,0.0105 -0.0392,7.84903 1.54316,0.002 c -2.4e-4,-1.46789 9.3e-4,-2.93576 0,-4.40365 -0.002,-1.5582 0.20971,-2.67232 1.9514,-2.58881 1.50373,0.0721 1.91501,1.045 1.95187,2.51576 l 0.004,4.47575 1.54317,9.2e-4 c 0.004,-1.21038 7e-4,-2.42159 4.9e-4,-3.63207 -1.5e-4,-1.09196 0.11918,-2.41974 -0.40394,-3.24103 -0.46978,-0.73749 -1.49687,-1.21366 -2.53534,-1.22087 z m -9.80377,0.0167 c -1.56952,0.022 -1.00681,0.22374 -2.16529,1.73988 1.56702,-0.94029 4.00294,-0.87603 3.91854,0.5276 -0.078,1.29751 -2.54719,0.91304 -4.06035,1.72364 -1.1399,0.61065 -1.30131,2.02047 -0.78305,2.89964 0.6026,1.02212 1.60506,1.52117 2.93068,1.39611 0.62366,-0.0589 0.61119,-0.0731 0.90527,-0.47364 l 0.64601,-0.82459 c -0.7592,0.14039 -1.31526,0.33681 -2.1123,0.0577 -1.15768,-0.40524 -1.60595,-2.09369 0.46601,-2.62748 0.9233,-0.23788 1.09877,-0.2837 2.01584,-0.58776 0.005,0.71838 -0.0855,2.74646 0.0888,3.30597 0.53711,0.72275 1.45246,1.01043 2.17868,1.14687 l 0.69852,-1.08911 c -1.47504,-0.28307 -1.44166,-0.47754 -1.44146,-2.60839 7e-5,-1.15927 0.20046,-2.66679 -0.39916,-3.54469 -0.53835,-0.7882 -1.66867,-1.05882 -2.88675,-1.04183 z m 20.2483,0.20913 c -0.44709,4.9e-4 -0.44453,0.0942 -1.45244,1.29679 -0.28834,0.34393 -0.66438,0.7244 -0.93297,1.10055 l -0.46076,0.52378 c -0.16411,0.20144 -0.32257,0.34012 -0.47412,0.54336 v 4.9e-4 c 0.0713,0.14716 0.26101,0.37979 0.36192,0.51852 l 2.8285,3.88512 2.01919,-0.0152 c -0.13886,-0.19271 -0.25046,-0.31585 -0.40679,-0.52283 l -3.11021,-4.00642 c 0.11547,-0.28377 1.61394,-1.95904 1.77235,-2.11469 l 1.01222,-1.19652 c -0.30968,-0.0198 -0.62262,-0.007 -0.93344,-0.0105 -0.0865,-7.3e-4 -0.15958,-0.003 -0.22345,-0.003 z"
       style="fill:#f4f4f4;fill-opacity:1;fill-rule:evenodd;stroke-width:0.24446161" />
  </g>
</svg>
