<?xml version="1.0" encoding="UTF-8" standalone="no"?>
<!-- Created with Inkscape (http://www.inkscape.org/) -->

<svg
   xmlns:dc="http://purl.org/dc/elements/1.1/"
   xmlns:cc="http://creativecommons.org/ns#"
   xmlns:rdf="http://www.w3.org/1999/02/22-rdf-syntax-ns#"
   xmlns:svg="http://www.w3.org/2000/svg"
   xmlns="http://www.w3.org/2000/svg"
   xmlns:sodipodi="http://sodipodi.sourceforge.net/DTD/sodipodi-0.dtd"
   xmlns:inkscape="http://www.inkscape.org/namespaces/inkscape"
   width="800"
   height="600"
   viewBox="0 0 211.66667 158.75"
   version="1.1"
   id="svg8"
   inkscape:version="0.92.4 5da689c313, 2019-01-14"
   sodipodi:docname="Pekao.svg">
  <defs
     id="defs2">
    <clipPath
       clipPathUnits="userSpaceOnUse"
       id="clipPath1192">
      <rect
         style="display:inline;opacity:0.95999995;fill:#35bf5c;fill-opacity:1;stroke:none;stroke-width:1;stroke-opacity:1"
         width="800"
         height="600"
         x="0"
         y="1.9875739e-05"
         id="rect1194"
         inkscape:label="Shadow mask" />
    </clipPath>
  </defs>
  <sodipodi:namedview
     id="base"
     pagecolor="#ffffff"
     bordercolor="#666666"
     borderopacity="1.0"
     inkscape:pageopacity="0.0"
     inkscape:pageshadow="2"
     inkscape:zoom="0.35"
     inkscape:cx="-310.61866"
     inkscape:cy="436.86216"
     inkscape:document-units="px"
     inkscape:current-layer="layer1"
     showgrid="true"
     units="px"
     inkscape:pagecheckerboard="true"
     inkscape:window-width="1366"
     inkscape:window-height="712"
     inkscape:window-x="0"
     inkscape:window-y="26"
     inkscape:window-maximized="1"
     inkscape:snap-nodes="true"
     inkscape:snap-object-midpoints="true"
     inkscape:snap-global="false"
     showguides="true"
     inkscape:guide-bbox="true">
    <inkscape:grid
       empspacing="2"
       spacingx="52.916667"
       spacingy="39.6875"
       units="px"
       type="xygrid"
       id="grid815" />
    <sodipodi:guide
       position="162.52976,127.75595"
       orientation="0,1"
       id="guide5335"
       inkscape:locked="false" />
    <sodipodi:guide
       position="176.13691,31.75"
       orientation="0,1"
       id="guide5337"
       inkscape:locked="false" />
  </sodipodi:namedview>
  <metadata
     id="metadata5">
    <rdf:RDF>
      <cc:Work
         rdf:about="">
        <dc:format>image/svg+xml</dc:format>
        <dc:type
           rdf:resource="http://purl.org/dc/dcmitype/StillImage" />
        <dc:title />
      </cc:Work>
    </rdf:RDF>
  </metadata>
  <g
     inkscape:label="Tile"
     inkscape:groupmode="layer"
     id="layer1"
     transform="translate(0,-138.25001)">
    <rect
       style="display:inline;opacity:0.95999995;fill:#e53935;fill-opacity:1;stroke:none;stroke-width:0.26458335;stroke-opacity:1"
       width="211.66667"
       height="158.75"
       x="0"
       y="138.25002"
       id="rect817"
       inkscape:label="Background" />
    <path
       style="display:inline;opacity:0.26767674;stroke-width:1.1309551"
       d="m 312.08789,100.41797 c -8.02891,0.0351 -15.77914,0.55628 -22.05859,1.60547 -22.37352,3.7381 -49.911,14.85496 -71.97657,29.05468 l -9.37695,6.03321 0.89453,5.65625 c 0.49229,3.1101 0.83278,10.74266 0.75586,16.96289 -0.0374,3.03007 -0.25268,5.99468 -0.625,8.89844 L 167.0332,125.96094 c -7.79089,-7.79089 -18.79284,-13.89117 -32.90625,-18.04102 -11.79222,-3.46734 -15.52893,-4.50355 -13.76367,-2.73828 l 29.45899,29.45898 c 0.52316,0.899 1.01755,1.78932 1.44531,2.65821 3.33852,6.78153 3.78125,8.74898 3.78125,16.77734 0,8.03777 -0.44277,9.99337 -3.80274,16.81836 -4.29851,8.73158 -14.71347,20.41459 -24.32812,27.28906 -3.47989,2.48807 -6.16694,5.03223 -5.9707,5.6543 0.19622,0.622 10.46256,44.89836 22.81445,98.39258 12.35184,53.49411 22.58539,97.44334 22.74023,97.66406 l 438.29493,438.29492 0.002,0.004 c 0.19313,0.19313 4.57735,-2.46194 9.77734,-5.92188 8.79553,-5.85236 18.50535,-11.11865 28.47071,-15.50586 l 117.15429,117.1543 4.35547,-9.13086 c 4.42531,-9.27744 8.17502,-18.78267 11.20313,-28.22265 l 38.78125,38.78125 c 0.61167,0.61167 2.76563,-3.44542 7.33398,-12.90625 10.57066,-21.89148 17.14206,-47.54973 18.26953,-71.34571 l 0.6543,-13.83398 3.82617,-0.71875 c 6.53839,-1.22661 16.4985,0.0809 22.42578,2.94336 0.85925,0.41493 1.89291,1.04763 3.02344,1.82031 l 20.08984,20.08984 7.66211,-7.3496 c 8.55884,-8.21151 17.37253,-14.85242 26.1836,-19.85547 l 99.72858,99.72851 3.9902,-8.48242 c 8.5729,-18.22344 12.951,-33.2375 14.1563,-49.08203 l 61.5195,61.51953 v 0 c 0,10e-4 0,0.002 0.01,0.002 0.7257,0 7.6282,-20.01403 10.082,-29.23437 10.1887,-38.28352 4.1367,-71.47073 -16.2793,-91.88672 l -13.9355,-13.93555 c 5.1528,-13.81451 7.2972,-42.20212 4.4453,-59.51367 -4.3538,-26.42827 -16.613,-50.51458 -35.5156,-69.78125 -0.2914,-0.29707 -0.585,-0.59275 -0.8789,-0.88672 L 613.03516,234.34375 c -30.78705,-30.78709 -74.86593,-44.08169 -129.44922,-39.0293 -3.20338,0.29652 -5.79545,0.49846 -7.94727,0.62891 l -39.96094,-39.96094 c -26.26431,-26.26428 -55.45447,-43.745 -86.66992,-51.88281 -9.38632,-2.44701 -23.53841,-3.74008 -36.91992,-3.68164 z"
       id="path845"
       inkscape:connector-curvature="0"
       inkscape:label="Shadow"
       transform="matrix(0.26458334,0,0,0.26458334,0,138.25001)"
       clip-path="url(#clipPath1192)" />
    <path
       style="fill:#f4f4f4;fill-opacity:1;stroke-width:0.29923186"
       d="m 176.05653,267.64317 c 0.37415,-7.15315 -1.62194,-15.17252 -5.10441,-20.50714 -2.51711,-3.85581 -6.8721,-7.93334 -10.12419,-9.47915 l -1.08507,-0.51576 0.41086,-1.53322 c 1.30549,-4.87164 1.74023,-8.13904 1.73684,-13.05364 -0.002,-4.06702 -0.11832,-5.39671 -0.65524,-7.54343 -1.21268,-4.84835 -3.40599,-8.66982 -6.84283,-11.92243 -2.35155,-2.22552 -4.05109,-3.35032 -7.68449,-5.08586 -5.5159,-2.63474 -11.36432,-3.86083 -19.50588,-4.08936 l -5.68541,-0.15957 -2.18922,-1.98262 c -3.51698,-3.18508 -5.08894,-4.42496 -8.59315,-6.77795 -13.866124,-9.31075 -28.779587,-9.95465 -44.7367,-1.93158 -3.076751,1.54696 -6.658208,3.7551 -10.835589,6.68061 -1.769211,1.23903 -3.216742,2.20068 -3.216742,2.13703 0,-0.0637 0.473567,-0.89676 1.052374,-1.85132 1.721633,-2.83931 2.607824,-6.02018 2.651033,-9.51561 0.02035,-1.64577 -0.06964,-3.66559 -0.199892,-4.48847 l -0.23689,-1.49616 2.481126,-1.59667 c 5.83818,-3.75701 13.124002,-6.69794 19.043661,-7.68698 4.430506,-0.74026 11.631348,-0.48692 15.604892,0.54898 8.825467,2.30078 17.039057,7.42458 24.350047,15.19003 2.38885,2.53735 6.8588,8.17399 7.13194,8.99345 0.0763,0.22876 1.27429,0.21438 4.12522,-0.0495 14.57973,-1.34954 26.32693,2.2483 34.48258,10.56103 5.00131,5.09764 8.24487,11.47072 9.39681,18.4632 0.76311,4.63219 0.17565,12.26831 -1.22131,15.87547 -0.12052,0.31119 0.40101,0.87218 1.66908,1.7954 7.02893,5.11729 9.3832,14.75355 6.37032,26.07431 -0.64925,2.43955 -2.47541,7.73511 -2.66741,7.73511 -0.0374,0 -0.002,-1.25469 0.0776,-2.78819 z m -76.357309,0.21495 c 1.753599,-10.80928 -0.05398,-21.45884 -4.529965,-26.68796 l -1.016958,-1.18811 1.563318,-1.47175 c 3.185053,-2.99851 6.724554,-4.90145 10.581324,-5.68887 1.95993,-0.40016 2.77272,-0.42425 4.86766,-0.14442 3.16076,0.42223 7.18654,2.30506 9.64643,4.51157 l 1.68818,1.5143 1.30414,-1.22272 c 5.30219,-4.97124 12.39181,-7.12244 19.18776,-5.82215 4.836,0.92527 8.75621,3.00432 11.7998,6.25794 3.51971,3.76258 4.98988,7.7769 5.00416,13.6638 0.0126,5.19819 -1.11465,9.76501 -3.84081,15.56005 l -1.05576,2.24424 0.21571,-1.64578 c 0.11864,-0.90517 0.2005,-3.73291 0.18192,-6.28386 -0.03,-4.11492 -0.12474,-4.94061 -0.84003,-7.32003 -1.23262,-4.10031 -2.64615,-6.53142 -5.40564,-9.29722 -1.31905,-1.32206 -3.10176,-2.77611 -3.96157,-3.23124 -6.66492,-3.52797 -15.50674,-1.02826 -23.50469,6.64512 l -2.02711,1.94487 -0.48725,-0.72943 c -1.00662,-1.50689 -4.19019,-4.37364 -5.62805,-5.06797 -1.56826,-0.75731 -4.20355,-1.10309 -5.9335,-0.77855 l -1.0123,0.18992 -0.17346,3.66052 c -0.29831,6.29602 -2.03657,13.08485 -4.83339,18.87697 -2.01242,4.16761 -2.25402,4.37155 -1.789919,1.51076 z m -14.333638,-0.5687 c 0.378847,-4.08191 0.194759,-12.42747 -0.342035,-15.5069 -0.947619,-5.4362 -2.357499,-8.64973 -5.041169,-11.49028 -1.921711,-2.03405 -3.697875,-3.14544 -6.641991,-4.15601 -2.073967,-0.71191 -2.87369,-0.82373 -5.984634,-0.83691 -1.98375,-0.009 -4.327344,0.16046 -5.236556,0.37724 -5.198074,1.23946 -10.82185,3.71488 -15.477904,6.81292 -1.382194,0.91968 -2.546643,1.62437 -2.587655,1.566 -0.04097,-0.0584 -2.748449,-11.68643 -6.016541,-25.84008 -3.268103,-14.15368 -5.984481,-25.8686 -6.0364,-26.03317 -0.05192,-0.16459 0.65892,-0.83786 1.579641,-1.49616 2.543877,-1.81887 5.299749,-4.91003 6.437064,-7.22026 0.88899,-1.80578 1.005942,-2.32313 1.005942,-4.44979 0,-2.12417 -0.117385,-2.64488 -1.000701,-4.43916 -1.208895,-2.4556 -3.921491,-5.4354 -6.779327,-7.44709 -2.321764,-1.63433 -2.244066,-1.64561 2.244237,-0.32589 12.065682,3.54775 15.539128,12.48523 9.514112,24.48065 -0.661312,1.31661 -1.456668,2.75128 -1.767463,3.18813 -0.310794,0.43685 -0.565082,0.92926 -0.565082,1.09424 0,0.36453 11.03823,32.14068 11.232259,32.33472 0.07549,0.0755 1.719699,-0.35084 3.653854,-0.94738 5.372603,-1.65702 8.114953,-2.13239 12.34399,-2.13979 4.555405,-0.007 6.427647,0.43832 10.7411,2.56033 5.401932,2.65748 8.904162,6.83948 10.372139,12.38531 1.796529,6.78703 -0.04499,17.47235 -4.689007,27.2083 l -1.152268,2.41565 z"
       id="path832"
       inkscape:connector-curvature="0"
       inkscape:label="Logo" />
  </g>
</svg>
