<?xml version="1.0" encoding="UTF-8" standalone="no"?>
<!-- Created with Inkscape (http://www.inkscape.org/) -->

<svg
   xmlns:dc="http://purl.org/dc/elements/1.1/"
   xmlns:cc="http://creativecommons.org/ns#"
   xmlns:rdf="http://www.w3.org/1999/02/22-rdf-syntax-ns#"
   xmlns:svg="http://www.w3.org/2000/svg"
   xmlns="http://www.w3.org/2000/svg"
   xmlns:sodipodi="http://sodipodi.sourceforge.net/DTD/sodipodi-0.dtd"
   xmlns:inkscape="http://www.inkscape.org/namespaces/inkscape"
   width="800"
   height="600"
   viewBox="0 0 211.66667 158.75"
   version="1.1"
   id="svg8"
   inkscape:version="0.92.4 5da689c313, 2019-01-14"
   sodipodi:docname="Santander.svg">
  <defs
     id="defs2">
    <clipPath
       clipPathUnits="userSpaceOnUse"
       id="clipPath988">
      <rect
         inkscape:label="Shadow mask"
         id="rect990"
         y="1.9875739e-05"
         x="0"
         height="600"
         width="800"
         style="display:inline;opacity:0.95999995;fill:#35bf5c;fill-opacity:1;stroke:none;stroke-width:1;stroke-opacity:1" />
    </clipPath>
  </defs>
  <sodipodi:namedview
     id="base"
     pagecolor="#ffffff"
     bordercolor="#666666"
     borderopacity="1.0"
     inkscape:pageopacity="0.0"
     inkscape:pageshadow="2"
     inkscape:zoom="1.4"
     inkscape:cx="566.24276"
     inkscape:cy="475.15401"
     inkscape:document-units="px"
     inkscape:current-layer="layer1"
     showgrid="true"
     units="px"
     inkscape:pagecheckerboard="true"
     inkscape:window-width="1366"
     inkscape:window-height="712"
     inkscape:window-x="0"
     inkscape:window-y="26"
     inkscape:window-maximized="1"
     inkscape:snap-nodes="true"
     inkscape:snap-object-midpoints="true"
     inkscape:snap-global="false"
     showguides="true"
     inkscape:guide-bbox="true">
    <inkscape:grid
       id="grid815"
       type="xygrid"
       units="px"
       spacingy="39.6875"
       spacingx="52.916667"
       empspacing="2" />
    <sodipodi:guide
       inkscape:locked="false"
       id="guide5335"
       orientation="0,1"
       position="162.52976,127.75595" />
    <sodipodi:guide
       inkscape:locked="false"
       id="guide5337"
       orientation="0,1"
       position="176.13691,31.75" />
  </sodipodi:namedview>
  <metadata
     id="metadata5">
    <rdf:RDF>
      <cc:Work
         rdf:about="">
        <dc:format>image/svg+xml</dc:format>
        <dc:type
           rdf:resource="http://purl.org/dc/dcmitype/StillImage" />
        <dc:title />
      </cc:Work>
    </rdf:RDF>
  </metadata>
  <g
     inkscape:label="Tile"
     inkscape:groupmode="layer"
     id="layer1"
     transform="translate(0,-138.25001)">
    <rect
       style="display:inline;opacity:0.95999995;fill:#ea222c;fill-opacity:1;stroke:none;stroke-width:0.26458335;stroke-opacity:1"
       width="211.66667"
       height="158.75"
       x="0"
       y="138.25002"
       id="rect817"
       inkscape:label="Background" />
    <path
       style="opacity:0.2020202;stroke-width:1.97530544"
       d="m 402.00391,85.894531 -4.08399,9.681641 c -7.94868,18.848198 -9.3199,25.480388 -9.14453,44.248048 0.12624,13.53607 1.29662,21.89166 4.19922,29.98242 2.21325,6.16906 18.02513,35.40387 35.13672,64.96484 17.11158,29.56097 33.33558,59.18006 36.05469,65.82032 0.87849,2.14543 1.66151,4.59191 2.36523,7.21093 L 346.16797,187.43945 c -0.13584,-0.13606 -0.25259,-0.20703 -0.34961,-0.20703 -1.68115,0 -8.61313,16.0528 -11.51367,26.66602 -3.4623,12.66856 -2.65225,36.57337 1.71679,50.71875 2.29319,7.42446 16.66246,34.94226 34.92188,66.875 10.36034,18.11851 20.28526,35.99723 27.08203,48.67578 l -97.86328,-97.86328 -19.93945,6.93945 c -96.87562,33.72023 -131.83833,98.11058 -84.18164,155.03125 1.8634,2.22565 3.87785,4.42083 6.0371,6.58008 l 438.29493,438.29297 c 32.17058,32.17062 96.25032,56.60249 164.61328,62.16406 39.49262,3.21286 92.19887,-0.86534 127.89844,-9.89648 48.94922,-12.38306 94.49023,-37.71132 112.90043,-62.79102 12.7233,-17.33265 17.7189,-30.85266 17.6093,-47.65039 -0.1224,-18.79272 -5.271,-32.69579 -17.9609,-48.49414 -2.1828,-2.71748 -4.6482,-5.44317 -7.3594,-8.1543 L 900.61719,636.86914 c -4.64477,-8.0749 -9.86938,-17.13296 -16.08985,-27.91016 -20.62284,-35.72999 -39.01199,-69.42062 -40.86328,-74.86718 l -3.36523,-9.90235 z"
       id="path845"
       inkscape:connector-curvature="0"
       inkscape:label="shadow"
       transform="matrix(0.26458334,0,0,0.26458334,0,138.25001)"
       clip-path="url(#clipPath988)" />
    <path
       inkscape:label="Logo"
       inkscape:connector-curvature="0"
       id="path834"
       d="M 97.0206,273.98575 C 77.718869,272.41548 59.707544,265.16023 51.868979,255.79791 39.259813,240.73765 48.510821,223.70115 74.142495,214.77934 l 5.275192,-1.83618 0.348847,3.0057 c 0.634893,5.47026 2.550795,9.57014 12.362565,26.45488 11.169741,19.22161 11.732521,20.27554 12.222901,22.8895 0.19971,1.06457 0.53731,1.93557 0.75021,1.93557 0.83225,0 3.67387,-7.26024 4.14573,-10.59221 0.61066,-4.31205 -0.0225,-9.3313 -1.68881,-13.38934 -0.66265,-1.61373 -4.89885,-9.39429 -9.413772,-17.29014 -4.831138,-8.44887 -8.633135,-15.7295 -9.239874,-17.69389 -1.155976,-3.74263 -1.369853,-10.06719 -0.453786,-13.41908 0.767435,-2.80808 2.601063,-7.05556 3.045867,-7.05556 0.197174,0 0.724203,1.11714 1.171153,2.48251 0.44695,1.36539 6.376432,12.1251 13.176642,23.91046 6.8002,11.78538 12.75474,22.66268 13.23233,24.17178 0.47759,1.5091 1.02847,2.74381 1.22415,2.74381 0.52248,0 2.94295,-5.61644 3.66278,-8.49907 0.96456,-3.86277 0.40871,-11.00071 -1.15382,-14.81666 -0.71943,-1.7569 -5.0123,-9.59365 -9.53974,-17.41499 -4.52744,-7.82134 -8.71081,-15.55608 -9.2964,-17.18831 -0.76798,-2.14068 -1.07758,-4.3513 -1.11098,-7.93272 -0.0464,-4.96561 0.31636,-6.72065 2.41945,-11.70757 l 1.08025,-2.5615 0.89061,2.6201 c 0.48982,1.44107 5.35499,10.35483 10.81145,19.80839 12.06408,20.90148 12.03556,20.84558 12.99797,25.47774 0.42635,2.05211 0.93742,3.86127 1.1357,4.02038 0.1983,0.15902 2.12442,0.83024 4.28029,1.49141 9.59265,2.94199 19.40473,9.00217 24.15935,14.92143 3.35754,4.17998 4.72003,7.85845 4.75243,12.83069 0.029,4.4444 -1.293,8.02138 -4.65939,12.60731 -4.87102,6.63567 -16.92059,13.33716 -29.87174,16.61351 -9.44551,2.38949 -23.39036,3.46853 -33.83945,2.61846 z"
       style="fill:#f4f4f4;fill-opacity:1;stroke-width:0.5226329" />
  </g>
</svg>
